G04 Layer_Color=255*
%FSLAX25Y25*%
%MOIN*%
G70*
G01*
G75*
%ADD10R,0.05905X0.05512*%
%ADD11R,0.05905X0.06299*%
%ADD21C,0.11811*%
%ADD22R,0.11811X0.11811*%
%ADD23R,0.05905X0.05905*%
%ADD24C,0.05905*%
%ADD25R,0.04724X0.09842*%
%ADD26O,0.04724X0.09842*%
%ADD27C,0.06000*%
%ADD28O,0.31496X0.23622*%
%ADD29C,0.31496*%
%ADD30C,0.10000*%
D10*
X358300Y158437D02*
D03*
Y150563D02*
D03*
X236300Y161337D02*
D03*
Y153463D02*
D03*
X102700Y160437D02*
D03*
Y152563D02*
D03*
X374876Y354832D02*
D03*
Y362706D02*
D03*
Y336860D02*
D03*
Y344734D02*
D03*
Y318887D02*
D03*
Y326761D02*
D03*
Y300915D02*
D03*
Y308789D02*
D03*
Y282943D02*
D03*
Y290817D02*
D03*
Y264970D02*
D03*
Y272844D02*
D03*
Y246998D02*
D03*
Y254872D02*
D03*
X5300Y358826D02*
D03*
Y366700D02*
D03*
Y340854D02*
D03*
Y348728D02*
D03*
Y322881D02*
D03*
Y330755D02*
D03*
Y304909D02*
D03*
Y312783D02*
D03*
Y286936D02*
D03*
Y294810D02*
D03*
Y268964D02*
D03*
Y276838D02*
D03*
Y250991D02*
D03*
Y258865D02*
D03*
X267776Y360232D02*
D03*
Y368106D02*
D03*
Y342260D02*
D03*
Y350134D02*
D03*
Y324287D02*
D03*
Y332161D02*
D03*
Y306315D02*
D03*
Y314189D02*
D03*
Y288342D02*
D03*
Y296217D02*
D03*
Y270370D02*
D03*
Y278244D02*
D03*
Y252398D02*
D03*
Y260272D02*
D03*
X137500Y360063D02*
D03*
Y367937D02*
D03*
Y342091D02*
D03*
Y349965D02*
D03*
Y324118D02*
D03*
Y331992D02*
D03*
Y270201D02*
D03*
Y278075D02*
D03*
Y252228D02*
D03*
Y260102D02*
D03*
Y288173D02*
D03*
Y296047D02*
D03*
Y306146D02*
D03*
Y314020D02*
D03*
X307772Y161713D02*
D03*
Y169587D02*
D03*
X177358Y161713D02*
D03*
Y169587D02*
D03*
X43598Y161614D02*
D03*
Y169488D02*
D03*
X110134Y259941D02*
D03*
Y252067D02*
D03*
Y278110D02*
D03*
Y270236D02*
D03*
Y296280D02*
D03*
Y288405D02*
D03*
Y314449D02*
D03*
Y306575D02*
D03*
Y332618D02*
D03*
Y324744D02*
D03*
Y350787D02*
D03*
Y342913D02*
D03*
X244386Y259941D02*
D03*
Y252067D02*
D03*
Y278110D02*
D03*
Y270236D02*
D03*
Y296280D02*
D03*
Y288405D02*
D03*
Y314449D02*
D03*
Y306575D02*
D03*
Y332618D02*
D03*
Y324744D02*
D03*
Y350787D02*
D03*
Y342913D02*
D03*
X110232Y368996D02*
D03*
Y361122D02*
D03*
X244271Y368284D02*
D03*
Y360410D02*
D03*
D11*
X230240Y144900D02*
D03*
X222760D02*
D03*
X354840Y141600D02*
D03*
X347360D02*
D03*
X95140Y144000D02*
D03*
X87660D02*
D03*
X358220Y204100D02*
D03*
X365700D02*
D03*
X238260Y207300D02*
D03*
X245740D02*
D03*
X105260Y207500D02*
D03*
X112740D02*
D03*
X321860Y164300D02*
D03*
X329340D02*
D03*
X310429Y150787D02*
D03*
X317909D02*
D03*
X57260Y166600D02*
D03*
X64740D02*
D03*
X179917Y150787D02*
D03*
X187398D02*
D03*
X191960Y164300D02*
D03*
X199440D02*
D03*
X46059Y150689D02*
D03*
X53539D02*
D03*
D21*
X98257Y28300D02*
D03*
D22*
X117943D02*
D03*
D23*
X386700Y131600D02*
D03*
X258100Y129900D02*
D03*
X123300Y132400D02*
D03*
D24*
X376700Y131600D02*
D03*
X366700D02*
D03*
X356700D02*
D03*
X346700D02*
D03*
X336700D02*
D03*
X248100Y129900D02*
D03*
X238100D02*
D03*
X228100D02*
D03*
X218100D02*
D03*
X208100D02*
D03*
X113300Y132400D02*
D03*
X103300D02*
D03*
X93300D02*
D03*
X83300D02*
D03*
X73300D02*
D03*
X314005Y179855D02*
D03*
X329805D02*
D03*
X321898Y179805D02*
D03*
X183155Y179855D02*
D03*
X198955D02*
D03*
X191048Y179805D02*
D03*
X48553Y179855D02*
D03*
X64353D02*
D03*
X56445Y179805D02*
D03*
D25*
X160600Y27100D02*
D03*
D26*
X170600D02*
D03*
X180600D02*
D03*
X190600D02*
D03*
X200600D02*
D03*
X210600D02*
D03*
X220600D02*
D03*
X230600D02*
D03*
X240600D02*
D03*
X250600D02*
D03*
X260600D02*
D03*
X270600D02*
D03*
X280600D02*
D03*
X290600D02*
D03*
X300600D02*
D03*
X310600D02*
D03*
X320600D02*
D03*
X330600D02*
D03*
X340600D02*
D03*
X350600D02*
D03*
X160600Y87100D02*
D03*
X170600D02*
D03*
X180600D02*
D03*
X190600D02*
D03*
X200600D02*
D03*
X210600D02*
D03*
X220600D02*
D03*
X230600D02*
D03*
X240600D02*
D03*
X250600D02*
D03*
X260600D02*
D03*
X270600D02*
D03*
X280600D02*
D03*
X290600D02*
D03*
X300600D02*
D03*
X310600D02*
D03*
X320600D02*
D03*
X330600D02*
D03*
X340600D02*
D03*
X350600D02*
D03*
D27*
X124500Y165078D02*
D03*
Y172952D02*
D03*
Y188700D02*
D03*
Y204448D02*
D03*
X377600Y203348D02*
D03*
Y187600D02*
D03*
Y171852D02*
D03*
Y163978D02*
D03*
X257800Y203548D02*
D03*
Y187800D02*
D03*
Y172052D02*
D03*
Y164178D02*
D03*
X385827Y385827D02*
D03*
X385827Y7874D02*
D03*
X7874Y385827D02*
D03*
Y7874D02*
D03*
D28*
X341598Y263305D02*
D03*
X302213Y262720D02*
D03*
X210748Y263305D02*
D03*
X171363Y262720D02*
D03*
X76145Y263305D02*
D03*
X36760Y262720D02*
D03*
D29*
X342657Y359744D02*
D03*
X214366Y359744D02*
D03*
X298071Y359744D02*
D03*
X77500Y359744D02*
D03*
X170272Y359744D02*
D03*
X32815Y359744D02*
D03*
D30*
X306906Y287323D02*
D03*
X336906D02*
D03*
Y317323D02*
D03*
X306906D02*
D03*
X176055Y287421D02*
D03*
X206055D02*
D03*
Y317421D02*
D03*
X176055D02*
D03*
X41453Y287323D02*
D03*
X71453D02*
D03*
Y317323D02*
D03*
X41453D02*
D03*
M02*
