G04 Layer_Color=32896*
%FSLAX25Y25*%
%MOIN*%
G70*
G01*
G75*
%ADD40C,0.00787*%
%ADD41C,0.00500*%
%ADD42C,0.01000*%
D40*
X349200Y191893D02*
G03*
X349200Y194393I0J1250D01*
G01*
X228850Y195293D02*
G03*
X228850Y197793I0J1250D01*
G01*
X95200Y195307D02*
G03*
X95200Y197807I0J1250D01*
G01*
X81241Y118700D02*
X86359D01*
X90241Y118600D02*
X95359D01*
X109841Y118500D02*
X114959D01*
X100741Y118800D02*
X105859D01*
X244141Y115800D02*
X249259D01*
X225541Y116000D02*
X230659D01*
X216541Y116000D02*
X221659D01*
X234941Y115900D02*
X240059D01*
X344741Y114700D02*
X349859D01*
X353941Y114500D02*
X359059D01*
X363541Y114400D02*
X368659D01*
X372441Y114400D02*
X377559D01*
X372841Y230200D02*
X377959D01*
X349200Y207769D02*
X369200D01*
Y178517D02*
Y207769D01*
X349200Y178517D02*
X369200D01*
X349200D02*
Y191893D01*
Y194393D02*
Y207769D01*
X372716Y246831D02*
X377835D01*
X372716Y264803D02*
X377835D01*
X372716Y282776D02*
X377835D01*
X372716Y300748D02*
X377835D01*
X372716Y318721D02*
X377835D01*
X372716Y336693D02*
X377835D01*
X372716Y354665D02*
X377835D01*
X386417Y250131D02*
X391535D01*
X386417Y268103D02*
X391535D01*
X386417Y286076D02*
X391535D01*
X386417Y304048D02*
X391535D01*
X386417Y322021D02*
X391535D01*
X386417Y339993D02*
X391535D01*
X386417Y357965D02*
X391535D01*
X261717Y327720D02*
X266835D01*
X261717Y255831D02*
X266835D01*
X261717Y273803D02*
X266835D01*
X261717Y291776D02*
X266835D01*
X261717Y309748D02*
X266835D01*
X261717Y345693D02*
X266835D01*
X261717Y363665D02*
X266835D01*
X228850Y211169D02*
X248850D01*
Y181917D02*
Y211169D01*
X228850Y181917D02*
X248850D01*
X228850D02*
Y195293D01*
Y197793D02*
Y211169D01*
X249541Y236500D02*
X254659D01*
X118141Y237300D02*
X123259D01*
X95200Y211183D02*
X115200D01*
Y181931D02*
Y211183D01*
X95200Y181931D02*
X115200D01*
X95200D02*
Y195307D01*
Y197807D02*
Y211183D01*
X130717Y364665D02*
X135835D01*
X130717Y256831D02*
X135835D01*
X130717Y274803D02*
X135835D01*
X130717Y292776D02*
X135835D01*
X130717Y310748D02*
X135835D01*
X130717Y328720D02*
X135835D01*
X130717Y346693D02*
X135835D01*
X112004Y365059D02*
X117122D01*
X112004Y346850D02*
X117122D01*
X112004Y328642D02*
X117122D01*
X112201Y310433D02*
X117319D01*
X112201Y292421D02*
X117319D01*
X112398Y274114D02*
X117516D01*
X112299Y256004D02*
X117417D01*
X245370Y363779D02*
X250488D01*
X245370Y345807D02*
X250488D01*
X245370Y327835D02*
X250488D01*
X245370Y309862D02*
X250488D01*
X245370Y291890D02*
X250488D01*
X245370Y273917D02*
X250488D01*
X245370Y255945D02*
X250488D01*
D41*
X79804Y110964D02*
Y126436D01*
Y110964D02*
X87796D01*
Y126436D01*
X79804D02*
X87796D01*
X96796Y110864D02*
Y126336D01*
X88804D02*
X96796D01*
X88804Y110864D02*
Y126336D01*
Y110864D02*
X96796D01*
X108404Y110764D02*
Y126236D01*
Y110764D02*
X116396D01*
Y126236D01*
X108404D02*
X116396D01*
X107296Y111064D02*
Y126536D01*
X99304D02*
X107296D01*
X99304Y111064D02*
Y126536D01*
Y111064D02*
X107296D01*
X242704Y108064D02*
Y123536D01*
Y108064D02*
X250696D01*
Y123536D01*
X242704D02*
X250696D01*
X232096Y108264D02*
Y123736D01*
X224104D02*
X232096D01*
X224104Y108264D02*
Y123736D01*
Y108264D02*
X232096D01*
X215104D02*
Y123736D01*
Y108264D02*
X223096D01*
Y123736D01*
X215104D02*
X223096D01*
X241496Y108164D02*
Y123636D01*
X233504D02*
X241496D01*
X233504Y108164D02*
Y123636D01*
Y108164D02*
X241496D01*
X343304Y106964D02*
Y122436D01*
Y106964D02*
X351296D01*
Y122436D01*
X343304D02*
X351296D01*
X360496Y106764D02*
Y122236D01*
X352504D02*
X360496D01*
X352504Y106764D02*
Y122236D01*
Y106764D02*
X360496D01*
X370096Y106664D02*
Y122136D01*
X362104D02*
X370096D01*
X362104Y106664D02*
Y122136D01*
Y106664D02*
X370096D01*
X371004D02*
Y122136D01*
Y106664D02*
X378996D01*
Y122136D01*
X371004D02*
X378996D01*
X265850Y173835D02*
X273950D01*
Y158645D02*
Y173835D01*
X265850Y158645D02*
Y173835D01*
Y158645D02*
X273950D01*
X384350Y173795D02*
X392450D01*
Y158605D02*
Y173795D01*
X384350Y158605D02*
Y173795D01*
Y158605D02*
X392450D01*
X132150Y175495D02*
X140250D01*
Y160305D02*
Y175495D01*
X132150Y160305D02*
Y175495D01*
Y160305D02*
X140250D01*
X131350Y187905D02*
X139450D01*
X131350D02*
Y203095D01*
X139450Y187905D02*
Y203095D01*
X131350D02*
X139450D01*
X266250Y187705D02*
X274350D01*
X266250D02*
Y202895D01*
X274350Y187705D02*
Y202895D01*
X266250D02*
X274350D01*
X360650Y237295D02*
X368750D01*
Y222105D02*
Y237295D01*
X360650Y222105D02*
Y237295D01*
Y222105D02*
X368750D01*
X371404Y222464D02*
Y237936D01*
Y222464D02*
X379396D01*
Y237936D01*
X371404D02*
X379396D01*
X384650Y187605D02*
X392750D01*
X384650D02*
Y202795D01*
X392750Y187605D02*
Y202795D01*
X384650D02*
X392750D01*
X371280Y239094D02*
Y254567D01*
Y239094D02*
X379272D01*
Y254567D01*
X371280D02*
X379272D01*
X371280Y257067D02*
Y272539D01*
Y257067D02*
X379272D01*
Y272539D01*
X371280D02*
X379272D01*
X371280Y275039D02*
Y290512D01*
Y275039D02*
X379272D01*
Y290512D01*
X371280D02*
X379272D01*
X371280Y293012D02*
Y308484D01*
Y293012D02*
X379272D01*
Y308484D01*
X371280D02*
X379272D01*
X371280Y310984D02*
Y326457D01*
Y310984D02*
X379272D01*
Y326457D01*
X371280D02*
X379272D01*
X371280Y328957D02*
Y344429D01*
Y328957D02*
X379272D01*
Y344429D01*
X371280D02*
X379272D01*
X371280Y346929D02*
Y362402D01*
Y346929D02*
X379272D01*
Y362402D01*
X371280D02*
X379272D01*
X384980Y242394D02*
Y257867D01*
Y242394D02*
X392972D01*
Y257867D01*
X384980D02*
X392972D01*
X384980Y260367D02*
Y275839D01*
Y260367D02*
X392972D01*
Y275839D01*
X384980D02*
X392972D01*
X384980Y278339D02*
Y293812D01*
Y278339D02*
X392972D01*
Y293812D01*
X384980D02*
X392972D01*
X384980Y296312D02*
Y311784D01*
Y296312D02*
X392972D01*
Y311784D01*
X384980D02*
X392972D01*
X384980Y314284D02*
Y329757D01*
Y314284D02*
X392972D01*
Y329757D01*
X384980D02*
X392972D01*
X384980Y332257D02*
Y347729D01*
Y332257D02*
X392972D01*
Y347729D01*
X384980D02*
X392972D01*
X384980Y350229D02*
Y365702D01*
Y350229D02*
X392972D01*
Y365702D01*
X384980D02*
X392972D01*
X260279Y319984D02*
Y335457D01*
Y319984D02*
X268272D01*
Y335457D01*
X260279D02*
X268272D01*
X260279Y248095D02*
Y263567D01*
Y248095D02*
X268272D01*
Y263567D01*
X260279D02*
X268272D01*
X260279Y266067D02*
Y281539D01*
Y266067D02*
X268272D01*
Y281539D01*
X260279D02*
X268272D01*
X260279Y284039D02*
Y299512D01*
Y284039D02*
X268272D01*
Y299512D01*
X260279D02*
X268272D01*
X260279Y302012D02*
Y317484D01*
Y302012D02*
X268272D01*
Y317484D01*
X260279D02*
X268272D01*
X260279Y337957D02*
Y353429D01*
Y337957D02*
X268272D01*
Y353429D01*
X260279D02*
X268272D01*
X260279Y355929D02*
Y371402D01*
Y355929D02*
X268272D01*
Y371402D01*
X260279D02*
X268272D01*
X248104Y228764D02*
Y244236D01*
Y228764D02*
X256096D01*
Y244236D01*
X248104D02*
X256096D01*
X239050Y244195D02*
X247150D01*
Y229005D02*
Y244195D01*
X239050Y229005D02*
Y244195D01*
Y229005D02*
X247150D01*
X116704Y229564D02*
Y245036D01*
Y229564D02*
X124696D01*
Y245036D01*
X116704D02*
X124696D01*
X107550Y245055D02*
X115650D01*
Y229865D02*
Y245055D01*
X107550Y229865D02*
Y245055D01*
Y229865D02*
X115650D01*
X129279Y356929D02*
Y372402D01*
Y356929D02*
X137272D01*
Y372402D01*
X129279D02*
X137272D01*
X129279Y249095D02*
Y264567D01*
Y249095D02*
X137272D01*
Y264567D01*
X129279D02*
X137272D01*
X129279Y267067D02*
Y282539D01*
Y267067D02*
X137272D01*
Y282539D01*
X129279D02*
X137272D01*
X129279Y285039D02*
Y300512D01*
Y285039D02*
X137272D01*
Y300512D01*
X129279D02*
X137272D01*
X129279Y303012D02*
Y318484D01*
Y303012D02*
X137272D01*
Y318484D01*
X129279D02*
X137272D01*
X129279Y320984D02*
Y336457D01*
Y320984D02*
X137272D01*
Y336457D01*
X129279D02*
X137272D01*
X129279Y338957D02*
Y354429D01*
Y338957D02*
X137272D01*
Y354429D01*
X129279D02*
X137272D01*
X110567Y372795D02*
X118559D01*
Y357323D02*
Y372795D01*
X110567Y357323D02*
X118559D01*
X110567D02*
Y372795D01*
Y354587D02*
X118559D01*
Y339114D02*
Y354587D01*
X110567Y339114D02*
X118559D01*
X110567D02*
Y354587D01*
Y336378D02*
X118559D01*
Y320905D02*
Y336378D01*
X110567Y320905D02*
X118559D01*
X110567D02*
Y336378D01*
X110764Y318169D02*
X118756D01*
Y302697D02*
Y318169D01*
X110764Y302697D02*
X118756D01*
X110764D02*
Y318169D01*
Y300157D02*
X118756D01*
Y284685D02*
Y300157D01*
X110764Y284685D02*
X118756D01*
X110764D02*
Y300157D01*
X110961Y281850D02*
X118953D01*
Y266378D02*
Y281850D01*
X110961Y266378D02*
X118953D01*
X110961D02*
Y281850D01*
X110862Y263740D02*
X118854D01*
Y248268D02*
Y263740D01*
X110862Y248268D02*
X118854D01*
X110862D02*
Y263740D01*
X243933Y371516D02*
X251925D01*
Y356043D02*
Y371516D01*
X243933Y356043D02*
X251925D01*
X243933D02*
Y371516D01*
Y353543D02*
X251925D01*
Y338071D02*
Y353543D01*
X243933Y338071D02*
X251925D01*
X243933D02*
Y353543D01*
Y335571D02*
X251925D01*
Y320098D02*
Y335571D01*
X243933Y320098D02*
X251925D01*
X243933D02*
Y335571D01*
Y317598D02*
X251925D01*
Y302126D02*
Y317598D01*
X243933Y302126D02*
X251925D01*
X243933D02*
Y317598D01*
Y299626D02*
X251925D01*
Y284154D02*
Y299626D01*
X243933Y284154D02*
X251925D01*
X243933D02*
Y299626D01*
Y281654D02*
X251925D01*
Y266181D02*
Y281654D01*
X243933Y266181D02*
X251925D01*
X243933D02*
Y281654D01*
Y263681D02*
X251925D01*
Y248209D02*
Y263681D01*
X243933Y248209D02*
X251925D01*
X243933D02*
Y263681D01*
D42*
X87000Y108700D02*
X81002D01*
Y105701D01*
X82002Y104701D01*
X84001D01*
X85001Y105701D01*
Y108700D01*
Y106701D02*
X87000Y104701D01*
Y102702D02*
Y100703D01*
Y101702D01*
X81002D01*
X82002Y102702D01*
X81002Y97704D02*
Y93705D01*
X82002D01*
X86000Y97704D01*
X87000D01*
X96000Y109100D02*
X90002D01*
Y106101D01*
X91002Y105101D01*
X93001D01*
X94001Y106101D01*
Y109100D01*
Y107101D02*
X96000Y105101D01*
Y103102D02*
Y101103D01*
Y102102D01*
X90002D01*
X91002Y103102D01*
X90002Y94105D02*
X91002Y96104D01*
X93001Y98104D01*
X95000D01*
X96000Y97104D01*
Y95104D01*
X95000Y94105D01*
X94001D01*
X93001Y95104D01*
Y98104D01*
X115600Y109100D02*
X109602D01*
Y106101D01*
X110602Y105101D01*
X112601D01*
X113601Y106101D01*
Y109100D01*
Y107101D02*
X115600Y105101D01*
Y103102D02*
Y101103D01*
Y102102D01*
X109602D01*
X110602Y103102D01*
X115600Y95104D02*
X109602D01*
X112601Y98104D01*
Y94105D01*
X106100Y109700D02*
X100102D01*
Y106701D01*
X101102Y105701D01*
X103101D01*
X104101Y106701D01*
Y109700D01*
Y107701D02*
X106100Y105701D01*
Y103702D02*
Y101703D01*
Y102702D01*
X100102D01*
X101102Y103702D01*
X106100Y94705D02*
Y98704D01*
X102101Y94705D01*
X101102D01*
X100102Y95705D01*
Y97704D01*
X101102Y98704D01*
X213300Y122500D02*
X207302D01*
Y119501D01*
X208302Y118501D01*
X210301D01*
X211301Y119501D01*
Y122500D01*
Y120501D02*
X213300Y118501D01*
Y116502D02*
Y114503D01*
Y115502D01*
X207302D01*
X208302Y116502D01*
X213300Y111504D02*
Y109504D01*
Y110504D01*
X207302D01*
X208302Y111504D01*
X233000Y100600D02*
Y106598D01*
X230001D01*
X229001Y105598D01*
Y103599D01*
X230001Y102599D01*
X233000D01*
X231001D02*
X229001Y100600D01*
X227002D02*
X225003D01*
X226002D01*
Y106598D01*
X227002Y105598D01*
X222004D02*
X221004Y106598D01*
X219005D01*
X218005Y105598D01*
Y101600D01*
X219005Y100600D01*
X221004D01*
X222004Y101600D01*
Y105598D01*
X259000Y121100D02*
X253002D01*
Y118101D01*
X254002Y117101D01*
X256001D01*
X257001Y118101D01*
Y121100D01*
Y119101D02*
X259000Y117101D01*
X258000Y115102D02*
X259000Y114102D01*
Y112103D01*
X258000Y111103D01*
X254002D01*
X253002Y112103D01*
Y114102D01*
X254002Y115102D01*
X255001D01*
X256001Y114102D01*
Y111103D01*
X245300Y100300D02*
Y106298D01*
X242301D01*
X241301Y105298D01*
Y103299D01*
X242301Y102299D01*
X245300D01*
X243301D02*
X241301Y100300D01*
X239302Y105298D02*
X238302Y106298D01*
X236303D01*
X235303Y105298D01*
Y104299D01*
X236303Y103299D01*
X235303Y102299D01*
Y101300D01*
X236303Y100300D01*
X238302D01*
X239302Y101300D01*
Y102299D01*
X238302Y103299D01*
X239302Y104299D01*
Y105298D01*
X238302Y103299D02*
X236303D01*
X350100Y105200D02*
X344102D01*
Y102201D01*
X345102Y101201D01*
X347101D01*
X348101Y102201D01*
Y105200D01*
Y103201D02*
X350100Y101201D01*
X344102Y95203D02*
X345102Y97203D01*
X347101Y99202D01*
X349100D01*
X350100Y98202D01*
Y96203D01*
X349100Y95203D01*
X348101D01*
X347101Y96203D01*
Y99202D01*
X359600Y105500D02*
X353602D01*
Y102501D01*
X354602Y101501D01*
X356601D01*
X357601Y102501D01*
Y105500D01*
Y103501D02*
X359600Y101501D01*
X353602Y95503D02*
Y99502D01*
X356601D01*
X355601Y97503D01*
Y96503D01*
X356601Y95503D01*
X358600D01*
X359600Y96503D01*
Y98502D01*
X358600Y99502D01*
X378000Y105100D02*
X372002D01*
Y102101D01*
X373002Y101101D01*
X375001D01*
X376001Y102101D01*
Y105100D01*
Y103101D02*
X378000Y101101D01*
X373002Y99102D02*
X372002Y98102D01*
Y96103D01*
X373002Y95103D01*
X374001D01*
X375001Y96103D01*
Y97103D01*
Y96103D01*
X376001Y95103D01*
X377000D01*
X378000Y96103D01*
Y98102D01*
X377000Y99102D01*
X369000Y104700D02*
X363002D01*
Y101701D01*
X364002Y100701D01*
X366001D01*
X367001Y101701D01*
Y104700D01*
Y102701D02*
X369000Y100701D01*
Y94703D02*
Y98702D01*
X365001Y94703D01*
X364002D01*
X363002Y95703D01*
Y97702D01*
X364002Y98702D01*
X269171Y182123D02*
X270170Y183123D01*
X272170D01*
X273169Y182123D01*
Y178124D01*
X272170Y177124D01*
X270170D01*
X269171Y178124D01*
X267171Y177124D02*
X265172D01*
X266172D01*
Y183123D01*
X267171Y182123D01*
X262173Y177124D02*
X260174D01*
X261173D01*
Y183123D01*
X262173Y182123D01*
X135471Y183723D02*
X136470Y184722D01*
X138470D01*
X139469Y183723D01*
Y179724D01*
X138470Y178724D01*
X136470D01*
X135471Y179724D01*
X129472Y178724D02*
X133471D01*
X129472Y182723D01*
Y183723D01*
X130472Y184722D01*
X132472D01*
X133471Y183723D01*
X127473Y178724D02*
X125474D01*
X126473D01*
Y184722D01*
X127473Y183723D01*
X387671Y182023D02*
X388670Y183022D01*
X390670D01*
X391669Y182023D01*
Y178024D01*
X390670Y177024D01*
X388670D01*
X387671Y178024D01*
X385671Y177024D02*
X383672D01*
X384671D01*
Y183022D01*
X385671Y182023D01*
X376674Y183022D02*
X378674Y182023D01*
X380673Y180023D01*
Y178024D01*
X379673Y177024D01*
X377674D01*
X376674Y178024D01*
Y179024D01*
X377674Y180023D01*
X380673D01*
X248269Y230923D02*
Y225924D01*
X247270Y224924D01*
X245270D01*
X244271Y225924D01*
Y230923D01*
X238273D02*
X240272Y229923D01*
X242271Y227923D01*
Y225924D01*
X241271Y224924D01*
X239272D01*
X238273Y225924D01*
Y226924D01*
X239272Y227923D01*
X242271D01*
X368569Y227522D02*
Y222524D01*
X367570Y221524D01*
X365570D01*
X364571Y222524D01*
Y227522D01*
X359572Y221524D02*
Y227522D01*
X362571Y224523D01*
X358573D01*
X387900Y235700D02*
X381902D01*
Y232701D01*
X382902Y231701D01*
X384901D01*
X385901Y232701D01*
Y235700D01*
Y233701D02*
X387900Y231701D01*
Y229702D02*
Y227703D01*
Y228702D01*
X381902D01*
X382902Y229702D01*
X386900Y224704D02*
X387900Y223704D01*
Y221705D01*
X386900Y220705D01*
X382902D01*
X381902Y221705D01*
Y223704D01*
X382902Y224704D01*
X383901D01*
X384901Y223704D01*
Y220705D01*
X265000Y241500D02*
X259002D01*
Y238501D01*
X260002Y237501D01*
X262001D01*
X263001Y238501D01*
Y241500D01*
Y239501D02*
X265000Y237501D01*
X260002Y235502D02*
X259002Y234502D01*
Y232503D01*
X260002Y231503D01*
X261001D01*
X262001Y232503D01*
Y233503D01*
Y232503D01*
X263001Y231503D01*
X264000D01*
X265000Y232503D01*
Y234502D01*
X264000Y235502D01*
X259002Y225505D02*
Y229504D01*
X262001D01*
X261001Y227504D01*
Y226505D01*
X262001Y225505D01*
X264000D01*
X265000Y226505D01*
Y228504D01*
X264000Y229504D01*
X387971Y211023D02*
X388970Y212022D01*
X390970D01*
X391969Y211023D01*
Y207024D01*
X390970Y206024D01*
X388970D01*
X387971Y207024D01*
X385971Y206024D02*
X383972D01*
X384971D01*
Y212022D01*
X385971Y211023D01*
X380973D02*
X379973Y212022D01*
X377974D01*
X376974Y211023D01*
Y210023D01*
X377974Y209023D01*
X378974D01*
X377974D01*
X376974Y208024D01*
Y207024D01*
X377974Y206024D01*
X379973D01*
X380973Y207024D01*
X353702Y234001D02*
X352702Y235001D01*
Y237000D01*
X353702Y238000D01*
X357700D01*
X358700Y237000D01*
Y235001D01*
X357700Y234001D01*
X358700Y232002D02*
Y230003D01*
Y231002D01*
X352702D01*
X353702Y232002D01*
X358700Y224005D02*
X352702D01*
X355701Y227004D01*
Y223005D01*
X269571Y211123D02*
X270570Y212123D01*
X272570D01*
X273569Y211123D01*
Y207124D01*
X272570Y206124D01*
X270570D01*
X269571Y207124D01*
X267571Y206124D02*
X265572D01*
X266571D01*
Y212123D01*
X267571Y211123D01*
X262573D02*
X261573Y212123D01*
X259574D01*
X258574Y211123D01*
Y210123D01*
X259574Y209123D01*
X258574Y208124D01*
Y207124D01*
X259574Y206124D01*
X261573D01*
X262573Y207124D01*
Y208124D01*
X261573Y209123D01*
X262573Y210123D01*
Y211123D01*
X261573Y209123D02*
X259574D01*
X231102Y239501D02*
X230102Y240501D01*
Y242500D01*
X231102Y243500D01*
X235100D01*
X236100Y242500D01*
Y240501D01*
X235100Y239501D01*
X236100Y237502D02*
Y235503D01*
Y236502D01*
X230102D01*
X231102Y237502D01*
X235100Y232504D02*
X236100Y231504D01*
Y229504D01*
X235100Y228505D01*
X231102D01*
X230102Y229504D01*
Y231504D01*
X231102Y232504D01*
X232101D01*
X233101Y231504D01*
Y228505D01*
X126600Y233100D02*
X132598D01*
Y236099D01*
X131598Y237099D01*
X129599D01*
X128599Y236099D01*
Y233100D01*
Y235099D02*
X126600Y237099D01*
Y239098D02*
Y241097D01*
Y240098D01*
X132598D01*
X131598Y239098D01*
X132598Y248095D02*
Y244096D01*
X129599D01*
X130599Y246096D01*
Y247095D01*
X129599Y248095D01*
X127600D01*
X126600Y247095D01*
Y245096D01*
X127600Y244096D01*
X104098Y236699D02*
X105098Y235699D01*
Y233700D01*
X104098Y232700D01*
X100100D01*
X99100Y233700D01*
Y235699D01*
X100100Y236699D01*
Y238698D02*
X99100Y239698D01*
Y241697D01*
X100100Y242697D01*
X104098D01*
X105098Y241697D01*
Y239698D01*
X104098Y238698D01*
X103099D01*
X102099Y239698D01*
Y242697D01*
X86702Y209013D02*
X91700D01*
X92700Y208014D01*
Y206014D01*
X91700Y205015D01*
X86702D01*
X92700Y199017D02*
Y203015D01*
X88701Y199017D01*
X87702D01*
X86702Y200016D01*
Y202016D01*
X87702Y203015D01*
X142702Y196601D02*
X141702Y197601D01*
Y199600D01*
X142702Y200600D01*
X146700D01*
X147700Y199600D01*
Y197601D01*
X146700Y196601D01*
X142702Y194602D02*
X141702Y193602D01*
Y191603D01*
X142702Y190603D01*
X143701D01*
X144701Y191603D01*
X145701Y190603D01*
X146700D01*
X147700Y191603D01*
Y193602D01*
X146700Y194602D01*
X145701D01*
X144701Y193602D01*
X143701Y194602D01*
X142702D01*
X144701Y193602D02*
Y191603D01*
M02*
