G04 Layer_Color=128*
%FSLAX25Y25*%
%MOIN*%
G70*
G01*
G75*
%ADD10R,0.05905X0.05512*%
%ADD34R,0.06299X0.05905*%
%ADD35O,0.02362X0.07087*%
%ADD36R,0.02362X0.07087*%
D10*
X83800Y122637D02*
D03*
Y114763D02*
D03*
X92800Y114663D02*
D03*
Y122537D02*
D03*
X112400Y122437D02*
D03*
Y114563D02*
D03*
X103300Y114863D02*
D03*
Y122737D02*
D03*
X246700Y119737D02*
D03*
Y111863D02*
D03*
X228100Y112063D02*
D03*
Y119937D02*
D03*
X219100Y119937D02*
D03*
Y112063D02*
D03*
X237500Y111963D02*
D03*
Y119837D02*
D03*
X347300Y118637D02*
D03*
Y110763D02*
D03*
X356500Y110563D02*
D03*
Y118437D02*
D03*
X366100Y110463D02*
D03*
Y118337D02*
D03*
X375000Y118337D02*
D03*
Y110463D02*
D03*
X375400Y234137D02*
D03*
Y226263D02*
D03*
X375276Y250768D02*
D03*
Y242894D02*
D03*
Y268740D02*
D03*
Y260866D02*
D03*
Y286713D02*
D03*
Y278839D02*
D03*
Y304685D02*
D03*
Y296811D02*
D03*
Y322657D02*
D03*
Y314783D02*
D03*
Y340630D02*
D03*
Y332756D02*
D03*
Y358602D02*
D03*
Y350728D02*
D03*
X388976Y254068D02*
D03*
Y246194D02*
D03*
Y272040D02*
D03*
Y264166D02*
D03*
Y290013D02*
D03*
Y282139D02*
D03*
Y307985D02*
D03*
Y300111D02*
D03*
Y325957D02*
D03*
Y318083D02*
D03*
Y343930D02*
D03*
Y336056D02*
D03*
Y361902D02*
D03*
Y354028D02*
D03*
X264276Y331658D02*
D03*
Y323783D02*
D03*
Y259768D02*
D03*
Y251894D02*
D03*
Y277740D02*
D03*
Y269866D02*
D03*
Y295713D02*
D03*
Y287839D02*
D03*
Y313685D02*
D03*
Y305811D02*
D03*
Y349630D02*
D03*
Y341756D02*
D03*
Y367602D02*
D03*
Y359728D02*
D03*
X252100Y240437D02*
D03*
Y232563D02*
D03*
X120700Y241237D02*
D03*
Y233363D02*
D03*
X133276Y368602D02*
D03*
Y360728D02*
D03*
Y260768D02*
D03*
Y252894D02*
D03*
Y278740D02*
D03*
Y270866D02*
D03*
Y296713D02*
D03*
Y288839D02*
D03*
Y314685D02*
D03*
Y306811D02*
D03*
Y332658D02*
D03*
Y324783D02*
D03*
Y350630D02*
D03*
Y342756D02*
D03*
X114563Y361122D02*
D03*
Y368996D02*
D03*
Y342913D02*
D03*
Y350787D02*
D03*
Y324705D02*
D03*
Y332579D02*
D03*
X114760Y306496D02*
D03*
Y314370D02*
D03*
Y288484D02*
D03*
Y296358D02*
D03*
X114957Y270177D02*
D03*
Y278051D02*
D03*
X114858Y252067D02*
D03*
Y259941D02*
D03*
X247929Y359842D02*
D03*
Y367717D02*
D03*
Y341870D02*
D03*
Y349744D02*
D03*
Y323898D02*
D03*
Y331772D02*
D03*
Y305925D02*
D03*
Y313799D02*
D03*
Y287953D02*
D03*
Y295827D02*
D03*
Y269980D02*
D03*
Y277854D02*
D03*
Y252008D02*
D03*
Y259882D02*
D03*
D34*
X269900Y162500D02*
D03*
Y169980D02*
D03*
X388400Y162460D02*
D03*
Y169940D02*
D03*
X136200Y164160D02*
D03*
Y171640D02*
D03*
X135400Y199240D02*
D03*
Y191760D02*
D03*
X270300Y199040D02*
D03*
Y191560D02*
D03*
X364700Y225960D02*
D03*
Y233440D02*
D03*
X388700Y198940D02*
D03*
Y191460D02*
D03*
X243100Y232860D02*
D03*
Y240340D02*
D03*
X111600Y233720D02*
D03*
Y241200D02*
D03*
D35*
X366700Y171687D02*
D03*
X361700D02*
D03*
X356700D02*
D03*
X351700D02*
D03*
X366700Y214600D02*
D03*
X361700D02*
D03*
X356700D02*
D03*
X246350Y175087D02*
D03*
X241350D02*
D03*
X236350D02*
D03*
X231350D02*
D03*
X246350Y218000D02*
D03*
X241350D02*
D03*
X236350D02*
D03*
X112700Y175100D02*
D03*
X107700D02*
D03*
X102700D02*
D03*
X97700D02*
D03*
X112700Y218013D02*
D03*
X107700D02*
D03*
X102700D02*
D03*
D36*
X351700Y214600D02*
D03*
X231350Y218000D02*
D03*
X97700Y218013D02*
D03*
M02*
