G04 Layer_Physical_Order=2*
G04 Layer_Color=16711680*
%FSLAX25Y25*%
%MOIN*%
G70*
G01*
G75*
%ADD10R,0.05905X0.05512*%
%ADD12C,0.03000*%
%ADD14C,0.02000*%
%ADD15R,0.40846X1.29626*%
%ADD16R,0.40846X1.29626*%
%ADD17R,0.40846X1.29528*%
%ADD19R,0.40846X1.29724*%
%ADD21C,0.11811*%
%ADD22R,0.11811X0.11811*%
%ADD23R,0.05905X0.05905*%
%ADD24C,0.05905*%
%ADD25R,0.04724X0.09842*%
%ADD26O,0.04724X0.09842*%
%ADD27C,0.06000*%
%ADD28O,0.31496X0.23622*%
%ADD29C,0.31496*%
%ADD30C,0.10000*%
%ADD31C,0.03000*%
%ADD32C,0.03150*%
%ADD33C,0.02362*%
%ADD34R,0.06299X0.05905*%
%ADD35O,0.02362X0.07087*%
%ADD36R,0.02362X0.07087*%
%ADD37R,0.07700X0.07500*%
%ADD38R,0.40846X1.13173*%
%ADD39R,0.40846X1.17772*%
G36*
X375261Y175100D02*
X374716Y174736D01*
X373832Y173413D01*
X373621Y172352D01*
X377600D01*
Y171352D01*
X373621D01*
X373832Y170291D01*
X374716Y168968D01*
Y166862D01*
X373832Y165539D01*
X373522Y163978D01*
X371627Y163249D01*
X360608D01*
X360239Y163552D01*
X359199Y165249D01*
X359249Y165500D01*
X359169Y165904D01*
X360472Y167201D01*
X360474Y167202D01*
X360865Y167310D01*
X361200Y167171D01*
Y171687D01*
X362200D01*
Y167171D01*
X362940Y167477D01*
X363369Y167655D01*
X365031D01*
X365460Y167477D01*
X366200Y167171D01*
Y171687D01*
X366700D01*
Y172187D01*
X369061D01*
Y174049D01*
X368625Y175100D01*
X369601Y177100D01*
X374655Y177100D01*
X375261Y175100D01*
D02*
G37*
G36*
X349250Y177550D02*
X349725Y176436D01*
X349737Y176103D01*
X348138Y174236D01*
X335669D01*
X332753Y177152D01*
X333529Y178313D01*
X333836Y179855D01*
X333529Y181397D01*
X332655Y182705D01*
X331348Y183579D01*
X329805Y183885D01*
X328263Y183579D01*
X326956Y182705D01*
X324748Y182655D01*
X323440Y183528D01*
X322398Y183736D01*
Y179805D01*
Y175874D01*
X323440Y176082D01*
X324748Y176955D01*
X325325Y176968D01*
X327256Y176495D01*
X327451Y175519D01*
X328003Y174692D01*
X332811Y169884D01*
X333638Y169332D01*
X334613Y169138D01*
X349216D01*
Y162887D01*
X349410Y161911D01*
X349962Y161084D01*
X352149Y158898D01*
X352976Y158345D01*
X353951Y158151D01*
X374322D01*
X375297Y158345D01*
X376125Y158898D01*
X377205Y159978D01*
X377600Y159900D01*
X378387Y160056D01*
X379118Y159911D01*
X384168D01*
Y159507D01*
X384485Y158742D01*
X385250Y158425D01*
X391550D01*
X391996Y158610D01*
X393996Y157810D01*
X393996Y46940D01*
X393599Y46614D01*
X391602Y46002D01*
X390775Y46555D01*
X390300Y46650D01*
Y44200D01*
Y41750D01*
X390775Y41845D01*
X391602Y42398D01*
X393599Y41786D01*
X393996Y41460D01*
Y25940D01*
X393599Y25614D01*
X391602Y25002D01*
X390775Y25555D01*
X390300Y25649D01*
Y23200D01*
Y20751D01*
X390775Y20845D01*
X391602Y21398D01*
X393599Y20786D01*
X393996Y20460D01*
Y17600D01*
X375500Y17600D01*
Y-0D01*
X310036D01*
X309038Y2000D01*
X309055Y2025D01*
X309150Y2500D01*
X304251D01*
X304345Y2025D01*
X304362Y2000D01*
X303364Y-0D01*
X286463D01*
X285856Y2000D01*
X286002Y2098D01*
X286555Y2925D01*
X286649Y3400D01*
X281750D01*
X281845Y2925D01*
X282398Y2098D01*
X282544Y2000D01*
X281937Y-0D01*
X264813D01*
X264202Y1998D01*
X264755Y2825D01*
X264849Y3300D01*
X259950D01*
X260045Y2825D01*
X260598Y1998D01*
X259987Y-0D01*
X217877D01*
X217129Y2000D01*
X217276Y2145D01*
X217653Y2397D01*
X218102Y2698D01*
X218655Y3525D01*
X218749Y4000D01*
X213850D01*
X213945Y3525D01*
X214498Y2698D01*
X214948Y2397D01*
X215324Y2145D01*
X215471Y2000D01*
X214723Y-0D01*
X18400Y-0D01*
X18400Y17600D01*
X-0Y17600D01*
X-0Y188300D01*
X99400Y188300D01*
X105851Y181849D01*
X105466Y179749D01*
X104075Y179253D01*
X102700Y179823D01*
X101031Y179131D01*
X99369Y179131D01*
X97878Y179749D01*
X97700Y179823D01*
X96031Y179132D01*
X95417Y177649D01*
X70164D01*
X68312Y179500D01*
X68383Y179855D01*
X68076Y181397D01*
X67203Y182705D01*
X65895Y183579D01*
X64353Y183885D01*
X62810Y183579D01*
X61503Y182705D01*
X59295Y182655D01*
X57988Y183529D01*
X56945Y183736D01*
Y179805D01*
Y175874D01*
X57988Y176082D01*
X59295Y176955D01*
X61503Y177005D01*
X62810Y176132D01*
X64353Y175825D01*
X64708Y175896D01*
X67305Y173298D01*
X68133Y172745D01*
X69108Y172551D01*
X95151D01*
Y167100D01*
X95345Y166124D01*
X95898Y165298D01*
X98084Y163111D01*
X98911Y162558D01*
X99887Y162364D01*
X121305D01*
X121498Y162075D01*
X122325Y161523D01*
X122746Y161439D01*
X122939Y161310D01*
X124500Y161000D01*
X126061Y161310D01*
X127384Y162194D01*
X127608Y162529D01*
X131968D01*
Y161207D01*
X132285Y160442D01*
X133050Y160125D01*
X138912D01*
X139398Y159398D01*
X140225Y158845D01*
X140700Y158750D01*
Y161200D01*
X141200D01*
Y161700D01*
X143649D01*
X143555Y162176D01*
X143002Y163002D01*
X142175Y163555D01*
X141200Y163749D01*
X140432Y164379D01*
Y167113D01*
X140115Y167878D01*
X140115Y167922D01*
X140432Y168687D01*
Y171140D01*
X136200D01*
X131968D01*
Y168687D01*
X130243Y167627D01*
X127608D01*
X127522Y167755D01*
X127384Y168206D01*
Y170068D01*
X128268Y171391D01*
X128479Y172452D01*
X124500D01*
Y173452D01*
X128479D01*
X128268Y174513D01*
X127384Y175836D01*
X126061Y176720D01*
X126358Y178700D01*
X163800D01*
X173400Y188300D01*
X233700Y188300D01*
X240414Y181586D01*
X239944Y179227D01*
X239681Y179118D01*
X238020D01*
X237590Y179296D01*
X236350Y179810D01*
X235111Y179296D01*
X234681Y179118D01*
X233020D01*
X232590Y179296D01*
X231350Y179810D01*
X229681Y179118D01*
X229067Y177636D01*
X204779D01*
X202915Y179500D01*
X202985Y179855D01*
X202678Y181397D01*
X201805Y182705D01*
X200497Y183579D01*
X198955Y183885D01*
X197413Y183579D01*
X196105Y182705D01*
X193897Y182655D01*
X192590Y183528D01*
X191548Y183736D01*
Y179805D01*
Y175874D01*
X192590Y176082D01*
X193897Y176955D01*
X196105Y177005D01*
X197413Y176132D01*
X198955Y175825D01*
X199310Y175896D01*
X201921Y173284D01*
X202748Y172732D01*
X203724Y172538D01*
X228616D01*
Y166365D01*
X228810Y165389D01*
X229362Y164562D01*
X231549Y162375D01*
X232376Y161823D01*
X233351Y161629D01*
X254692D01*
X254916Y161294D01*
X256239Y160410D01*
X257800Y160100D01*
X258394Y160218D01*
X258503Y160145D01*
X259478Y159951D01*
X265668D01*
Y159547D01*
X265985Y158782D01*
X266750Y158465D01*
X273050D01*
X273815Y158782D01*
X274132Y159547D01*
Y165453D01*
X273815Y166218D01*
X273815Y166262D01*
X274132Y167028D01*
Y169521D01*
X274609Y169880D01*
X276132Y170407D01*
X276524Y170145D01*
X277000Y170051D01*
Y172500D01*
Y174950D01*
X276524Y174855D01*
X275698Y174302D01*
X273992Y173755D01*
X273233Y173940D01*
X273050Y174015D01*
X270400D01*
Y169980D01*
X269900D01*
Y169480D01*
X265668D01*
Y167028D01*
X264585Y165049D01*
X261705D01*
X261568Y165739D01*
X260684Y167062D01*
Y169168D01*
X261568Y170491D01*
X261779Y171552D01*
X257800D01*
X253821D01*
X254032Y170491D01*
X254916Y169168D01*
Y168634D01*
X253156Y166727D01*
X239509D01*
X239451Y166788D01*
X238623Y168727D01*
X238755Y168924D01*
X238828Y169295D01*
X240339Y170388D01*
X240850Y170567D01*
Y175087D01*
X241850D01*
Y170571D01*
X243020Y171055D01*
X244681Y171055D01*
X245850Y170571D01*
Y175087D01*
X246350D01*
Y175587D01*
X248711D01*
Y177449D01*
X249414Y178500D01*
X294300Y178500D01*
X304100Y188300D01*
X338500D01*
X349250Y177550D01*
D02*
G37*
G36*
X364311Y368189D02*
Y361500D01*
X323465D01*
X323500Y361535D01*
Y378000D01*
X354500D01*
X364311Y368189D01*
D02*
G37*
G36*
X55000Y366138D02*
X54862Y366000D01*
X14016D01*
X26016Y378000D01*
X55000D01*
Y366138D01*
D02*
G37*
%LPC*%
G36*
X369061Y171187D02*
X367200D01*
Y167171D01*
X368369Y167655D01*
X369061Y169324D01*
Y171187D01*
D02*
G37*
G36*
X366800Y47550D02*
X366324Y47455D01*
X365498Y46902D01*
X364945Y46075D01*
X364850Y45600D01*
X366800D01*
Y47550D01*
D02*
G37*
G36*
X63900Y50000D02*
X61950D01*
X62045Y49525D01*
X62598Y48698D01*
X63424Y48145D01*
X63900Y48050D01*
Y50000D01*
D02*
G37*
G36*
X367800Y47550D02*
Y45600D01*
X369749D01*
X369655Y46075D01*
X369102Y46902D01*
X368275Y47455D01*
X367800Y47550D01*
D02*
G37*
G36*
X89249Y50000D02*
X87300D01*
Y48050D01*
X87775Y48145D01*
X88602Y48698D01*
X89155Y49525D01*
X89249Y50000D01*
D02*
G37*
G36*
X86300D02*
X84351D01*
X84445Y49525D01*
X84998Y48698D01*
X85825Y48145D01*
X86300Y48050D01*
Y50000D01*
D02*
G37*
G36*
X66849D02*
X64900D01*
Y48050D01*
X65376Y48145D01*
X66202Y48698D01*
X66755Y49525D01*
X66849Y50000D01*
D02*
G37*
G36*
X24800Y43749D02*
Y41800D01*
X26750D01*
X26655Y42276D01*
X26102Y43102D01*
X25275Y43655D01*
X24800Y43749D01*
D02*
G37*
G36*
X23800D02*
X23325Y43655D01*
X22498Y43102D01*
X21945Y42276D01*
X21850Y41800D01*
X23800D01*
Y43749D01*
D02*
G37*
G36*
X389300Y43700D02*
X387351D01*
X387445Y43224D01*
X387998Y42398D01*
X388825Y41845D01*
X389300Y41750D01*
Y43700D01*
D02*
G37*
G36*
Y46650D02*
X388825Y46555D01*
X387998Y46002D01*
X387445Y45175D01*
X387351Y44700D01*
X389300D01*
Y46650D01*
D02*
G37*
G36*
X369749Y44600D02*
X367800D01*
Y42650D01*
X368275Y42745D01*
X369102Y43298D01*
X369655Y44124D01*
X369749Y44600D01*
D02*
G37*
G36*
X366800D02*
X364850D01*
X364945Y44124D01*
X365498Y43298D01*
X366324Y42745D01*
X366800Y42650D01*
Y44600D01*
D02*
G37*
G36*
X12600Y51300D02*
X10650D01*
X10745Y50824D01*
X11298Y49998D01*
X12125Y49445D01*
X12600Y49351D01*
Y51300D01*
D02*
G37*
G36*
X35000Y54250D02*
X34525Y54155D01*
X33698Y53602D01*
X33145Y52776D01*
X33051Y52300D01*
X35000D01*
Y54250D01*
D02*
G37*
G36*
X13600D02*
Y52300D01*
X15550D01*
X15455Y52776D01*
X14902Y53602D01*
X14075Y54155D01*
X13600Y54250D01*
D02*
G37*
G36*
X12600D02*
X12125Y54155D01*
X11298Y53602D01*
X10745Y52776D01*
X10650Y52300D01*
X12600D01*
Y54250D01*
D02*
G37*
G36*
X100549Y59600D02*
X98600D01*
Y57651D01*
X99076Y57745D01*
X99902Y58298D01*
X100455Y59124D01*
X100549Y59600D01*
D02*
G37*
G36*
X97600D02*
X95651D01*
X95745Y59124D01*
X96298Y58298D01*
X97124Y57745D01*
X97600Y57651D01*
Y59600D01*
D02*
G37*
G36*
X36000Y54250D02*
Y52300D01*
X37949D01*
X37855Y52776D01*
X37302Y53602D01*
X36476Y54155D01*
X36000Y54250D01*
D02*
G37*
G36*
X87300Y52950D02*
Y51000D01*
X89249D01*
X89155Y51476D01*
X88602Y52302D01*
X87775Y52855D01*
X87300Y52950D01*
D02*
G37*
G36*
X37949Y51300D02*
X36000D01*
Y49351D01*
X36476Y49445D01*
X37302Y49998D01*
X37855Y50824D01*
X37949Y51300D01*
D02*
G37*
G36*
X35000D02*
X33051D01*
X33145Y50824D01*
X33698Y49998D01*
X34525Y49445D01*
X35000Y49351D01*
Y51300D01*
D02*
G37*
G36*
X15550D02*
X13600D01*
Y49351D01*
X14075Y49445D01*
X14902Y49998D01*
X15455Y50824D01*
X15550Y51300D01*
D02*
G37*
G36*
X86300Y52950D02*
X85825Y52855D01*
X84998Y52302D01*
X84445Y51476D01*
X84351Y51000D01*
X86300D01*
Y52950D01*
D02*
G37*
G36*
X64900D02*
Y51000D01*
X66849D01*
X66755Y51476D01*
X66202Y52302D01*
X65376Y52855D01*
X64900Y52950D01*
D02*
G37*
G36*
X63900D02*
X63424Y52855D01*
X62598Y52302D01*
X62045Y51476D01*
X61950Y51000D01*
X63900D01*
Y52950D01*
D02*
G37*
G36*
X380949Y34100D02*
X379000D01*
Y32151D01*
X379475Y32245D01*
X380302Y32798D01*
X380855Y33625D01*
X380949Y34100D01*
D02*
G37*
G36*
X378000D02*
X376050D01*
X376145Y33625D01*
X376698Y32798D01*
X377524Y32245D01*
X378000Y32151D01*
Y34100D01*
D02*
G37*
G36*
X358549D02*
X356600D01*
Y32151D01*
X357076Y32245D01*
X357902Y32798D01*
X358455Y33625D01*
X358549Y34100D01*
D02*
G37*
G36*
X356600Y37049D02*
Y35100D01*
X358549D01*
X358455Y35576D01*
X357902Y36402D01*
X357076Y36955D01*
X356600Y37049D01*
D02*
G37*
G36*
X355600D02*
X355124Y36955D01*
X354298Y36402D01*
X353745Y35576D01*
X353650Y35100D01*
X355600D01*
Y37049D01*
D02*
G37*
G36*
Y34100D02*
X353650D01*
X353657Y34065D01*
X352543Y33004D01*
X352036Y32743D01*
X351912Y32826D01*
X351100Y32988D01*
Y27600D01*
X354028D01*
Y29659D01*
X353819Y30712D01*
X354569Y31593D01*
X355351Y32200D01*
X355600Y32151D01*
Y34100D01*
D02*
G37*
G36*
X36000Y33250D02*
Y31300D01*
X37949D01*
X37855Y31776D01*
X37302Y32602D01*
X36476Y33155D01*
X36000Y33250D01*
D02*
G37*
G36*
X87300Y31949D02*
Y30000D01*
X89249D01*
X89155Y30476D01*
X88602Y31302D01*
X87775Y31855D01*
X87300Y31949D01*
D02*
G37*
G36*
X86300D02*
X85825Y31855D01*
X84998Y31302D01*
X84445Y30476D01*
X84351Y30000D01*
X86300D01*
Y31949D01*
D02*
G37*
G36*
X64900D02*
Y30000D01*
X66849D01*
X66755Y30476D01*
X66202Y31302D01*
X65376Y31855D01*
X64900Y31949D01*
D02*
G37*
G36*
X35000Y33250D02*
X34525Y33155D01*
X33698Y32602D01*
X33145Y31776D01*
X33051Y31300D01*
X35000D01*
Y33250D01*
D02*
G37*
G36*
X13600D02*
Y31300D01*
X15550D01*
X15455Y31776D01*
X14902Y32602D01*
X14075Y33155D01*
X13600Y33250D01*
D02*
G37*
G36*
X12600D02*
X12125Y33155D01*
X11298Y32602D01*
X10745Y31776D01*
X10650Y31300D01*
X12600D01*
Y33250D01*
D02*
G37*
G36*
X378000Y37049D02*
X377524Y36955D01*
X376698Y36402D01*
X376145Y35576D01*
X376050Y35100D01*
X378000D01*
Y37049D01*
D02*
G37*
G36*
X75100Y42450D02*
X74625Y42355D01*
X73798Y41802D01*
X73245Y40975D01*
X73150Y40500D01*
X75100D01*
Y42450D01*
D02*
G37*
G36*
X98600Y41550D02*
Y39600D01*
X100549D01*
X100455Y40075D01*
X99902Y40902D01*
X99076Y41455D01*
X98600Y41550D01*
D02*
G37*
G36*
X97600D02*
X97124Y41455D01*
X96298Y40902D01*
X95745Y40075D01*
X95651Y39600D01*
X97600D01*
Y41550D01*
D02*
G37*
G36*
X47300Y42849D02*
Y40900D01*
X49250D01*
X49155Y41375D01*
X48602Y42202D01*
X47776Y42755D01*
X47300Y42849D01*
D02*
G37*
G36*
X46300D02*
X45825Y42755D01*
X44998Y42202D01*
X44445Y41375D01*
X44350Y40900D01*
X46300D01*
Y42849D01*
D02*
G37*
G36*
X76100Y42450D02*
Y40500D01*
X78049D01*
X77955Y40975D01*
X77402Y41802D01*
X76575Y42355D01*
X76100Y42450D01*
D02*
G37*
G36*
X26750Y40800D02*
X24800D01*
Y38851D01*
X25275Y38945D01*
X26102Y39498D01*
X26655Y40325D01*
X26750Y40800D01*
D02*
G37*
G36*
X78049Y39500D02*
X76100D01*
Y37551D01*
X76575Y37645D01*
X77402Y38198D01*
X77955Y39024D01*
X78049Y39500D01*
D02*
G37*
G36*
X75100D02*
X73150D01*
X73245Y39024D01*
X73798Y38198D01*
X74625Y37645D01*
X75100Y37551D01*
Y39500D01*
D02*
G37*
G36*
X379000Y37049D02*
Y35100D01*
X380949D01*
X380855Y35576D01*
X380302Y36402D01*
X379475Y36955D01*
X379000Y37049D01*
D02*
G37*
G36*
X23800Y40800D02*
X21850D01*
X21945Y40325D01*
X22498Y39498D01*
X23325Y38945D01*
X23800Y38851D01*
Y40800D01*
D02*
G37*
G36*
X49250Y39900D02*
X47300D01*
Y37951D01*
X47776Y38045D01*
X48602Y38598D01*
X49155Y39424D01*
X49250Y39900D01*
D02*
G37*
G36*
X46300D02*
X44350D01*
X44445Y39424D01*
X44998Y38598D01*
X45825Y38045D01*
X46300Y37951D01*
Y39900D01*
D02*
G37*
G36*
X75100Y60500D02*
X73150D01*
X73245Y60024D01*
X73798Y59198D01*
X74625Y58645D01*
X75100Y58551D01*
Y60500D01*
D02*
G37*
G36*
X200600Y93087D02*
X199288Y92826D01*
X198176Y92083D01*
X197433Y90971D01*
X197172Y89659D01*
Y84541D01*
X197433Y83229D01*
X198176Y82117D01*
X199288Y81374D01*
X200600Y81113D01*
X201912Y81374D01*
X203024Y82117D01*
X203767Y83229D01*
X204028Y84541D01*
Y89659D01*
X203767Y90971D01*
X203024Y92083D01*
X201912Y92826D01*
X200600Y93087D01*
D02*
G37*
G36*
X190600D02*
X189288Y92826D01*
X188176Y92083D01*
X187433Y90971D01*
X187172Y89659D01*
Y84541D01*
X187433Y83229D01*
X188176Y82117D01*
X189288Y81374D01*
X190600Y81113D01*
X191912Y81374D01*
X193024Y82117D01*
X193767Y83229D01*
X194028Y84541D01*
Y89659D01*
X193767Y90971D01*
X193024Y92083D01*
X191912Y92826D01*
X190600Y93087D01*
D02*
G37*
G36*
X180600D02*
X179288Y92826D01*
X178176Y92083D01*
X177433Y90971D01*
X177172Y89659D01*
Y84541D01*
X177433Y83229D01*
X178176Y82117D01*
X179288Y81374D01*
X180600Y81113D01*
X181912Y81374D01*
X183024Y82117D01*
X183767Y83229D01*
X184028Y84541D01*
Y89659D01*
X183767Y90971D01*
X183024Y92083D01*
X181912Y92826D01*
X180600Y93087D01*
D02*
G37*
G36*
X260600D02*
X259288Y92826D01*
X258176Y92083D01*
X257433Y90971D01*
X257172Y89659D01*
Y84541D01*
X257433Y83229D01*
X258176Y82117D01*
X259288Y81374D01*
X260600Y81113D01*
X261912Y81374D01*
X263024Y82117D01*
X263767Y83229D01*
X264028Y84541D01*
Y89659D01*
X263767Y90971D01*
X263024Y92083D01*
X261912Y92826D01*
X260600Y93087D01*
D02*
G37*
G36*
X250600D02*
X249288Y92826D01*
X248176Y92083D01*
X247433Y90971D01*
X247172Y89659D01*
Y84541D01*
X247433Y83229D01*
X248176Y82117D01*
X249288Y81374D01*
X250600Y81113D01*
X251912Y81374D01*
X253024Y82117D01*
X253767Y83229D01*
X254028Y84541D01*
Y89659D01*
X253767Y90971D01*
X253024Y92083D01*
X251912Y92826D01*
X250600Y93087D01*
D02*
G37*
G36*
X210600D02*
X209288Y92826D01*
X208176Y92083D01*
X207433Y90971D01*
X207172Y89659D01*
Y84541D01*
X207433Y83229D01*
X208176Y82117D01*
X209288Y81374D01*
X210600Y81113D01*
X211912Y81374D01*
X213024Y82117D01*
X213767Y83229D01*
X214028Y84541D01*
Y89659D01*
X213767Y90971D01*
X213024Y92083D01*
X211912Y92826D01*
X210600Y93087D01*
D02*
G37*
G36*
X160600D02*
X159288Y92826D01*
X158176Y92083D01*
X157433Y90971D01*
X157172Y89659D01*
Y84541D01*
X157433Y83229D01*
X158176Y82117D01*
X159288Y81374D01*
X160600Y81113D01*
X161912Y81374D01*
X163024Y82117D01*
X163767Y83229D01*
X164028Y84541D01*
Y89659D01*
X163767Y90971D01*
X163024Y92083D01*
X161912Y92826D01*
X160600Y93087D01*
D02*
G37*
G36*
X64000Y83000D02*
X62050D01*
X62145Y82525D01*
X62698Y81698D01*
X63525Y81145D01*
X64000Y81050D01*
Y83000D01*
D02*
G37*
G36*
X36000Y75249D02*
Y73300D01*
X37949D01*
X37855Y73776D01*
X37302Y74602D01*
X36476Y75155D01*
X36000Y75249D01*
D02*
G37*
G36*
X35000D02*
X34525Y75155D01*
X33698Y74602D01*
X33145Y73776D01*
X33051Y73300D01*
X35000D01*
Y75249D01*
D02*
G37*
G36*
X89350Y83000D02*
X87400D01*
Y81050D01*
X87875Y81145D01*
X88702Y81698D01*
X89255Y82525D01*
X89350Y83000D01*
D02*
G37*
G36*
X86400D02*
X84451D01*
X84545Y82525D01*
X85098Y81698D01*
X85925Y81145D01*
X86400Y81050D01*
Y83000D01*
D02*
G37*
G36*
X66949D02*
X65000D01*
Y81050D01*
X65475Y81145D01*
X66302Y81698D01*
X66855Y82525D01*
X66949Y83000D01*
D02*
G37*
G36*
X170100Y86600D02*
X167172D01*
Y84541D01*
X167433Y83229D01*
X168176Y82117D01*
X169288Y81374D01*
X170100Y81212D01*
Y86600D01*
D02*
G37*
G36*
X350600Y93087D02*
X349288Y92826D01*
X348176Y92083D01*
X347433Y90971D01*
X347172Y89659D01*
Y84541D01*
X347433Y83229D01*
X348176Y82117D01*
X349288Y81374D01*
X350600Y81113D01*
X351912Y81374D01*
X353024Y82117D01*
X353767Y83229D01*
X354028Y84541D01*
Y89659D01*
X353767Y90971D01*
X353024Y92083D01*
X351912Y92826D01*
X350600Y93087D01*
D02*
G37*
G36*
X340600D02*
X339288Y92826D01*
X338176Y92083D01*
X337433Y90971D01*
X337172Y89659D01*
Y84541D01*
X337433Y83229D01*
X338176Y82117D01*
X339288Y81374D01*
X340600Y81113D01*
X341912Y81374D01*
X343024Y82117D01*
X343767Y83229D01*
X344028Y84541D01*
Y89659D01*
X343767Y90971D01*
X343024Y92083D01*
X341912Y92826D01*
X340600Y93087D01*
D02*
G37*
G36*
X49549Y84500D02*
X47600D01*
Y82551D01*
X48076Y82645D01*
X48902Y83198D01*
X49455Y84025D01*
X49549Y84500D01*
D02*
G37*
G36*
X46600D02*
X44651D01*
X44745Y84025D01*
X45298Y83198D01*
X46125Y82645D01*
X46600Y82551D01*
Y84500D01*
D02*
G37*
G36*
X174028Y86600D02*
X171100D01*
Y81212D01*
X171912Y81374D01*
X173024Y82117D01*
X173767Y83229D01*
X174028Y84541D01*
Y86600D01*
D02*
G37*
G36*
X330600Y93087D02*
X329288Y92826D01*
X328176Y92083D01*
X327433Y90971D01*
X327172Y89659D01*
Y84541D01*
X327433Y83229D01*
X328176Y82117D01*
X329288Y81374D01*
X330600Y81113D01*
X331912Y81374D01*
X333024Y82117D01*
X333767Y83229D01*
X334028Y84541D01*
Y89659D01*
X333767Y90971D01*
X333024Y92083D01*
X331912Y92826D01*
X330600Y93087D01*
D02*
G37*
G36*
X290600D02*
X289288Y92826D01*
X288176Y92083D01*
X287433Y90971D01*
X287172Y89659D01*
Y84541D01*
X287433Y83229D01*
X288176Y82117D01*
X289288Y81374D01*
X290600Y81113D01*
X291912Y81374D01*
X293024Y82117D01*
X293767Y83229D01*
X294028Y84541D01*
Y89659D01*
X293767Y90971D01*
X293024Y92083D01*
X291912Y92826D01*
X290600Y93087D01*
D02*
G37*
G36*
X280600D02*
X279288Y92826D01*
X278176Y92083D01*
X277433Y90971D01*
X277172Y89659D01*
Y84541D01*
X277433Y83229D01*
X278176Y82117D01*
X279288Y81374D01*
X280600Y81113D01*
X281912Y81374D01*
X283024Y82117D01*
X283767Y83229D01*
X284028Y84541D01*
Y89659D01*
X283767Y90971D01*
X283024Y92083D01*
X281912Y92826D01*
X280600Y93087D01*
D02*
G37*
G36*
X270600D02*
X269288Y92826D01*
X268176Y92083D01*
X267433Y90971D01*
X267172Y89659D01*
Y84541D01*
X267433Y83229D01*
X268176Y82117D01*
X269288Y81374D01*
X270600Y81113D01*
X271912Y81374D01*
X273024Y82117D01*
X273767Y83229D01*
X274028Y84541D01*
Y89659D01*
X273767Y90971D01*
X273024Y92083D01*
X271912Y92826D01*
X270600Y93087D01*
D02*
G37*
G36*
X320600D02*
X319288Y92826D01*
X318176Y92083D01*
X317433Y90971D01*
X317172Y89659D01*
Y84541D01*
X317433Y83229D01*
X318176Y82117D01*
X319288Y81374D01*
X320600Y81113D01*
X321912Y81374D01*
X323024Y82117D01*
X323767Y83229D01*
X324028Y84541D01*
Y89659D01*
X323767Y90971D01*
X323024Y92083D01*
X321912Y92826D01*
X320600Y93087D01*
D02*
G37*
G36*
X310600D02*
X309288Y92826D01*
X308176Y92083D01*
X307433Y90971D01*
X307172Y89659D01*
Y84541D01*
X307433Y83229D01*
X308176Y82117D01*
X309288Y81374D01*
X310600Y81113D01*
X311912Y81374D01*
X313024Y82117D01*
X313767Y83229D01*
X314028Y84541D01*
Y89659D01*
X313767Y90971D01*
X313024Y92083D01*
X311912Y92826D01*
X310600Y93087D01*
D02*
G37*
G36*
X300600D02*
X299288Y92826D01*
X298176Y92083D01*
X297433Y90971D01*
X297172Y89659D01*
Y84541D01*
X297433Y83229D01*
X298176Y82117D01*
X299288Y81374D01*
X300600Y81113D01*
X301912Y81374D01*
X303024Y82117D01*
X303767Y83229D01*
X304028Y84541D01*
Y89659D01*
X303767Y90971D01*
X303024Y92083D01*
X301912Y92826D01*
X300600Y93087D01*
D02*
G37*
G36*
X13600Y75249D02*
Y73300D01*
X15550D01*
X15455Y73776D01*
X14902Y74602D01*
X14075Y75155D01*
X13600Y75249D01*
D02*
G37*
G36*
X46300Y63850D02*
X45825Y63755D01*
X44998Y63202D01*
X44445Y62375D01*
X44350Y61900D01*
X46300D01*
Y63850D01*
D02*
G37*
G36*
X76100Y63450D02*
Y61500D01*
X78049D01*
X77955Y61976D01*
X77402Y62802D01*
X76575Y63355D01*
X76100Y63450D01*
D02*
G37*
G36*
X75100D02*
X74625Y63355D01*
X73798Y62802D01*
X73245Y61976D01*
X73150Y61500D01*
X75100D01*
Y63450D01*
D02*
G37*
G36*
X24800Y64749D02*
Y62800D01*
X26750D01*
X26655Y63275D01*
X26102Y64102D01*
X25275Y64655D01*
X24800Y64749D01*
D02*
G37*
G36*
X23800D02*
X23325Y64655D01*
X22498Y64102D01*
X21945Y63275D01*
X21850Y62800D01*
X23800D01*
Y64749D01*
D02*
G37*
G36*
X47300Y63850D02*
Y61900D01*
X49250D01*
X49155Y62375D01*
X48602Y63202D01*
X47776Y63755D01*
X47300Y63850D01*
D02*
G37*
G36*
X98600Y62550D02*
Y60600D01*
X100549D01*
X100455Y61076D01*
X99902Y61902D01*
X99076Y62455D01*
X98600Y62550D01*
D02*
G37*
G36*
X49250Y60900D02*
X47300D01*
Y58951D01*
X47776Y59045D01*
X48602Y59598D01*
X49155Y60425D01*
X49250Y60900D01*
D02*
G37*
G36*
X46300D02*
X44350D01*
X44445Y60425D01*
X44998Y59598D01*
X45825Y59045D01*
X46300Y58951D01*
Y60900D01*
D02*
G37*
G36*
X78049Y60500D02*
X76100D01*
Y58551D01*
X76575Y58645D01*
X77402Y59198D01*
X77955Y60024D01*
X78049Y60500D01*
D02*
G37*
G36*
X97600Y62550D02*
X97124Y62455D01*
X96298Y61902D01*
X95745Y61076D01*
X95651Y60600D01*
X97600D01*
Y62550D01*
D02*
G37*
G36*
X26750Y61800D02*
X24800D01*
Y59851D01*
X25275Y59945D01*
X26102Y60498D01*
X26655Y61325D01*
X26750Y61800D01*
D02*
G37*
G36*
X23800D02*
X21850D01*
X21945Y61325D01*
X22498Y60498D01*
X23325Y59945D01*
X23800Y59851D01*
Y61800D01*
D02*
G37*
G36*
X64900Y73949D02*
Y72000D01*
X66849D01*
X66755Y72475D01*
X66202Y73302D01*
X65376Y73855D01*
X64900Y73949D01*
D02*
G37*
G36*
X63900D02*
X63424Y73855D01*
X62598Y73302D01*
X62045Y72475D01*
X61950Y72000D01*
X63900D01*
Y73949D01*
D02*
G37*
G36*
X37949Y72300D02*
X36000D01*
Y70350D01*
X36476Y70445D01*
X37302Y70998D01*
X37855Y71825D01*
X37949Y72300D01*
D02*
G37*
G36*
X12600Y75249D02*
X12125Y75155D01*
X11298Y74602D01*
X10745Y73776D01*
X10650Y73300D01*
X12600D01*
Y75249D01*
D02*
G37*
G36*
X87300Y73949D02*
Y72000D01*
X89249D01*
X89155Y72475D01*
X88602Y73302D01*
X87775Y73855D01*
X87300Y73949D01*
D02*
G37*
G36*
X86300D02*
X85825Y73855D01*
X84998Y73302D01*
X84445Y72475D01*
X84351Y72000D01*
X86300D01*
Y73949D01*
D02*
G37*
G36*
X35000Y72300D02*
X33051D01*
X33145Y71825D01*
X33698Y70998D01*
X34525Y70445D01*
X35000Y70350D01*
Y72300D01*
D02*
G37*
G36*
X86300Y71000D02*
X84351D01*
X84445Y70525D01*
X84998Y69698D01*
X85825Y69145D01*
X86300Y69051D01*
Y71000D01*
D02*
G37*
G36*
X66849D02*
X64900D01*
Y69051D01*
X65376Y69145D01*
X66202Y69698D01*
X66755Y70525D01*
X66849Y71000D01*
D02*
G37*
G36*
X63900D02*
X61950D01*
X62045Y70525D01*
X62598Y69698D01*
X63424Y69145D01*
X63900Y69051D01*
Y71000D01*
D02*
G37*
G36*
X15550Y72300D02*
X13600D01*
Y70350D01*
X14075Y70445D01*
X14902Y70998D01*
X15455Y71825D01*
X15550Y72300D01*
D02*
G37*
G36*
X12600D02*
X10650D01*
X10745Y71825D01*
X11298Y70998D01*
X12125Y70445D01*
X12600Y70350D01*
Y72300D01*
D02*
G37*
G36*
X89249Y71000D02*
X87300D01*
Y69051D01*
X87775Y69145D01*
X88602Y69698D01*
X89155Y70525D01*
X89249Y71000D01*
D02*
G37*
G36*
X138500Y15600D02*
X136550D01*
X136645Y15124D01*
X137198Y14298D01*
X138024Y13745D01*
X138500Y13650D01*
Y15600D01*
D02*
G37*
G36*
X207450Y15400D02*
X205500D01*
Y13451D01*
X205976Y13545D01*
X206802Y14098D01*
X207355Y14924D01*
X207450Y15400D01*
D02*
G37*
G36*
X204500D02*
X202551D01*
X202645Y14924D01*
X203198Y14098D01*
X204025Y13545D01*
X204500Y13451D01*
Y15400D01*
D02*
G37*
G36*
X163849Y15600D02*
X161900D01*
Y13650D01*
X162375Y13745D01*
X163202Y14298D01*
X163755Y15124D01*
X163849Y15600D01*
D02*
G37*
G36*
X160900D02*
X158950D01*
X159045Y15124D01*
X159598Y14298D01*
X160424Y13745D01*
X160900Y13650D01*
Y15600D01*
D02*
G37*
G36*
X141449D02*
X139500D01*
Y13650D01*
X139976Y13745D01*
X140802Y14298D01*
X141355Y15124D01*
X141449Y15600D01*
D02*
G37*
G36*
X185049Y15400D02*
X183100D01*
Y13451D01*
X183575Y13545D01*
X184402Y14098D01*
X184955Y14924D01*
X185049Y15400D01*
D02*
G37*
G36*
X231150Y14700D02*
X229200D01*
Y12751D01*
X229676Y12845D01*
X230502Y13398D01*
X231055Y14224D01*
X231150Y14700D01*
D02*
G37*
G36*
X228200D02*
X226251D01*
X226345Y14224D01*
X226898Y13398D01*
X227725Y12845D01*
X228200Y12751D01*
Y14700D01*
D02*
G37*
G36*
X297849Y13900D02*
X295900D01*
Y11951D01*
X296375Y12045D01*
X297202Y12598D01*
X297755Y13424D01*
X297849Y13900D01*
D02*
G37*
G36*
X182100Y15400D02*
X180150D01*
X180245Y14924D01*
X180798Y14098D01*
X181624Y13545D01*
X182100Y13451D01*
Y15400D01*
D02*
G37*
G36*
X253550Y14700D02*
X251600D01*
Y12751D01*
X252076Y12845D01*
X252902Y13398D01*
X253455Y14224D01*
X253550Y14700D01*
D02*
G37*
G36*
X250600D02*
X248651D01*
X248745Y14224D01*
X249298Y13398D01*
X250125Y12845D01*
X250600Y12751D01*
Y14700D01*
D02*
G37*
G36*
X251600Y17650D02*
Y15700D01*
X253550D01*
X253455Y16175D01*
X252902Y17002D01*
X252076Y17555D01*
X251600Y17650D01*
D02*
G37*
G36*
X250600D02*
X250125Y17555D01*
X249298Y17002D01*
X248745Y16175D01*
X248651Y15700D01*
X250600D01*
Y17650D01*
D02*
G37*
G36*
X229200D02*
Y15700D01*
X231150D01*
X231055Y16175D01*
X230502Y17002D01*
X229676Y17555D01*
X229200Y17650D01*
D02*
G37*
G36*
X204500Y18350D02*
X204025Y18255D01*
X203198Y17702D01*
X202645Y16875D01*
X202551Y16400D01*
X204500D01*
Y18350D01*
D02*
G37*
G36*
X183100D02*
Y16400D01*
X185049D01*
X184955Y16875D01*
X184402Y17702D01*
X183575Y18255D01*
X183100Y18350D01*
D02*
G37*
G36*
X182100D02*
X181624Y18255D01*
X180798Y17702D01*
X180245Y16875D01*
X180150Y16400D01*
X182100D01*
Y18350D01*
D02*
G37*
G36*
X228200Y17650D02*
X227725Y17555D01*
X226898Y17002D01*
X226345Y16175D01*
X226251Y15700D01*
X228200D01*
Y17650D01*
D02*
G37*
G36*
X294900Y16849D02*
X294425Y16755D01*
X293598Y16202D01*
X293045Y15375D01*
X292951Y14900D01*
X294900D01*
Y16849D01*
D02*
G37*
G36*
X273500D02*
Y14900D01*
X275449D01*
X275355Y15375D01*
X274802Y16202D01*
X273975Y16755D01*
X273500Y16849D01*
D02*
G37*
G36*
X272500D02*
X272024Y16755D01*
X271198Y16202D01*
X270645Y15375D01*
X270550Y14900D01*
X272500D01*
Y16849D01*
D02*
G37*
G36*
X100549Y17600D02*
X98600D01*
Y15651D01*
X99076Y15745D01*
X99902Y16298D01*
X100455Y17124D01*
X100549Y17600D01*
D02*
G37*
G36*
X97600D02*
X95651D01*
X95745Y17124D01*
X96298Y16298D01*
X97124Y15745D01*
X97600Y15651D01*
Y17600D01*
D02*
G37*
G36*
X295900Y16849D02*
Y14900D01*
X297849D01*
X297755Y15375D01*
X297202Y16202D01*
X296375Y16755D01*
X295900Y16849D01*
D02*
G37*
G36*
X294900Y13900D02*
X292951D01*
X293045Y13424D01*
X293598Y12598D01*
X294425Y12045D01*
X294900Y11951D01*
Y13900D01*
D02*
G37*
G36*
X307200Y5449D02*
Y3500D01*
X309150D01*
X309055Y3976D01*
X308502Y4802D01*
X307676Y5355D01*
X307200Y5449D01*
D02*
G37*
G36*
X306200D02*
X305725Y5355D01*
X304898Y4802D01*
X304345Y3976D01*
X304251Y3500D01*
X306200D01*
Y5449D01*
D02*
G37*
G36*
X152649Y5100D02*
X150700D01*
Y3150D01*
X151175Y3245D01*
X152002Y3798D01*
X152555Y4625D01*
X152649Y5100D01*
D02*
G37*
G36*
X283700Y6350D02*
X283225Y6255D01*
X282398Y5702D01*
X281845Y4876D01*
X281750Y4400D01*
X283700D01*
Y6350D01*
D02*
G37*
G36*
X262900Y6250D02*
Y4300D01*
X264849D01*
X264755Y4775D01*
X264202Y5602D01*
X263375Y6155D01*
X262900Y6250D01*
D02*
G37*
G36*
X261900D02*
X261424Y6155D01*
X260598Y5602D01*
X260045Y4775D01*
X259950Y4300D01*
X261900D01*
Y6250D01*
D02*
G37*
G36*
X149700Y5100D02*
X147750D01*
X147845Y4625D01*
X148398Y3798D01*
X149224Y3245D01*
X149700Y3150D01*
Y5100D01*
D02*
G37*
G36*
X239400Y4200D02*
X237451D01*
X237545Y3725D01*
X238098Y2898D01*
X238925Y2345D01*
X239400Y2251D01*
Y4200D01*
D02*
G37*
G36*
X175150D02*
X173200D01*
Y2251D01*
X173676Y2345D01*
X174502Y2898D01*
X175055Y3725D01*
X175150Y4200D01*
D02*
G37*
G36*
X172200D02*
X170250D01*
X170345Y3725D01*
X170898Y2898D01*
X171724Y2345D01*
X172200Y2251D01*
Y4200D01*
D02*
G37*
G36*
X196249Y4900D02*
X194300D01*
Y2950D01*
X194775Y3045D01*
X195602Y3598D01*
X196155Y4425D01*
X196249Y4900D01*
D02*
G37*
G36*
X193300D02*
X191350D01*
X191445Y4425D01*
X191998Y3598D01*
X192824Y3045D01*
X193300Y2950D01*
Y4900D01*
D02*
G37*
G36*
X242350Y4200D02*
X240400D01*
Y2251D01*
X240876Y2345D01*
X241702Y2898D01*
X242255Y3725D01*
X242350Y4200D01*
D02*
G37*
G36*
X149700Y8049D02*
X149224Y7955D01*
X148398Y7402D01*
X147845Y6575D01*
X147750Y6100D01*
X149700D01*
Y8049D01*
D02*
G37*
G36*
X194300Y7850D02*
Y5900D01*
X196249D01*
X196155Y6375D01*
X195602Y7202D01*
X194775Y7755D01*
X194300Y7850D01*
D02*
G37*
G36*
X193300D02*
X192824Y7755D01*
X191998Y7202D01*
X191445Y6375D01*
X191350Y5900D01*
X193300D01*
Y7850D01*
D02*
G37*
G36*
X275449Y13900D02*
X273500D01*
Y11951D01*
X273975Y12045D01*
X274802Y12598D01*
X275355Y13424D01*
X275449Y13900D01*
D02*
G37*
G36*
X272500D02*
X270550D01*
X270645Y13424D01*
X271198Y12598D01*
X272024Y12045D01*
X272500Y11951D01*
Y13900D01*
D02*
G37*
G36*
X150700Y8049D02*
Y6100D01*
X152649D01*
X152555Y6575D01*
X152002Y7402D01*
X151175Y7955D01*
X150700Y8049D01*
D02*
G37*
G36*
X240400Y7149D02*
Y5200D01*
X242350D01*
X242255Y5675D01*
X241702Y6502D01*
X240876Y7055D01*
X240400Y7149D01*
D02*
G37*
G36*
X216800Y6949D02*
Y5000D01*
X218749D01*
X218655Y5475D01*
X218102Y6302D01*
X217276Y6855D01*
X216800Y6949D01*
D02*
G37*
G36*
X215800D02*
X215324Y6855D01*
X214498Y6302D01*
X213945Y5475D01*
X213850Y5000D01*
X215800D01*
Y6949D01*
D02*
G37*
G36*
X284700Y6350D02*
Y4400D01*
X286649D01*
X286555Y4876D01*
X286002Y5702D01*
X285175Y6255D01*
X284700Y6350D01*
D02*
G37*
G36*
X239400Y7149D02*
X238925Y7055D01*
X238098Y6502D01*
X237545Y5675D01*
X237451Y5200D01*
X239400D01*
Y7149D01*
D02*
G37*
G36*
X173200D02*
Y5200D01*
X175150D01*
X175055Y5675D01*
X174502Y6502D01*
X173676Y7055D01*
X173200Y7149D01*
D02*
G37*
G36*
X172200D02*
X171724Y7055D01*
X170898Y6502D01*
X170345Y5675D01*
X170250Y5200D01*
X172200D01*
Y7149D01*
D02*
G37*
G36*
X205500Y18350D02*
Y16400D01*
X207450D01*
X207355Y16875D01*
X206802Y17702D01*
X205976Y18255D01*
X205500Y18350D01*
D02*
G37*
G36*
X369749Y23600D02*
X367800D01*
Y21651D01*
X368275Y21745D01*
X369102Y22298D01*
X369655Y23124D01*
X369749Y23600D01*
D02*
G37*
G36*
X366800D02*
X364850D01*
X364945Y23124D01*
X365498Y22298D01*
X366324Y21745D01*
X366800Y21651D01*
Y23600D01*
D02*
G37*
G36*
X123848Y35288D02*
X112037D01*
X111272Y34971D01*
X110955Y34205D01*
Y22395D01*
X111272Y21629D01*
X112037Y21312D01*
X123848D01*
X124613Y21629D01*
X124930Y22395D01*
Y34205D01*
X124613Y34971D01*
X123848Y35288D01*
D02*
G37*
G36*
X367800Y26550D02*
Y24600D01*
X369749D01*
X369655Y25076D01*
X369102Y25902D01*
X368275Y26455D01*
X367800Y26550D01*
D02*
G37*
G36*
X366800D02*
X366324Y26455D01*
X365498Y25902D01*
X364945Y25076D01*
X364850Y24600D01*
X366800D01*
Y26550D01*
D02*
G37*
G36*
X389300Y25649D02*
X388825Y25555D01*
X387998Y25002D01*
X387445Y24175D01*
X387351Y23700D01*
X389300D01*
Y25649D01*
D02*
G37*
G36*
X354028Y26600D02*
X351100D01*
Y21212D01*
X351912Y21374D01*
X353024Y22117D01*
X353767Y23229D01*
X354028Y24541D01*
Y26600D01*
D02*
G37*
G36*
X330600Y33087D02*
X329288Y32826D01*
X328176Y32083D01*
X327433Y30971D01*
X327172Y29659D01*
Y24541D01*
X327433Y23229D01*
X328176Y22117D01*
X329288Y21374D01*
X330600Y21113D01*
X331912Y21374D01*
X333024Y22117D01*
X333767Y23229D01*
X334028Y24541D01*
Y29659D01*
X333767Y30971D01*
X333024Y32083D01*
X331912Y32826D01*
X330600Y33087D01*
D02*
G37*
G36*
X320600D02*
X319288Y32826D01*
X318176Y32083D01*
X317433Y30971D01*
X317172Y29659D01*
Y24541D01*
X317433Y23229D01*
X318176Y22117D01*
X319288Y21374D01*
X320600Y21113D01*
X321912Y21374D01*
X323024Y22117D01*
X323767Y23229D01*
X324028Y24541D01*
Y29659D01*
X323767Y30971D01*
X323024Y32083D01*
X321912Y32826D01*
X320600Y33087D01*
D02*
G37*
G36*
X310600D02*
X309288Y32826D01*
X308176Y32083D01*
X307433Y30971D01*
X307172Y29659D01*
Y24541D01*
X307433Y23229D01*
X308176Y22117D01*
X309288Y21374D01*
X310600Y21113D01*
X311912Y21374D01*
X313024Y22117D01*
X313767Y23229D01*
X314028Y24541D01*
Y29659D01*
X313767Y30971D01*
X313024Y32083D01*
X311912Y32826D01*
X310600Y33087D01*
D02*
G37*
G36*
X344028Y26600D02*
X341100D01*
Y21212D01*
X341912Y21374D01*
X343024Y22117D01*
X343767Y23229D01*
X344028Y24541D01*
Y26600D01*
D02*
G37*
G36*
X350100D02*
X347172D01*
Y24541D01*
X347433Y23229D01*
X348176Y22117D01*
X349288Y21374D01*
X350100Y21212D01*
Y26600D01*
D02*
G37*
G36*
X340100D02*
X337172D01*
Y24541D01*
X337433Y23229D01*
X338176Y22117D01*
X339288Y21374D01*
X340100Y21212D01*
Y26600D01*
D02*
G37*
G36*
X35000Y30300D02*
X33051D01*
X33145Y29825D01*
X33698Y28998D01*
X34525Y28445D01*
X35000Y28350D01*
Y30300D01*
D02*
G37*
G36*
X15550D02*
X13600D01*
Y28350D01*
X14075Y28445D01*
X14902Y28998D01*
X15455Y29825D01*
X15550Y30300D01*
D02*
G37*
G36*
X12600D02*
X10650D01*
X10745Y29825D01*
X11298Y28998D01*
X12125Y28445D01*
X12600Y28350D01*
Y30300D01*
D02*
G37*
G36*
X63900Y31949D02*
X63424Y31855D01*
X62598Y31302D01*
X62045Y30476D01*
X61950Y30000D01*
X63900D01*
Y31949D01*
D02*
G37*
G36*
X100549Y38600D02*
X95651D01*
X95745Y38124D01*
X96298Y37298D01*
X96652Y37061D01*
X96496Y35121D01*
X96441Y34980D01*
X95563Y34805D01*
X93279Y33279D01*
X91753Y30994D01*
X91316Y28800D01*
X98257D01*
X105199D01*
X104762Y30994D01*
X103236Y33279D01*
X100952Y34805D01*
X99872Y35020D01*
X99620Y37109D01*
X99902Y37298D01*
X100455Y38124D01*
X100549Y38600D01*
D02*
G37*
G36*
X37949Y30300D02*
X36000D01*
Y28350D01*
X36476Y28445D01*
X37302Y28998D01*
X37855Y29825D01*
X37949Y30300D01*
D02*
G37*
G36*
X341100Y32988D02*
Y27600D01*
X344028D01*
Y29659D01*
X343767Y30971D01*
X343024Y32083D01*
X341912Y32826D01*
X341100Y32988D01*
D02*
G37*
G36*
X86300Y29000D02*
X84351D01*
X84445Y28525D01*
X84998Y27698D01*
X85825Y27145D01*
X86300Y27051D01*
Y29000D01*
D02*
G37*
G36*
X66849D02*
X64900D01*
Y27051D01*
X65376Y27145D01*
X66202Y27698D01*
X66755Y28525D01*
X66849Y29000D01*
D02*
G37*
G36*
X63900D02*
X61950D01*
X62045Y28525D01*
X62598Y27698D01*
X63424Y27145D01*
X63900Y27051D01*
Y29000D01*
D02*
G37*
G36*
X350100Y32988D02*
X349288Y32826D01*
X348176Y32083D01*
X347433Y30971D01*
X347172Y29659D01*
Y27600D01*
X350100D01*
Y32988D01*
D02*
G37*
G36*
X340100D02*
X339288Y32826D01*
X338176Y32083D01*
X337433Y30971D01*
X337172Y29659D01*
Y27600D01*
X340100D01*
Y32988D01*
D02*
G37*
G36*
X89249Y29000D02*
X87300D01*
Y27051D01*
X87775Y27145D01*
X88602Y27698D01*
X89155Y28525D01*
X89249Y29000D01*
D02*
G37*
G36*
X300600Y33087D02*
X299288Y32826D01*
X298176Y32083D01*
X297433Y30971D01*
X297172Y29659D01*
Y24541D01*
X297433Y23229D01*
X298176Y22117D01*
X299288Y21374D01*
X300600Y21113D01*
X301912Y21374D01*
X303024Y22117D01*
X303767Y23229D01*
X304028Y24541D01*
Y29659D01*
X303767Y30971D01*
X303024Y32083D01*
X301912Y32826D01*
X300600Y33087D01*
D02*
G37*
G36*
X26750Y19800D02*
X24800D01*
Y17851D01*
X25275Y17945D01*
X26102Y18498D01*
X26655Y19324D01*
X26750Y19800D01*
D02*
G37*
G36*
X23800D02*
X21850D01*
X21945Y19324D01*
X22498Y18498D01*
X23325Y17945D01*
X23800Y17851D01*
Y19800D01*
D02*
G37*
G36*
X49250Y18900D02*
X47300D01*
Y16951D01*
X47776Y17045D01*
X48602Y17598D01*
X49155Y18425D01*
X49250Y18900D01*
D02*
G37*
G36*
X76100Y21450D02*
Y19500D01*
X78049D01*
X77955Y19975D01*
X77402Y20802D01*
X76575Y21355D01*
X76100Y21450D01*
D02*
G37*
G36*
X75100D02*
X74625Y21355D01*
X73798Y20802D01*
X73245Y19975D01*
X73150Y19500D01*
X75100D01*
Y21450D01*
D02*
G37*
G36*
X105199Y27800D02*
X98257D01*
X91316D01*
X91753Y25606D01*
X93279Y23321D01*
X95563Y21795D01*
X95894Y20942D01*
X96125Y19644D01*
X95745Y19075D01*
X95651Y18600D01*
X100549D01*
X100455Y19075D01*
X100112Y19589D01*
X100378Y20959D01*
X100734Y21752D01*
X100952Y21795D01*
X103236Y23321D01*
X104762Y25606D01*
X105199Y27800D01*
D02*
G37*
G36*
X46300Y18900D02*
X44350D01*
X44445Y18425D01*
X44998Y17598D01*
X45825Y17045D01*
X46300Y16951D01*
Y18900D01*
D02*
G37*
G36*
X138500Y18550D02*
X138024Y18455D01*
X137198Y17902D01*
X136645Y17075D01*
X136550Y16600D01*
X138500D01*
Y18550D01*
D02*
G37*
G36*
X78049Y18500D02*
X76100D01*
Y16551D01*
X76575Y16645D01*
X77402Y17198D01*
X77955Y18024D01*
X78049Y18500D01*
D02*
G37*
G36*
X75100D02*
X73150D01*
X73245Y18024D01*
X73798Y17198D01*
X74625Y16645D01*
X75100Y16551D01*
Y18500D01*
D02*
G37*
G36*
X161900Y18550D02*
Y16600D01*
X163849D01*
X163755Y17075D01*
X163202Y17902D01*
X162375Y18455D01*
X161900Y18550D01*
D02*
G37*
G36*
X160900D02*
X160424Y18455D01*
X159598Y17902D01*
X159045Y17075D01*
X158950Y16600D01*
X160900D01*
Y18550D01*
D02*
G37*
G36*
X139500D02*
Y16600D01*
X141449D01*
X141355Y17075D01*
X140802Y17902D01*
X139976Y18455D01*
X139500Y18550D01*
D02*
G37*
G36*
X260600Y33087D02*
X259288Y32826D01*
X258176Y32083D01*
X257433Y30971D01*
X257172Y29659D01*
Y24541D01*
X257433Y23229D01*
X258176Y22117D01*
X259288Y21374D01*
X260600Y21113D01*
X261912Y21374D01*
X263024Y22117D01*
X263767Y23229D01*
X264028Y24541D01*
Y29659D01*
X263767Y30971D01*
X263024Y32083D01*
X261912Y32826D01*
X260600Y33087D01*
D02*
G37*
G36*
X190600D02*
X189288Y32826D01*
X188176Y32083D01*
X187433Y30971D01*
X187172Y29659D01*
Y24541D01*
X187433Y23229D01*
X188176Y22117D01*
X189288Y21374D01*
X190600Y21113D01*
X191912Y21374D01*
X193024Y22117D01*
X193767Y23229D01*
X194028Y24541D01*
Y29659D01*
X193767Y30971D01*
X193024Y32083D01*
X191912Y32826D01*
X190600Y33087D01*
D02*
G37*
G36*
X180600D02*
X179288Y32826D01*
X178176Y32083D01*
X177433Y30971D01*
X177172Y29659D01*
Y24541D01*
X177433Y23229D01*
X178176Y22117D01*
X179288Y21374D01*
X180600Y21113D01*
X181912Y21374D01*
X183024Y22117D01*
X183767Y23229D01*
X184028Y24541D01*
Y29659D01*
X183767Y30971D01*
X183024Y32083D01*
X181912Y32826D01*
X180600Y33087D01*
D02*
G37*
G36*
X290600D02*
X289288Y32826D01*
X288176Y32083D01*
X287433Y30971D01*
X287172Y29659D01*
Y24541D01*
X287433Y23229D01*
X288176Y22117D01*
X289288Y21374D01*
X290600Y21113D01*
X291912Y21374D01*
X293024Y22117D01*
X293767Y23229D01*
X294028Y24541D01*
Y29659D01*
X293767Y30971D01*
X293024Y32083D01*
X291912Y32826D01*
X290600Y33087D01*
D02*
G37*
G36*
X280600D02*
X279288Y32826D01*
X278176Y32083D01*
X277433Y30971D01*
X277172Y29659D01*
Y24541D01*
X277433Y23229D01*
X278176Y22117D01*
X279288Y21374D01*
X280600Y21113D01*
X281912Y21374D01*
X283024Y22117D01*
X283767Y23229D01*
X284028Y24541D01*
Y29659D01*
X283767Y30971D01*
X283024Y32083D01*
X281912Y32826D01*
X280600Y33087D01*
D02*
G37*
G36*
X270600D02*
X269288Y32826D01*
X268176Y32083D01*
X267433Y30971D01*
X267172Y29659D01*
Y24541D01*
X267433Y23229D01*
X268176Y22117D01*
X269288Y21374D01*
X270600Y21113D01*
X271912Y21374D01*
X273024Y22117D01*
X273767Y23229D01*
X274028Y24541D01*
Y29659D01*
X273767Y30971D01*
X273024Y32083D01*
X271912Y32826D01*
X270600Y33087D01*
D02*
G37*
G36*
X170600D02*
X169288Y32826D01*
X168176Y32083D01*
X167433Y30971D01*
X167172Y29659D01*
Y24541D01*
X167433Y23229D01*
X168176Y22117D01*
X169288Y21374D01*
X170600Y21113D01*
X171912Y21374D01*
X173024Y22117D01*
X173767Y23229D01*
X174028Y24541D01*
Y29659D01*
X173767Y30971D01*
X173024Y32083D01*
X171912Y32826D01*
X170600Y33087D01*
D02*
G37*
G36*
X389300Y22700D02*
X387351D01*
X387445Y22224D01*
X387998Y21398D01*
X388825Y20845D01*
X389300Y20751D01*
Y22700D01*
D02*
G37*
G36*
X47300Y21849D02*
Y19900D01*
X49250D01*
X49155Y20376D01*
X48602Y21202D01*
X47776Y21755D01*
X47300Y21849D01*
D02*
G37*
G36*
X46300D02*
X45825Y21755D01*
X44998Y21202D01*
X44445Y20376D01*
X44350Y19900D01*
X46300D01*
Y21849D01*
D02*
G37*
G36*
X162962Y33104D02*
X158238D01*
X157472Y32787D01*
X157155Y32021D01*
Y22179D01*
X157472Y21413D01*
X158238Y21096D01*
X162962D01*
X163728Y21413D01*
X164045Y22179D01*
Y32021D01*
X163728Y32787D01*
X162962Y33104D01*
D02*
G37*
G36*
X24800Y22749D02*
Y20800D01*
X26750D01*
X26655Y21275D01*
X26102Y22102D01*
X25275Y22655D01*
X24800Y22749D01*
D02*
G37*
G36*
X23800D02*
X23325Y22655D01*
X22498Y22102D01*
X21945Y21275D01*
X21850Y20800D01*
X23800D01*
Y22749D01*
D02*
G37*
G36*
X24100Y85400D02*
X22151D01*
X22245Y84925D01*
X22798Y84098D01*
X23625Y83545D01*
X24100Y83451D01*
Y85400D01*
D02*
G37*
G36*
X140700Y141250D02*
X140225Y141155D01*
X139398Y140602D01*
X138845Y139776D01*
X138751Y139300D01*
X140700D01*
Y141250D01*
D02*
G37*
G36*
X36300Y140849D02*
Y138900D01*
X38249D01*
X38155Y139375D01*
X37602Y140202D01*
X36775Y140755D01*
X36300Y140849D01*
D02*
G37*
G36*
X35300D02*
X34824Y140755D01*
X33998Y140202D01*
X33445Y139375D01*
X33351Y138900D01*
X35300D01*
Y140849D01*
D02*
G37*
G36*
X162700Y141250D02*
Y139300D01*
X164649D01*
X164555Y139776D01*
X164002Y140602D01*
X163175Y141155D01*
X162700Y141250D01*
D02*
G37*
G36*
X161700D02*
X161224Y141155D01*
X160398Y140602D01*
X159845Y139776D01*
X159750Y139300D01*
X161700D01*
Y141250D01*
D02*
G37*
G36*
X141700D02*
Y139300D01*
X143649D01*
X143555Y139776D01*
X143002Y140602D01*
X142175Y141155D01*
X141700Y141250D01*
D02*
G37*
G36*
X13900Y140849D02*
Y138900D01*
X15849D01*
X15755Y139375D01*
X15202Y140202D01*
X14376Y140755D01*
X13900Y140849D01*
D02*
G37*
G36*
X164649Y138300D02*
X162700D01*
Y136351D01*
X163175Y136445D01*
X164002Y136998D01*
X164555Y137824D01*
X164649Y138300D01*
D02*
G37*
G36*
X161700D02*
X159750D01*
X159845Y137824D01*
X160398Y136998D01*
X161224Y136445D01*
X161700Y136351D01*
Y138300D01*
D02*
G37*
G36*
X143649D02*
X141700D01*
Y136351D01*
X142175Y136445D01*
X143002Y136998D01*
X143555Y137824D01*
X143649Y138300D01*
D02*
G37*
G36*
X12900Y140849D02*
X12425Y140755D01*
X11598Y140202D01*
X11045Y139375D01*
X10950Y138900D01*
X12900D01*
Y140849D01*
D02*
G37*
G36*
X289549Y138300D02*
X287600D01*
Y136351D01*
X288075Y136445D01*
X288902Y136998D01*
X289455Y137824D01*
X289549Y138300D01*
D02*
G37*
G36*
X286600D02*
X284650D01*
X284745Y137824D01*
X285298Y136998D01*
X286124Y136445D01*
X286600Y136351D01*
Y138300D01*
D02*
G37*
G36*
X279949Y149600D02*
X278000D01*
Y147651D01*
X278475Y147745D01*
X279302Y148298D01*
X279855Y149125D01*
X279949Y149600D01*
D02*
G37*
G36*
X277000D02*
X275050D01*
X275145Y149125D01*
X275698Y148298D01*
X276524Y147745D01*
X277000Y147651D01*
Y149600D01*
D02*
G37*
G36*
X154149Y149500D02*
X152200D01*
Y147550D01*
X152675Y147645D01*
X153502Y148198D01*
X154055Y149024D01*
X154149Y149500D01*
D02*
G37*
G36*
X151200Y152450D02*
X150724Y152355D01*
X149898Y151802D01*
X149345Y150976D01*
X149250Y150500D01*
X151200D01*
Y152450D01*
D02*
G37*
G36*
X300950Y149600D02*
X299000D01*
Y147651D01*
X299476Y147745D01*
X300302Y148298D01*
X300855Y149125D01*
X300950Y149600D01*
D02*
G37*
G36*
X298000D02*
X296051D01*
X296145Y149125D01*
X296698Y148298D01*
X297524Y147745D01*
X298000Y147651D01*
Y149600D01*
D02*
G37*
G36*
X151200Y149500D02*
X149250D01*
X149345Y149024D01*
X149898Y148198D01*
X150724Y147645D01*
X151200Y147550D01*
Y149500D01*
D02*
G37*
G36*
X23300Y144700D02*
X21350D01*
X21445Y144225D01*
X21998Y143398D01*
X22825Y142845D01*
X23300Y142751D01*
Y144700D01*
D02*
G37*
G36*
X287600Y141250D02*
Y139300D01*
X289549D01*
X289455Y139776D01*
X288902Y140602D01*
X288075Y141155D01*
X287600Y141250D01*
D02*
G37*
G36*
X286600D02*
X286124Y141155D01*
X285298Y140602D01*
X284745Y139776D01*
X284650Y139300D01*
X286600D01*
Y141250D01*
D02*
G37*
G36*
X24300Y147650D02*
Y145700D01*
X26250D01*
X26155Y146176D01*
X25602Y147002D01*
X24776Y147555D01*
X24300Y147650D01*
D02*
G37*
G36*
X23300D02*
X22825Y147555D01*
X21998Y147002D01*
X21445Y146176D01*
X21350Y145700D01*
X23300D01*
Y147650D01*
D02*
G37*
G36*
X26250Y144700D02*
X24300D01*
Y142751D01*
X24776Y142845D01*
X25602Y143398D01*
X26155Y144225D01*
X26250Y144700D01*
D02*
G37*
G36*
X140700Y138300D02*
X138751D01*
X138845Y137824D01*
X139398Y136998D01*
X140225Y136445D01*
X140700Y136351D01*
Y138300D01*
D02*
G37*
G36*
X217600Y133831D02*
X216558Y133623D01*
X215250Y132750D01*
X214377Y131442D01*
X214169Y130400D01*
X217600D01*
Y133831D01*
D02*
G37*
G36*
X207600D02*
X206558Y133623D01*
X205250Y132750D01*
X204377Y131442D01*
X204169Y130400D01*
X207600D01*
Y133831D01*
D02*
G37*
G36*
X261053Y133935D02*
X255147D01*
X254382Y133618D01*
X254065Y132853D01*
Y130425D01*
X252065Y130228D01*
X251823Y131442D01*
X250950Y132750D01*
X249642Y133623D01*
X248100Y133930D01*
X246558Y133623D01*
X245250Y132750D01*
X244377Y131442D01*
X244070Y129900D01*
X244377Y128358D01*
X245250Y127050D01*
X246558Y126177D01*
X248100Y125870D01*
X249642Y126177D01*
X250950Y127050D01*
X251823Y128358D01*
X252065Y129571D01*
X254065Y129375D01*
Y126947D01*
X254382Y126182D01*
X255147Y125865D01*
X261053D01*
X261818Y126182D01*
X262135Y126947D01*
Y132853D01*
X261818Y133618D01*
X261053Y133935D01*
D02*
G37*
G36*
X389653Y135635D02*
X383747D01*
X382982Y135318D01*
X382665Y134553D01*
Y132125D01*
X380665Y131929D01*
X380423Y133142D01*
X379550Y134450D01*
X378242Y135323D01*
X376700Y135630D01*
X375158Y135323D01*
X373850Y134450D01*
X372977Y133142D01*
X372670Y131600D01*
X372977Y130058D01*
X373850Y128750D01*
X375158Y127877D01*
X376700Y127570D01*
X378242Y127877D01*
X379550Y128750D01*
X380423Y130058D01*
X380665Y131272D01*
X382665Y131075D01*
Y128647D01*
X382982Y127882D01*
X383747Y127565D01*
X389653D01*
X390418Y127882D01*
X390735Y128647D01*
Y134553D01*
X390418Y135318D01*
X389653Y135635D01*
D02*
G37*
G36*
X218600Y133831D02*
Y130400D01*
X222031D01*
X221823Y131442D01*
X220950Y132750D01*
X219642Y133623D01*
X218600Y133831D01*
D02*
G37*
G36*
X208600D02*
Y130400D01*
X212031D01*
X211823Y131442D01*
X210950Y132750D01*
X209642Y133623D01*
X208600Y133831D01*
D02*
G37*
G36*
X77231Y131900D02*
X73800D01*
Y128469D01*
X74842Y128677D01*
X76150Y129550D01*
X77023Y130858D01*
X77231Y131900D01*
D02*
G37*
G36*
X350631Y131100D02*
X347200D01*
Y127669D01*
X348242Y127877D01*
X349550Y128750D01*
X350423Y130058D01*
X350631Y131100D01*
D02*
G37*
G36*
X340631D02*
X337200D01*
Y127669D01*
X338242Y127877D01*
X339550Y128750D01*
X340423Y130058D01*
X340631Y131100D01*
D02*
G37*
G36*
X346200D02*
X342769D01*
X342977Y130058D01*
X343850Y128750D01*
X345158Y127877D01*
X346200Y127669D01*
Y131100D01*
D02*
G37*
G36*
X72800Y131900D02*
X69369D01*
X69577Y130858D01*
X70450Y129550D01*
X71758Y128677D01*
X72800Y128469D01*
Y131900D01*
D02*
G37*
G36*
X25100Y130350D02*
Y128400D01*
X27049D01*
X26955Y128876D01*
X26402Y129702D01*
X25576Y130255D01*
X25100Y130350D01*
D02*
G37*
G36*
X24100D02*
X23625Y130255D01*
X22798Y129702D01*
X22245Y128876D01*
X22151Y128400D01*
X24100D01*
Y130350D01*
D02*
G37*
G36*
X12900Y137900D02*
X10950D01*
X11045Y137425D01*
X11598Y136598D01*
X12425Y136045D01*
X12900Y135951D01*
Y137900D01*
D02*
G37*
G36*
X83800Y136331D02*
Y132900D01*
X87231D01*
X87023Y133942D01*
X86150Y135250D01*
X84842Y136123D01*
X83800Y136331D01*
D02*
G37*
G36*
X73800D02*
Y132900D01*
X77231D01*
X77023Y133942D01*
X76150Y135250D01*
X74842Y136123D01*
X73800Y136331D01*
D02*
G37*
G36*
X38249Y137900D02*
X36300D01*
Y135951D01*
X36775Y136045D01*
X37602Y136598D01*
X38155Y137425D01*
X38249Y137900D01*
D02*
G37*
G36*
X35300D02*
X33351D01*
X33445Y137425D01*
X33998Y136598D01*
X34824Y136045D01*
X35300Y135951D01*
Y137900D01*
D02*
G37*
G36*
X15849D02*
X13900D01*
Y135951D01*
X14376Y136045D01*
X15202Y136598D01*
X15755Y137425D01*
X15849Y137900D01*
D02*
G37*
G36*
X72800Y136331D02*
X71758Y136123D01*
X70450Y135250D01*
X69577Y133942D01*
X69369Y132900D01*
X72800D01*
Y136331D01*
D02*
G37*
G36*
X337200Y135531D02*
Y132100D01*
X340631D01*
X340423Y133142D01*
X339550Y134450D01*
X338242Y135323D01*
X337200Y135531D01*
D02*
G37*
G36*
X346200Y135531D02*
X345158Y135323D01*
X343850Y134450D01*
X342977Y133142D01*
X342769Y132100D01*
X346200D01*
Y135531D01*
D02*
G37*
G36*
X336200D02*
X335158Y135323D01*
X333850Y134450D01*
X332977Y133142D01*
X332769Y132100D01*
X336200D01*
Y135531D01*
D02*
G37*
G36*
X82800Y136331D02*
X81758Y136123D01*
X80450Y135250D01*
X79577Y133942D01*
X79369Y132900D01*
X82800D01*
Y136331D01*
D02*
G37*
G36*
X126253Y136435D02*
X120347D01*
X119582Y136118D01*
X119265Y135353D01*
Y132925D01*
X117265Y132729D01*
X117023Y133942D01*
X116150Y135250D01*
X114842Y136123D01*
X113300Y136430D01*
X111758Y136123D01*
X110450Y135250D01*
X109577Y133942D01*
X109270Y132400D01*
X109577Y130858D01*
X110450Y129550D01*
X111758Y128677D01*
X113300Y128370D01*
X114842Y128677D01*
X116150Y129550D01*
X117023Y130858D01*
X117265Y132071D01*
X119265Y131875D01*
Y129447D01*
X119582Y128682D01*
X120347Y128365D01*
X126253D01*
X127018Y128682D01*
X127335Y129447D01*
Y135353D01*
X127018Y136118D01*
X126253Y136435D01*
D02*
G37*
G36*
X347200Y135531D02*
Y132100D01*
X350631D01*
X350423Y133142D01*
X349550Y134450D01*
X348242Y135323D01*
X347200Y135531D01*
D02*
G37*
G36*
X152200Y152450D02*
Y150500D01*
X154149D01*
X154055Y150976D01*
X153502Y151802D01*
X152675Y152355D01*
X152200Y152450D01*
D02*
G37*
G36*
X258300Y176031D02*
Y172552D01*
X261779D01*
X261568Y173613D01*
X260684Y174936D01*
X259361Y175820D01*
X258300Y176031D01*
D02*
G37*
G36*
X257300D02*
X256239Y175820D01*
X254916Y174936D01*
X254032Y173613D01*
X253821Y172552D01*
X257300D01*
Y176031D01*
D02*
G37*
G36*
X139350Y175675D02*
X136700D01*
Y172140D01*
X140432D01*
Y174593D01*
X140115Y175358D01*
X139350Y175675D01*
D02*
G37*
G36*
X278000Y174950D02*
Y173000D01*
X279949D01*
X279855Y173476D01*
X279302Y174302D01*
X278475Y174855D01*
X278000Y174950D01*
D02*
G37*
G36*
X153100D02*
Y173000D01*
X155050D01*
X154955Y173476D01*
X154402Y174302D01*
X153576Y174855D01*
X153100Y174950D01*
D02*
G37*
G36*
X152100D02*
X151625Y174855D01*
X150798Y174302D01*
X150245Y173476D01*
X150151Y173000D01*
X152100D01*
Y174950D01*
D02*
G37*
G36*
X135700Y175675D02*
X133050D01*
X132285Y175358D01*
X131968Y174593D01*
Y172140D01*
X135700D01*
Y175675D01*
D02*
G37*
G36*
X298000Y172000D02*
X296051D01*
X296145Y171525D01*
X296698Y170698D01*
X297524Y170145D01*
X298000Y170051D01*
Y172000D01*
D02*
G37*
G36*
X279949D02*
X278000D01*
Y170051D01*
X278475Y170145D01*
X279302Y170698D01*
X279855Y171525D01*
X279949Y172000D01*
D02*
G37*
G36*
X155050D02*
X153100D01*
Y170051D01*
X153576Y170145D01*
X154402Y170698D01*
X154955Y171525D01*
X155050Y172000D01*
D02*
G37*
G36*
X248711Y174587D02*
X246850D01*
Y170571D01*
X248020Y171055D01*
X248711Y172724D01*
Y174587D01*
D02*
G37*
G36*
X269400Y174015D02*
X266750D01*
X265985Y173698D01*
X265668Y172933D01*
Y170480D01*
X269400D01*
Y174015D01*
D02*
G37*
G36*
X300950Y172000D02*
X299000D01*
Y170051D01*
X299476Y170145D01*
X300302Y170698D01*
X300855Y171525D01*
X300950Y172000D01*
D02*
G37*
G36*
X13700Y181350D02*
X13225Y181255D01*
X12398Y180702D01*
X11845Y179876D01*
X11750Y179400D01*
X13700D01*
Y181350D01*
D02*
G37*
G36*
X37650Y178400D02*
X35700D01*
Y176451D01*
X36176Y176545D01*
X37002Y177098D01*
X37555Y177925D01*
X37650Y178400D01*
D02*
G37*
G36*
X34700D02*
X32750D01*
X32845Y177925D01*
X33398Y177098D01*
X34225Y176545D01*
X34700Y176451D01*
Y178400D01*
D02*
G37*
G36*
X35700Y181350D02*
Y179400D01*
X37650D01*
X37555Y179876D01*
X37002Y180702D01*
X36176Y181255D01*
X35700Y181350D01*
D02*
G37*
G36*
X34700D02*
X34225Y181255D01*
X33398Y180702D01*
X32845Y179876D01*
X32750Y179400D01*
X34700D01*
Y181350D01*
D02*
G37*
G36*
X14700D02*
Y179400D01*
X16649D01*
X16555Y179876D01*
X16002Y180702D01*
X15176Y181255D01*
X14700Y181350D01*
D02*
G37*
G36*
X16649Y178400D02*
X14700D01*
Y176451D01*
X15176Y176545D01*
X16002Y177098D01*
X16555Y177925D01*
X16649Y178400D01*
D02*
G37*
G36*
X183155Y183885D02*
X181613Y183579D01*
X180305Y182705D01*
X179432Y181397D01*
X179125Y179855D01*
X179432Y178313D01*
X180305Y177005D01*
X181613Y176132D01*
X183155Y175825D01*
X184697Y176132D01*
X186005Y177005D01*
X188198Y176955D01*
X189505Y176082D01*
X190548Y175874D01*
Y179805D01*
Y183736D01*
X189505Y183528D01*
X188198Y182655D01*
X186005Y182705D01*
X184697Y183579D01*
X183155Y183885D01*
D02*
G37*
G36*
X299000Y174950D02*
Y173000D01*
X300950D01*
X300855Y173476D01*
X300302Y174302D01*
X299476Y174855D01*
X299000Y174950D01*
D02*
G37*
G36*
X298000D02*
X297524Y174855D01*
X296698Y174302D01*
X296145Y173476D01*
X296051Y173000D01*
X298000D01*
Y174950D01*
D02*
G37*
G36*
X13700Y178400D02*
X11750D01*
X11845Y177925D01*
X12398Y177098D01*
X13225Y176545D01*
X13700Y176451D01*
Y178400D01*
D02*
G37*
G36*
X48553Y183885D02*
X47010Y183579D01*
X45703Y182705D01*
X44829Y181397D01*
X44523Y179855D01*
X44829Y178313D01*
X45703Y177005D01*
X47010Y176132D01*
X48553Y175825D01*
X50095Y176132D01*
X51402Y177005D01*
X53596Y176955D01*
X54903Y176082D01*
X55945Y175874D01*
Y179805D01*
Y183736D01*
X54903Y183529D01*
X53596Y182655D01*
X51402Y182705D01*
X50095Y183579D01*
X48553Y183885D01*
D02*
G37*
G36*
X314005Y183885D02*
X312463Y183579D01*
X311156Y182705D01*
X310282Y181397D01*
X309975Y179855D01*
X310282Y178313D01*
X311156Y177005D01*
X312463Y176132D01*
X314005Y175825D01*
X315548Y176132D01*
X316855Y177005D01*
X319048Y176955D01*
X320356Y176082D01*
X321398Y175874D01*
Y179805D01*
Y183736D01*
X320356Y183528D01*
X319048Y182655D01*
X316855Y182705D01*
X315548Y183579D01*
X314005Y183885D01*
D02*
G37*
G36*
X152100Y172000D02*
X150151D01*
X150245Y171525D01*
X150798Y170698D01*
X151625Y170145D01*
X152100Y170051D01*
Y172000D01*
D02*
G37*
G36*
X14700Y158949D02*
Y157000D01*
X16649D01*
X16555Y157475D01*
X16002Y158302D01*
X15176Y158855D01*
X14700Y158949D01*
D02*
G37*
G36*
X13700D02*
X13225Y158855D01*
X12398Y158302D01*
X11845Y157475D01*
X11750Y157000D01*
X13700D01*
Y158949D01*
D02*
G37*
G36*
X37650Y156000D02*
X35700D01*
Y154051D01*
X36176Y154145D01*
X37002Y154698D01*
X37555Y155525D01*
X37650Y156000D01*
D02*
G37*
G36*
X143649Y160700D02*
X141700D01*
Y158750D01*
X142175Y158845D01*
X143002Y159398D01*
X143555Y160224D01*
X143649Y160700D01*
D02*
G37*
G36*
X35700Y158949D02*
Y157000D01*
X37650D01*
X37555Y157475D01*
X37002Y158302D01*
X36176Y158855D01*
X35700Y158949D01*
D02*
G37*
G36*
X34700D02*
X34225Y158855D01*
X33398Y158302D01*
X32845Y157475D01*
X32750Y157000D01*
X34700D01*
Y158949D01*
D02*
G37*
G36*
Y156000D02*
X32750D01*
X32845Y155525D01*
X33398Y154698D01*
X34225Y154145D01*
X34700Y154051D01*
Y156000D01*
D02*
G37*
G36*
X298000Y152550D02*
X297524Y152455D01*
X296698Y151902D01*
X296145Y151075D01*
X296051Y150600D01*
X298000D01*
Y152550D01*
D02*
G37*
G36*
X278000D02*
Y150600D01*
X279949D01*
X279855Y151075D01*
X279302Y151902D01*
X278475Y152455D01*
X278000Y152550D01*
D02*
G37*
G36*
X277000D02*
X276524Y152455D01*
X275698Y151902D01*
X275145Y151075D01*
X275050Y150600D01*
X277000D01*
Y152550D01*
D02*
G37*
G36*
X16649Y156000D02*
X14700D01*
Y154051D01*
X15176Y154145D01*
X16002Y154698D01*
X16555Y155525D01*
X16649Y156000D01*
D02*
G37*
G36*
X13700D02*
X11750D01*
X11845Y155525D01*
X12398Y154698D01*
X13225Y154145D01*
X13700Y154051D01*
Y156000D01*
D02*
G37*
G36*
X299000Y152550D02*
Y150600D01*
X300950D01*
X300855Y151075D01*
X300302Y151902D01*
X299476Y152455D01*
X299000Y152550D01*
D02*
G37*
G36*
X27150Y167200D02*
X25200D01*
Y165251D01*
X25675Y165345D01*
X26502Y165898D01*
X27055Y166725D01*
X27150Y167200D01*
D02*
G37*
G36*
X24200D02*
X22251D01*
X22345Y166725D01*
X22898Y165898D01*
X23724Y165345D01*
X24200Y165251D01*
Y167200D01*
D02*
G37*
G36*
X288500Y163750D02*
Y161800D01*
X290450D01*
X290355Y162276D01*
X289802Y163102D01*
X288976Y163655D01*
X288500Y163750D01*
D02*
G37*
G36*
X25200Y170150D02*
Y168200D01*
X27150D01*
X27055Y168675D01*
X26502Y169502D01*
X25675Y170055D01*
X25200Y170150D01*
D02*
G37*
G36*
X24200D02*
X23724Y170055D01*
X22898Y169502D01*
X22345Y168675D01*
X22251Y168200D01*
X24200D01*
Y170150D01*
D02*
G37*
G36*
X287500Y163750D02*
X287024Y163655D01*
X286198Y163102D01*
X285645Y162276D01*
X285550Y161800D01*
X287500D01*
Y163750D01*
D02*
G37*
G36*
Y160800D02*
X285550D01*
X285645Y160325D01*
X286198Y159498D01*
X287024Y158945D01*
X287500Y158851D01*
Y160800D01*
D02*
G37*
G36*
X164649Y160700D02*
X162700D01*
Y158750D01*
X163175Y158845D01*
X164002Y159398D01*
X164555Y160224D01*
X164649Y160700D01*
D02*
G37*
G36*
X161700D02*
X159750D01*
X159845Y160224D01*
X160398Y159398D01*
X161224Y158845D01*
X161700Y158750D01*
Y160700D01*
D02*
G37*
G36*
X162700Y163649D02*
Y161700D01*
X164649D01*
X164555Y162176D01*
X164002Y163002D01*
X163175Y163555D01*
X162700Y163649D01*
D02*
G37*
G36*
X161700D02*
X161224Y163555D01*
X160398Y163002D01*
X159845Y162176D01*
X159750Y161700D01*
X161700D01*
Y163649D01*
D02*
G37*
G36*
X290450Y160800D02*
X288500D01*
Y158851D01*
X288976Y158945D01*
X289802Y159498D01*
X290355Y160325D01*
X290450Y160800D01*
D02*
G37*
G36*
X65000Y106949D02*
Y105000D01*
X66949D01*
X66855Y105475D01*
X66302Y106302D01*
X65475Y106855D01*
X65000Y106949D01*
D02*
G37*
G36*
X64000D02*
X63525Y106855D01*
X62698Y106302D01*
X62145Y105475D01*
X62050Y105000D01*
X64000D01*
Y106949D01*
D02*
G37*
G36*
X27049Y106400D02*
X25100D01*
Y104451D01*
X25576Y104545D01*
X26402Y105098D01*
X26955Y105924D01*
X27049Y106400D01*
D02*
G37*
G36*
X177500Y107650D02*
Y105700D01*
X179449D01*
X179355Y106175D01*
X178802Y107002D01*
X177975Y107555D01*
X177500Y107650D01*
D02*
G37*
G36*
X176500D02*
X176024Y107555D01*
X175198Y107002D01*
X174645Y106175D01*
X174550Y105700D01*
X176500D01*
Y107650D01*
D02*
G37*
G36*
X86400Y106949D02*
X85925Y106855D01*
X85098Y106302D01*
X84545Y105475D01*
X84451Y105000D01*
X86400D01*
Y106949D01*
D02*
G37*
G36*
X24100Y106400D02*
X22151D01*
X22245Y105924D01*
X22798Y105098D01*
X23625Y104545D01*
X24100Y104451D01*
Y106400D01*
D02*
G37*
G36*
X46600Y105500D02*
X44651D01*
X44745Y105025D01*
X45298Y104198D01*
X46125Y103645D01*
X46600Y103551D01*
Y105500D01*
D02*
G37*
G36*
X179449Y104700D02*
X177500D01*
Y102751D01*
X177975Y102845D01*
X178802Y103398D01*
X179355Y104225D01*
X179449Y104700D01*
D02*
G37*
G36*
X176500D02*
X174550D01*
X174645Y104225D01*
X175198Y103398D01*
X176024Y102845D01*
X176500Y102751D01*
Y104700D01*
D02*
G37*
G36*
X156949Y105600D02*
X155000D01*
Y103650D01*
X155475Y103745D01*
X156302Y104298D01*
X156855Y105124D01*
X156949Y105600D01*
D02*
G37*
G36*
X154000D02*
X152050D01*
X152145Y105124D01*
X152698Y104298D01*
X153524Y103745D01*
X154000Y103650D01*
Y105600D01*
D02*
G37*
G36*
X49549Y105500D02*
X47600D01*
Y103551D01*
X48076Y103645D01*
X48902Y104198D01*
X49455Y105025D01*
X49549Y105500D01*
D02*
G37*
G36*
X304049Y114300D02*
X302100D01*
Y112350D01*
X302575Y112445D01*
X303402Y112998D01*
X303955Y113824D01*
X304049Y114300D01*
D02*
G37*
G36*
X301100D02*
X299150D01*
X299245Y113824D01*
X299798Y112998D01*
X300624Y112445D01*
X301100Y112350D01*
Y114300D01*
D02*
G37*
G36*
X281649D02*
X279700D01*
Y112350D01*
X280175Y112445D01*
X281002Y112998D01*
X281555Y113824D01*
X281649Y114300D01*
D02*
G37*
G36*
X165200Y116100D02*
X163251D01*
X163345Y115624D01*
X163898Y114798D01*
X164725Y114245D01*
X165200Y114151D01*
Y116100D01*
D02*
G37*
G36*
X145749D02*
X143800D01*
Y114151D01*
X144275Y114245D01*
X145102Y114798D01*
X145655Y115624D01*
X145749Y116100D01*
D02*
G37*
G36*
X142800D02*
X140850D01*
X140945Y115624D01*
X141498Y114798D01*
X142324Y114245D01*
X142800Y114151D01*
Y116100D01*
D02*
G37*
G36*
X278700Y114300D02*
X276750D01*
X276845Y113824D01*
X277398Y112998D01*
X278224Y112445D01*
X278700Y112350D01*
Y114300D01*
D02*
G37*
G36*
X154000Y108549D02*
X153524Y108455D01*
X152698Y107902D01*
X152145Y107076D01*
X152050Y106600D01*
X154000D01*
Y108549D01*
D02*
G37*
G36*
X47600Y108449D02*
Y106500D01*
X49549D01*
X49455Y106975D01*
X48902Y107802D01*
X48076Y108355D01*
X47600Y108449D01*
D02*
G37*
G36*
X46600D02*
X46125Y108355D01*
X45298Y107802D01*
X44745Y106975D01*
X44651Y106500D01*
X46600D01*
Y108449D01*
D02*
G37*
G36*
X25100Y109350D02*
Y107400D01*
X27049D01*
X26955Y107876D01*
X26402Y108702D01*
X25576Y109255D01*
X25100Y109350D01*
D02*
G37*
G36*
X24100D02*
X23625Y109255D01*
X22798Y108702D01*
X22245Y107876D01*
X22151Y107400D01*
X24100D01*
Y109350D01*
D02*
G37*
G36*
X155000Y108549D02*
Y106600D01*
X156949D01*
X156855Y107076D01*
X156302Y107902D01*
X155475Y108455D01*
X155000Y108549D01*
D02*
G37*
G36*
X86400Y104000D02*
X84451D01*
X84545Y103524D01*
X85098Y102698D01*
X85925Y102145D01*
X86400Y102050D01*
Y104000D01*
D02*
G37*
G36*
X170100Y92988D02*
X169288Y92826D01*
X168176Y92083D01*
X167433Y90971D01*
X167172Y89659D01*
Y87600D01*
X170100D01*
Y92988D01*
D02*
G37*
G36*
X25100Y88349D02*
Y86400D01*
X27049D01*
X26955Y86875D01*
X26402Y87702D01*
X25576Y88255D01*
X25100Y88349D01*
D02*
G37*
G36*
X24100D02*
X23625Y88255D01*
X22798Y87702D01*
X22245Y86875D01*
X22151Y86400D01*
X24100D01*
Y88349D01*
D02*
G37*
G36*
X78149Y93500D02*
X76200D01*
Y91550D01*
X76675Y91645D01*
X77502Y92198D01*
X78055Y93024D01*
X78149Y93500D01*
D02*
G37*
G36*
X75200D02*
X73251D01*
X73345Y93024D01*
X73898Y92198D01*
X74725Y91645D01*
X75200Y91550D01*
Y93500D01*
D02*
G37*
G36*
X171100Y92988D02*
Y87600D01*
X174028D01*
Y89659D01*
X173767Y90971D01*
X173024Y92083D01*
X171912Y92826D01*
X171100Y92988D01*
D02*
G37*
G36*
X47600Y87450D02*
Y85500D01*
X49549D01*
X49455Y85975D01*
X48902Y86802D01*
X48076Y87355D01*
X47600Y87450D01*
D02*
G37*
G36*
X65000Y85949D02*
Y84000D01*
X66949D01*
X66855Y84475D01*
X66302Y85302D01*
X65475Y85855D01*
X65000Y85949D01*
D02*
G37*
G36*
X64000D02*
X63525Y85855D01*
X62698Y85302D01*
X62145Y84475D01*
X62050Y84000D01*
X64000D01*
Y85949D01*
D02*
G37*
G36*
X27049Y85400D02*
X25100D01*
Y83451D01*
X25576Y83545D01*
X26402Y84098D01*
X26955Y84925D01*
X27049Y85400D01*
D02*
G37*
G36*
X46600Y87450D02*
X46125Y87355D01*
X45298Y86802D01*
X44745Y85975D01*
X44651Y85500D01*
X46600D01*
Y87450D01*
D02*
G37*
G36*
X87400Y85949D02*
Y84000D01*
X89350D01*
X89255Y84475D01*
X88702Y85302D01*
X87875Y85855D01*
X87400Y85949D01*
D02*
G37*
G36*
X86400D02*
X85925Y85855D01*
X85098Y85302D01*
X84545Y84475D01*
X84451Y84000D01*
X86400D01*
Y85949D01*
D02*
G37*
G36*
X35300Y98849D02*
X34824Y98755D01*
X33998Y98202D01*
X33445Y97376D01*
X33351Y96900D01*
X35300D01*
Y98849D01*
D02*
G37*
G36*
X13900D02*
Y96900D01*
X15849D01*
X15755Y97376D01*
X15202Y98202D01*
X14376Y98755D01*
X13900Y98849D01*
D02*
G37*
G36*
X12900D02*
X12425Y98755D01*
X11598Y98202D01*
X11045Y97376D01*
X10950Y96900D01*
X12900D01*
Y98849D01*
D02*
G37*
G36*
X66949Y104000D02*
X65000D01*
Y102050D01*
X65475Y102145D01*
X66302Y102698D01*
X66855Y103524D01*
X66949Y104000D01*
D02*
G37*
G36*
X64000D02*
X62050D01*
X62145Y103524D01*
X62698Y102698D01*
X63525Y102145D01*
X64000Y102050D01*
Y104000D01*
D02*
G37*
G36*
X36300Y98849D02*
Y96900D01*
X38249D01*
X38155Y97376D01*
X37602Y98202D01*
X36775Y98755D01*
X36300Y98849D01*
D02*
G37*
G36*
X103300Y136430D02*
X101758Y136123D01*
X100450Y135250D01*
X99577Y133942D01*
X99270Y132400D01*
X99577Y130858D01*
X100450Y129550D01*
X100751Y129349D01*
Y126575D01*
X100347D01*
X99582Y126258D01*
X99265Y125493D01*
Y120418D01*
X99265Y119981D01*
X99376Y118800D01*
X99265Y117619D01*
X99265Y117182D01*
Y112107D01*
X99582Y111342D01*
X100347Y111025D01*
X100751D01*
Y97000D01*
X100795Y96778D01*
X99539Y95752D01*
X99092Y95472D01*
X98700Y95549D01*
Y93100D01*
X97700D01*
Y95549D01*
X97349Y95480D01*
X97182Y95481D01*
X95349Y96607D01*
Y110825D01*
X95753D01*
X96518Y111142D01*
X96835Y111907D01*
Y116982D01*
X96835Y117419D01*
X96724Y118600D01*
X96835Y119781D01*
X96835Y120218D01*
Y125293D01*
X96518Y126058D01*
X95753Y126375D01*
X95349D01*
Y129015D01*
X96150Y129550D01*
X97023Y130858D01*
X97330Y132400D01*
X97023Y133942D01*
X96150Y135250D01*
X94842Y136123D01*
X93300Y136430D01*
X91758Y136123D01*
X90450Y135250D01*
X89577Y133942D01*
X89270Y132400D01*
X89577Y130858D01*
X90251Y129848D01*
Y127542D01*
X88526Y126228D01*
X88205Y126192D01*
X86753Y126475D01*
X85654Y126475D01*
X84027D01*
X83830Y128475D01*
X84842Y128677D01*
X86150Y129550D01*
X87023Y130858D01*
X87231Y131900D01*
X83300D01*
X79369D01*
X79577Y130858D01*
X80450Y129550D01*
X81758Y128677D01*
X82770Y128475D01*
X82573Y126475D01*
X80847D01*
X80082Y126158D01*
X79765Y125393D01*
Y123137D01*
X83800D01*
Y122137D01*
X79765D01*
Y120318D01*
X79765Y119881D01*
X79876Y118700D01*
X79765Y117519D01*
X79765Y117082D01*
Y112007D01*
X80082Y111242D01*
X80847Y110925D01*
X86753D01*
X87518Y111242D01*
X89082Y111142D01*
X89847Y110825D01*
X90251D01*
Y107490D01*
X89817Y107157D01*
X88251Y106604D01*
X87875Y106855D01*
X87400Y106949D01*
Y104500D01*
Y102050D01*
X87875Y102145D01*
X88251Y102396D01*
X89817Y101843D01*
X90251Y101510D01*
Y91000D01*
X90445Y90025D01*
X90998Y89198D01*
X131498Y48698D01*
X132325Y48145D01*
X133300Y47951D01*
X187144D01*
X198051Y37044D01*
Y31896D01*
X197433Y30971D01*
X197172Y29659D01*
Y24541D01*
X197433Y23229D01*
X198176Y22117D01*
X199288Y21374D01*
X200600Y21113D01*
X201912Y21374D01*
X203024Y22117D01*
X203767Y23229D01*
X204028Y24541D01*
Y29659D01*
X203767Y30971D01*
X203149Y31896D01*
Y38100D01*
X202955Y39075D01*
X202402Y39902D01*
X190491Y51814D01*
X191120Y53751D01*
X192677Y53918D01*
X208051Y38544D01*
Y31896D01*
X207433Y30971D01*
X207172Y29659D01*
Y24541D01*
X207433Y23229D01*
X208176Y22117D01*
X209288Y21374D01*
X210600Y21113D01*
X211912Y21374D01*
X213024Y22117D01*
X213767Y23229D01*
X214028Y24541D01*
Y29659D01*
X213767Y30971D01*
X213149Y31896D01*
Y39600D01*
X212955Y40576D01*
X212402Y41402D01*
X195302Y58502D01*
X194475Y59055D01*
X193500Y59249D01*
X144656D01*
X105849Y98056D01*
Y109915D01*
X106866Y110597D01*
X108682Y111042D01*
Y111042D01*
X108682D01*
X109447Y110725D01*
X115353D01*
X116118Y111042D01*
X116435Y111807D01*
Y116882D01*
X116435Y117319D01*
X116324Y118500D01*
X116415Y119471D01*
X116425Y119480D01*
X117515Y119952D01*
X118435Y120184D01*
X118588Y120082D01*
X119063Y119987D01*
Y122437D01*
Y124887D01*
X118588Y124792D01*
X118435Y124690D01*
X117515Y124922D01*
X116425Y125394D01*
X116311Y125493D01*
X116118Y125958D01*
X115353Y126275D01*
X112900D01*
Y122437D01*
X111900D01*
Y126275D01*
X109447D01*
X109183Y126166D01*
X108833Y126038D01*
X107488Y126201D01*
X106834Y126335D01*
X106253Y126575D01*
X105849D01*
Y129349D01*
X106150Y129550D01*
X107023Y130858D01*
X107330Y132400D01*
X107023Y133942D01*
X106150Y135250D01*
X104842Y136123D01*
X103300Y136430D01*
D02*
G37*
G36*
X35300Y95900D02*
X33351D01*
X33445Y95424D01*
X33998Y94598D01*
X34824Y94045D01*
X35300Y93950D01*
Y95900D01*
D02*
G37*
G36*
X15849D02*
X13900D01*
Y93950D01*
X14376Y94045D01*
X15202Y94598D01*
X15755Y95424D01*
X15849Y95900D01*
D02*
G37*
G36*
X12900D02*
X10950D01*
X11045Y95424D01*
X11598Y94598D01*
X12425Y94045D01*
X12900Y93950D01*
Y95900D01*
D02*
G37*
G36*
X76200Y96450D02*
Y94500D01*
X78149D01*
X78055Y94976D01*
X77502Y95802D01*
X76675Y96355D01*
X76200Y96450D01*
D02*
G37*
G36*
X75200D02*
X74725Y96355D01*
X73898Y95802D01*
X73345Y94976D01*
X73251Y94500D01*
X75200D01*
Y96450D01*
D02*
G37*
G36*
X38249Y95900D02*
X36300D01*
Y93950D01*
X36775Y94045D01*
X37602Y94598D01*
X38155Y95424D01*
X38249Y95900D01*
D02*
G37*
G36*
X168149Y116100D02*
X166200D01*
Y114151D01*
X166675Y114245D01*
X167502Y114798D01*
X168055Y115624D01*
X168149Y116100D01*
D02*
G37*
G36*
X312400Y126849D02*
X311925Y126755D01*
X311098Y126202D01*
X310545Y125375D01*
X310451Y124900D01*
X312400D01*
Y126849D01*
D02*
G37*
G36*
X156949Y126600D02*
X155000D01*
Y124651D01*
X155475Y124745D01*
X156302Y125298D01*
X156855Y126125D01*
X156949Y126600D01*
D02*
G37*
G36*
X154000D02*
X152050D01*
X152145Y126125D01*
X152698Y125298D01*
X153524Y124745D01*
X154000Y124651D01*
Y126600D01*
D02*
G37*
G36*
X27049Y127400D02*
X25100D01*
Y125451D01*
X25576Y125545D01*
X26402Y126098D01*
X26955Y126925D01*
X27049Y127400D01*
D02*
G37*
G36*
X24100D02*
X22151D01*
X22245Y126925D01*
X22798Y126098D01*
X23625Y125545D01*
X24100Y125451D01*
Y127400D01*
D02*
G37*
G36*
X313400Y126849D02*
Y124900D01*
X315350D01*
X315255Y125375D01*
X314702Y126202D01*
X313876Y126755D01*
X313400Y126849D01*
D02*
G37*
G36*
X49549Y126500D02*
X47600D01*
Y124550D01*
X48076Y124645D01*
X48902Y125198D01*
X49455Y126024D01*
X49549Y126500D01*
D02*
G37*
G36*
X238100Y133930D02*
X236558Y133623D01*
X235250Y132750D01*
X234377Y131442D01*
X234070Y129900D01*
X234377Y128358D01*
X235250Y127050D01*
X235551Y126849D01*
Y124486D01*
X234000Y123453D01*
X233768Y123388D01*
X232000Y123449D01*
X231818Y123458D01*
X231682Y123515D01*
X231053Y123775D01*
X230649D01*
Y126849D01*
X230950Y127050D01*
X231823Y128358D01*
X232130Y129900D01*
X231823Y131442D01*
X230950Y132750D01*
X229642Y133623D01*
X228100Y133930D01*
X226558Y133623D01*
X225250Y132750D01*
X224377Y131442D01*
X224070Y129900D01*
X224377Y128358D01*
X225250Y127050D01*
X225551Y126849D01*
Y124179D01*
X225147Y123775D01*
X223600Y123538D01*
X222053Y123775D01*
X220974Y123775D01*
X219600D01*
Y119937D01*
X219100D01*
Y119437D01*
X215065D01*
Y117618D01*
X215065Y117181D01*
X215176Y116000D01*
X215065Y114819D01*
X215065Y114382D01*
Y109307D01*
X215382Y108542D01*
X216147Y108225D01*
X216551D01*
Y104400D01*
X216745Y103425D01*
X217298Y102598D01*
X222913Y96982D01*
Y94379D01*
X220913Y93025D01*
X220600Y93087D01*
X219288Y92826D01*
X218176Y92083D01*
X217433Y90971D01*
X217172Y89659D01*
Y84541D01*
X217433Y83229D01*
X218176Y82117D01*
X219288Y81374D01*
X220600Y81113D01*
X220913Y81175D01*
X222913Y79821D01*
Y52518D01*
X218798Y48402D01*
X218245Y47576D01*
X218051Y46600D01*
Y31896D01*
X217433Y30971D01*
X217172Y29659D01*
Y24541D01*
X217433Y23229D01*
X218176Y22117D01*
X219288Y21374D01*
X220600Y21113D01*
X221912Y21374D01*
X223024Y22117D01*
X223767Y23229D01*
X224028Y24541D01*
Y29659D01*
X223767Y30971D01*
X223149Y31896D01*
Y45544D01*
X227265Y49660D01*
X227817Y50487D01*
X228011Y51462D01*
Y79822D01*
X228315Y80191D01*
X230011Y81230D01*
X230600Y81113D01*
X231189Y81230D01*
X232885Y80191D01*
X233189Y79822D01*
Y50894D01*
X228798Y46502D01*
X228245Y45676D01*
X228051Y44700D01*
Y31896D01*
X227433Y30971D01*
X227172Y29659D01*
Y24541D01*
X227433Y23229D01*
X228176Y22117D01*
X229288Y21374D01*
X230600Y21113D01*
X231912Y21374D01*
X233024Y22117D01*
X233767Y23229D01*
X234028Y24541D01*
Y29659D01*
X233767Y30971D01*
X233149Y31896D01*
Y43644D01*
X237540Y48035D01*
X238093Y48862D01*
X238287Y49838D01*
Y79821D01*
X240287Y81175D01*
X240600Y81113D01*
X241912Y81374D01*
X243024Y82117D01*
X243767Y83229D01*
X244028Y84541D01*
Y89659D01*
X243767Y90971D01*
X243024Y92083D01*
X241912Y92826D01*
X240600Y93087D01*
X240287Y93025D01*
X238287Y94379D01*
Y100182D01*
X239302Y101198D01*
X239855Y102024D01*
X240049Y103000D01*
Y106954D01*
X241934Y108401D01*
X242982Y108342D01*
X243747Y108025D01*
X249653D01*
X250418Y108342D01*
X250735Y109107D01*
Y114182D01*
X250735Y114619D01*
X250624Y115800D01*
X250701Y116619D01*
X252198Y117281D01*
X252685Y117382D01*
X252735Y117373D01*
X253163Y117288D01*
Y119737D01*
Y122187D01*
X252735Y122101D01*
X252685Y122092D01*
X252198Y122193D01*
X250559Y122918D01*
X250418Y123258D01*
X249653Y123575D01*
X247200D01*
Y119737D01*
X246200D01*
Y123575D01*
X243747D01*
X243066Y123293D01*
X241979Y123331D01*
X241134Y123393D01*
X240649Y123594D01*
Y126849D01*
X240950Y127050D01*
X241823Y128358D01*
X242130Y129900D01*
X241823Y131442D01*
X240950Y132750D01*
X239642Y133623D01*
X238100Y133930D01*
D02*
G37*
G36*
X120063Y124887D02*
Y122937D01*
X122012D01*
X121918Y123412D01*
X121365Y124239D01*
X120538Y124792D01*
X120063Y124887D01*
D02*
G37*
G36*
X292849Y124800D02*
X290900D01*
Y122851D01*
X291375Y122945D01*
X292202Y123498D01*
X292755Y124325D01*
X292849Y124800D01*
D02*
G37*
G36*
X46600Y126500D02*
X44651D01*
X44745Y126024D01*
X45298Y125198D01*
X46125Y124645D01*
X46600Y124550D01*
Y126500D01*
D02*
G37*
G36*
X179449Y125700D02*
X177500D01*
Y123750D01*
X177975Y123845D01*
X178802Y124398D01*
X179355Y125224D01*
X179449Y125700D01*
D02*
G37*
G36*
X176500D02*
X174550D01*
X174645Y125224D01*
X175198Y124398D01*
X176024Y123845D01*
X176500Y123750D01*
Y125700D01*
D02*
G37*
G36*
X47600Y129449D02*
Y127500D01*
X49549D01*
X49455Y127975D01*
X48902Y128802D01*
X48076Y129355D01*
X47600Y129449D01*
D02*
G37*
G36*
X46600D02*
X46125Y129355D01*
X45298Y128802D01*
X44745Y127975D01*
X44651Y127500D01*
X46600D01*
Y129449D01*
D02*
G37*
G36*
X177500Y128649D02*
Y126700D01*
X179449D01*
X179355Y127175D01*
X178802Y128002D01*
X177975Y128555D01*
X177500Y128649D01*
D02*
G37*
G36*
X336200Y131100D02*
X332769D01*
X332977Y130058D01*
X333850Y128750D01*
X335158Y127877D01*
X336200Y127669D01*
Y131100D01*
D02*
G37*
G36*
X155000Y129550D02*
Y127600D01*
X156949D01*
X156855Y128076D01*
X156302Y128902D01*
X155475Y129455D01*
X155000Y129550D01*
D02*
G37*
G36*
X154000D02*
X153524Y129455D01*
X152698Y128902D01*
X152145Y128076D01*
X152050Y127600D01*
X154000D01*
Y129550D01*
D02*
G37*
G36*
X176500Y128649D02*
X176024Y128555D01*
X175198Y128002D01*
X174645Y127175D01*
X174550Y126700D01*
X176500D01*
Y128649D01*
D02*
G37*
G36*
X207600Y129400D02*
X204169D01*
X204377Y128358D01*
X205250Y127050D01*
X206558Y126177D01*
X207600Y125969D01*
Y129400D01*
D02*
G37*
G36*
X290900Y127750D02*
Y125800D01*
X292849D01*
X292755Y126276D01*
X292202Y127102D01*
X291375Y127655D01*
X290900Y127750D01*
D02*
G37*
G36*
X289900D02*
X289424Y127655D01*
X288598Y127102D01*
X288045Y126276D01*
X287950Y125800D01*
X289900D01*
Y127750D01*
D02*
G37*
G36*
X222031Y129400D02*
X218600D01*
Y125969D01*
X219642Y126177D01*
X220950Y127050D01*
X221823Y128358D01*
X222031Y129400D01*
D02*
G37*
G36*
X212031D02*
X208600D01*
Y125969D01*
X209642Y126177D01*
X210950Y127050D01*
X211823Y128358D01*
X212031Y129400D01*
D02*
G37*
G36*
X217600D02*
X214169D01*
X214377Y128358D01*
X215250Y127050D01*
X216558Y126177D01*
X217600Y125969D01*
Y129400D01*
D02*
G37*
G36*
X289900Y124800D02*
X287950D01*
X288045Y124325D01*
X288598Y123498D01*
X289424Y122945D01*
X289900Y122851D01*
Y124800D01*
D02*
G37*
G36*
X142800Y119050D02*
X142324Y118955D01*
X141498Y118402D01*
X140945Y117576D01*
X140850Y117100D01*
X142800D01*
Y119050D01*
D02*
G37*
G36*
X383487Y117837D02*
X381537D01*
Y115887D01*
X382012Y115982D01*
X382839Y116535D01*
X383392Y117362D01*
X383487Y117837D01*
D02*
G37*
G36*
X302100Y117250D02*
Y115300D01*
X304049D01*
X303955Y115776D01*
X303402Y116602D01*
X302575Y117155D01*
X302100Y117250D01*
D02*
G37*
G36*
X166200Y119050D02*
Y117100D01*
X168149D01*
X168055Y117576D01*
X167502Y118402D01*
X166675Y118955D01*
X166200Y119050D01*
D02*
G37*
G36*
X165200D02*
X164725Y118955D01*
X163898Y118402D01*
X163345Y117576D01*
X163251Y117100D01*
X165200D01*
Y119050D01*
D02*
G37*
G36*
X143800D02*
Y117100D01*
X145749D01*
X145655Y117576D01*
X145102Y118402D01*
X144275Y118955D01*
X143800Y119050D01*
D02*
G37*
G36*
X301100Y117250D02*
X300624Y117155D01*
X299798Y116602D01*
X299245Y115776D01*
X299150Y115300D01*
X301100D01*
Y117250D01*
D02*
G37*
G36*
X35300Y116900D02*
X33351D01*
X33445Y116425D01*
X33998Y115598D01*
X34824Y115045D01*
X35300Y114951D01*
Y116900D01*
D02*
G37*
G36*
X15849D02*
X13900D01*
Y114951D01*
X14376Y115045D01*
X15202Y115598D01*
X15755Y116425D01*
X15849Y116900D01*
D02*
G37*
G36*
X12900D02*
X10950D01*
X11045Y116425D01*
X11598Y115598D01*
X12425Y115045D01*
X12900Y114951D01*
Y116900D01*
D02*
G37*
G36*
X279700Y117250D02*
Y115300D01*
X281649D01*
X281555Y115776D01*
X281002Y116602D01*
X280175Y117155D01*
X279700Y117250D01*
D02*
G37*
G36*
X278700D02*
X278224Y117155D01*
X277398Y116602D01*
X276845Y115776D01*
X276750Y115300D01*
X278700D01*
Y117250D01*
D02*
G37*
G36*
X38249Y116900D02*
X36300D01*
Y114951D01*
X36775Y115045D01*
X37602Y115598D01*
X38155Y116425D01*
X38249Y116900D01*
D02*
G37*
G36*
X218600Y123775D02*
X216147D01*
X215382Y123458D01*
X215065Y122693D01*
Y120437D01*
X218600D01*
Y123775D01*
D02*
G37*
G36*
X254163Y122187D02*
Y120237D01*
X256113D01*
X256018Y120712D01*
X255465Y121539D01*
X254639Y122092D01*
X254163Y122187D01*
D02*
G37*
G36*
X122012Y121937D02*
X120063D01*
Y119987D01*
X120538Y120082D01*
X121365Y120635D01*
X121918Y121462D01*
X122012Y121937D01*
D02*
G37*
G36*
X366700Y135630D02*
X365158Y135323D01*
X363850Y134450D01*
X362977Y133142D01*
X362670Y131600D01*
X362977Y130058D01*
X363551Y129198D01*
Y123362D01*
X363551Y123361D01*
X362086Y122201D01*
X360218Y121958D01*
X359453Y122275D01*
X359049D01*
Y128416D01*
X359550Y128750D01*
X360423Y130058D01*
X360730Y131600D01*
X360423Y133142D01*
X359550Y134450D01*
X358242Y135323D01*
X356700Y135630D01*
X355158Y135323D01*
X353850Y134450D01*
X352977Y133142D01*
X352670Y131600D01*
X352977Y130058D01*
X353850Y128750D01*
X353951Y128683D01*
Y123506D01*
X352142Y122146D01*
X351951Y122128D01*
X351731Y122129D01*
X350253Y122475D01*
X349099Y122475D01*
X347800D01*
Y118637D01*
X347300D01*
Y118137D01*
X343265D01*
Y116318D01*
X343265Y115881D01*
X343376Y114700D01*
X343265Y113519D01*
X343265Y113082D01*
Y108007D01*
X343582Y107242D01*
X344347Y106925D01*
X350253D01*
X350746Y107129D01*
X351029Y107240D01*
X352782Y107042D01*
X352913Y106988D01*
X353547Y106725D01*
X353951D01*
Y99300D01*
X354145Y98325D01*
X354698Y97498D01*
X365951Y86244D01*
Y68556D01*
X355244Y57849D01*
X258300D01*
X257325Y57655D01*
X256498Y57102D01*
X238798Y39402D01*
X238245Y38576D01*
X238051Y37600D01*
Y31896D01*
X237433Y30971D01*
X237172Y29659D01*
Y24541D01*
X237433Y23229D01*
X238176Y22117D01*
X239288Y21374D01*
X240600Y21113D01*
X241912Y21374D01*
X243024Y22117D01*
X243767Y23229D01*
X244028Y24541D01*
Y29659D01*
X243767Y30971D01*
X243149Y31896D01*
Y36544D01*
X246163Y39558D01*
X247629Y38969D01*
X248051Y38618D01*
Y31896D01*
X247433Y30971D01*
X247172Y29659D01*
Y24541D01*
X247433Y23229D01*
X248176Y22117D01*
X249288Y21374D01*
X250600Y21113D01*
X251912Y21374D01*
X253024Y22117D01*
X253767Y23229D01*
X254028Y24541D01*
Y29659D01*
X253767Y30971D01*
X253149Y31896D01*
Y37744D01*
X261456Y46051D01*
X360300D01*
X361276Y46245D01*
X362102Y46798D01*
X376802Y61498D01*
X377355Y62325D01*
X377549Y63300D01*
Y106625D01*
X377953D01*
X378718Y106942D01*
X379035Y107707D01*
Y112782D01*
X379035Y113219D01*
X378924Y114400D01*
X378985Y115047D01*
X379676Y115647D01*
X380537Y115737D01*
Y118337D01*
Y120937D01*
X379676Y121027D01*
X378718Y121858D01*
X377953Y122175D01*
X375500D01*
Y118337D01*
X374500D01*
Y122175D01*
X373119D01*
X372047Y122175D01*
X370550Y121947D01*
X369053Y122175D01*
X368649Y122579D01*
Y128148D01*
X369550Y128750D01*
X370423Y130058D01*
X370730Y131600D01*
X370423Y133142D01*
X369550Y134450D01*
X368242Y135323D01*
X366700Y135630D01*
D02*
G37*
G36*
X315350Y123900D02*
X313400D01*
Y121950D01*
X313876Y122045D01*
X314702Y122598D01*
X315255Y123424D01*
X315350Y123900D01*
D02*
G37*
G36*
X312400D02*
X310451D01*
X310545Y123424D01*
X311098Y122598D01*
X311925Y122045D01*
X312400Y121950D01*
Y123900D01*
D02*
G37*
G36*
X346800Y122475D02*
X344347D01*
X343582Y122158D01*
X343265Y121393D01*
Y119137D01*
X346800D01*
Y122475D01*
D02*
G37*
G36*
X13900Y119850D02*
Y117900D01*
X15849D01*
X15755Y118376D01*
X15202Y119202D01*
X14376Y119755D01*
X13900Y119850D01*
D02*
G37*
G36*
X12900D02*
X12425Y119755D01*
X11598Y119202D01*
X11045Y118376D01*
X10950Y117900D01*
X12900D01*
Y119850D01*
D02*
G37*
G36*
X256113Y119237D02*
X254163D01*
Y117288D01*
X254639Y117382D01*
X255465Y117935D01*
X256018Y118762D01*
X256113Y119237D01*
D02*
G37*
G36*
X381537Y120786D02*
Y118837D01*
X383487D01*
X383392Y119312D01*
X382839Y120139D01*
X382012Y120692D01*
X381537Y120786D01*
D02*
G37*
G36*
X36300Y119850D02*
Y117900D01*
X38249D01*
X38155Y118376D01*
X37602Y119202D01*
X36775Y119755D01*
X36300Y119850D01*
D02*
G37*
G36*
X35300D02*
X34824Y119755D01*
X33998Y119202D01*
X33445Y118376D01*
X33351Y117900D01*
X35300D01*
Y119850D01*
D02*
G37*
%LPD*%
D10*
X83800Y122637D02*
D03*
Y114763D02*
D03*
X92800Y114663D02*
D03*
Y122537D02*
D03*
X112400Y122437D02*
D03*
Y114563D02*
D03*
X103300Y114863D02*
D03*
Y122737D02*
D03*
X246700Y119737D02*
D03*
Y111863D02*
D03*
X228100Y112063D02*
D03*
Y119937D02*
D03*
X219100Y119937D02*
D03*
Y112063D02*
D03*
X237500Y111963D02*
D03*
Y119837D02*
D03*
X347300Y118637D02*
D03*
Y110763D02*
D03*
X356500Y110563D02*
D03*
Y118437D02*
D03*
X366100Y110463D02*
D03*
Y118337D02*
D03*
X375000Y118337D02*
D03*
Y110463D02*
D03*
X375400Y234137D02*
D03*
Y226263D02*
D03*
X375276Y250768D02*
D03*
Y242894D02*
D03*
Y268740D02*
D03*
Y260866D02*
D03*
Y286713D02*
D03*
Y278839D02*
D03*
Y304685D02*
D03*
Y296811D02*
D03*
Y322657D02*
D03*
Y314783D02*
D03*
Y340630D02*
D03*
Y332756D02*
D03*
Y358602D02*
D03*
Y350728D02*
D03*
X388976Y254068D02*
D03*
Y246194D02*
D03*
Y272040D02*
D03*
Y264166D02*
D03*
Y290013D02*
D03*
Y282139D02*
D03*
Y307985D02*
D03*
Y300111D02*
D03*
Y325957D02*
D03*
Y318083D02*
D03*
Y343930D02*
D03*
Y336056D02*
D03*
Y361902D02*
D03*
Y354028D02*
D03*
X264276Y331658D02*
D03*
Y323783D02*
D03*
Y259768D02*
D03*
Y251894D02*
D03*
Y277740D02*
D03*
Y269866D02*
D03*
Y295713D02*
D03*
Y287839D02*
D03*
Y313685D02*
D03*
Y305811D02*
D03*
Y349630D02*
D03*
Y341756D02*
D03*
Y367602D02*
D03*
Y359728D02*
D03*
X252100Y240437D02*
D03*
Y232563D02*
D03*
X120700Y241237D02*
D03*
Y233363D02*
D03*
X133276Y368602D02*
D03*
Y360728D02*
D03*
Y260768D02*
D03*
Y252894D02*
D03*
Y278740D02*
D03*
Y270866D02*
D03*
Y296713D02*
D03*
Y288839D02*
D03*
Y314685D02*
D03*
Y306811D02*
D03*
Y332658D02*
D03*
Y324783D02*
D03*
Y350630D02*
D03*
Y342756D02*
D03*
X114563Y361122D02*
D03*
Y368996D02*
D03*
Y342913D02*
D03*
Y350787D02*
D03*
Y324705D02*
D03*
Y332579D02*
D03*
X114760Y306496D02*
D03*
Y314370D02*
D03*
Y288484D02*
D03*
Y296358D02*
D03*
X114957Y270177D02*
D03*
Y278051D02*
D03*
X114858Y252067D02*
D03*
Y259941D02*
D03*
X247929Y359842D02*
D03*
Y367717D02*
D03*
Y341870D02*
D03*
Y349744D02*
D03*
Y323898D02*
D03*
Y331772D02*
D03*
Y305925D02*
D03*
Y313799D02*
D03*
Y287953D02*
D03*
Y295827D02*
D03*
Y269980D02*
D03*
Y277854D02*
D03*
Y252008D02*
D03*
Y259882D02*
D03*
D12*
X101200Y187200D02*
X109100Y179300D01*
X101100Y187200D02*
X101200D01*
X100500Y187800D02*
X101100Y187200D01*
X58300Y187800D02*
X100500D01*
X110100Y175300D02*
X122152D01*
X56445Y179805D02*
Y185945D01*
X58300Y187800D01*
X109100Y176300D02*
Y179300D01*
Y176300D02*
X110100Y175300D01*
X122152D02*
X124500Y172952D01*
X134888D01*
X191048Y179805D02*
Y185048D01*
X193200Y187200D02*
X236000D01*
X191048Y185048D02*
X193200Y187200D01*
X236000D02*
X243700Y179500D01*
Y175300D02*
Y179500D01*
Y175300D02*
X254500D01*
X257748Y172052D01*
X257800D02*
X267828D01*
X269900Y169980D01*
X321898Y179805D02*
Y186598D01*
X324000Y188700D01*
X339800D01*
X349300Y179200D01*
X362600D01*
X364752Y177048D01*
Y171852D02*
Y177048D01*
Y171852D02*
X377600D01*
X386488D01*
X388400Y169940D01*
X134888Y172952D02*
X136200Y171640D01*
X112400Y122437D02*
X119563D01*
X246700Y119737D02*
X253663D01*
X375000Y118337D02*
X381037D01*
X347300Y110763D02*
X347500Y110563D01*
X356500D01*
X366100Y110463D02*
X366100Y110463D01*
X375000D01*
X366100Y131000D02*
X366700Y131600D01*
X366100Y118337D02*
Y131000D01*
X356500Y131400D02*
X356700Y131600D01*
X356500Y118437D02*
Y131400D01*
X346700Y131600D02*
X347300Y131000D01*
Y118637D02*
Y131000D01*
X237500Y111963D02*
X237600Y111863D01*
X246700D01*
X228100Y112063D02*
X228100Y112063D01*
X219100Y112063D02*
X228100D01*
X228100Y119937D02*
Y129900D01*
X237500Y119837D02*
X238100Y120437D01*
Y129900D01*
X218100Y120937D02*
X219100Y119937D01*
X218100Y120937D02*
Y129900D01*
X112100Y114863D02*
X112400Y114563D01*
X103300Y114863D02*
X112100D01*
X103300Y122737D02*
Y132400D01*
X92800Y131900D02*
X93300Y132400D01*
X92800Y122537D02*
Y131900D01*
X92700Y114763D02*
X92800Y114663D01*
X83800Y114763D02*
X92700D01*
X83300Y123137D02*
X83800Y122637D01*
X83300Y123137D02*
Y132400D01*
X237500Y103000D02*
Y111963D01*
X235738Y101238D02*
X237500Y103000D01*
X235738Y49838D02*
Y101238D01*
X225462Y51462D02*
Y98038D01*
X219100Y104400D02*
X225462Y98038D01*
X219100Y104400D02*
Y112063D01*
X220600Y46600D02*
X225462Y51462D01*
X220600Y27100D02*
Y46600D01*
X230600Y44700D02*
X235738Y49838D01*
X230600Y27100D02*
Y44700D01*
X103300Y97000D02*
Y114863D01*
Y97000D02*
X143600Y56700D01*
X193500D01*
X210600Y39600D01*
Y27100D02*
Y39600D01*
X200600Y27100D02*
Y38100D01*
X188200Y50500D02*
X200600Y38100D01*
X133300Y50500D02*
X188200D01*
X92800Y91000D02*
X133300Y50500D01*
X92800Y91000D02*
Y114663D01*
X368500Y67500D02*
Y87300D01*
X356300Y55300D02*
X368500Y67500D01*
X258300Y55300D02*
X356300D01*
X240600Y37600D02*
X258300Y55300D01*
X240600Y27100D02*
Y37600D01*
X360300Y48600D02*
X375000Y63300D01*
X260400Y48600D02*
X360300D01*
X250600Y38800D02*
X260400Y48600D01*
X250600Y27100D02*
Y38800D01*
X356500Y99300D02*
Y110563D01*
Y99300D02*
X368500Y87300D01*
X375000Y63300D02*
Y110463D01*
X257800Y130200D02*
X258100Y129900D01*
X124335Y164913D02*
X124500Y165078D01*
X123300Y163878D02*
X124335Y164913D01*
X334613Y171687D02*
X351700D01*
X329805Y176495D02*
X334613Y171687D01*
X329805Y176495D02*
Y179855D01*
X203724Y175087D02*
X231350D01*
X198955Y179855D02*
X203724Y175087D01*
X69108Y175100D02*
X97700D01*
X64353Y179855D02*
X69108Y175100D01*
X374322Y160700D02*
X377600Y163978D01*
X353951Y160700D02*
X374322D01*
X351765Y162887D02*
X353951Y160700D01*
X351765Y162887D02*
Y170887D01*
X233351Y164178D02*
X257800D01*
X231165Y166365D02*
X233351Y164178D01*
X231165Y166365D02*
Y174365D01*
X97700Y167100D02*
Y175100D01*
Y167100D02*
X99887Y164913D01*
X124335D01*
X257748Y172052D02*
X257800D01*
X379118Y162460D02*
X388400D01*
X377600Y163978D02*
X379118Y162460D01*
X259478Y162500D02*
X269900D01*
X257800Y164178D02*
X259478Y162500D01*
X135282Y165078D02*
X136200Y164160D01*
X124500Y165078D02*
X135282D01*
X113000Y200200D02*
X124500Y188700D01*
X132340D02*
X135400Y191760D01*
X124500Y188700D02*
X132340D01*
X135400Y199240D02*
Y201696D01*
X132648Y204448D02*
X135400Y201696D01*
X124500Y204448D02*
X132648D01*
X111600Y233720D02*
X111957Y233363D01*
X120700D01*
X114858Y240530D02*
Y252067D01*
X110194Y240496D02*
X119029D01*
X121100Y233563D02*
X128463D01*
X133276Y238376D01*
Y252894D01*
X246100Y199500D02*
Y201300D01*
Y199500D02*
X257800Y187800D01*
X266540D02*
X270300Y191560D01*
X257800Y187800D02*
X266540D01*
X265792Y203548D02*
X270300Y199040D01*
X257800Y203548D02*
X265792D01*
X264276Y237376D02*
Y251894D01*
X259463Y232563D02*
X264276Y237376D01*
X252100Y232563D02*
X259463D01*
X251803Y232860D02*
X252100Y232563D01*
X243100Y232860D02*
X251803D01*
X243231Y240471D02*
X243265Y240437D01*
X252100D01*
X243231Y240471D02*
X247929D01*
Y252008D01*
X198256Y179156D02*
X198955Y179855D01*
X329107Y179156D02*
X329805Y179855D01*
X377601Y187670D02*
X384840Y187600D01*
X377500Y187700D02*
X377600Y187600D01*
X373100Y187700D02*
X377500D01*
X366700Y194100D02*
X373100Y187700D01*
X366700Y194100D02*
Y197400D01*
X384840Y187600D02*
X388700Y191460D01*
X377600Y203348D02*
X384292D01*
X388700Y198940D01*
X364972Y226232D02*
X375400D01*
X364700Y225960D02*
X364972Y226232D01*
X375400D02*
Y226263D01*
X364700Y233440D02*
X365397Y234137D01*
X375400D01*
X375276Y234261D02*
X375400Y234137D01*
X375276Y234261D02*
Y242894D01*
X375400Y226263D02*
X383663D01*
X388976Y231576D01*
Y246194D01*
X375276Y268740D02*
Y278839D01*
Y286713D02*
Y296811D01*
Y304685D02*
Y314783D01*
Y322657D02*
Y332756D01*
Y340630D02*
Y350728D01*
X374876Y359002D02*
X375276Y358602D01*
X374876Y359002D02*
Y368776D01*
X375276Y250768D02*
Y260866D01*
X388976Y254068D02*
Y264166D01*
Y272040D02*
Y282139D01*
Y290013D02*
Y300111D01*
Y307985D02*
Y318083D01*
Y325957D02*
Y336056D01*
Y343930D02*
Y354028D01*
Y361902D02*
X389100Y362027D01*
Y372500D01*
X264276Y259768D02*
Y269866D01*
Y277740D02*
Y287839D01*
Y295713D02*
Y305811D01*
Y313685D02*
Y323783D01*
Y331658D02*
Y341756D01*
Y349630D02*
Y359728D01*
X263000Y373500D02*
X265000Y375500D01*
X263000Y368878D02*
Y373500D01*
Y368878D02*
X264276Y367602D01*
X133276Y260768D02*
Y270866D01*
Y278740D02*
Y288839D01*
Y296713D02*
Y306811D01*
Y314685D02*
Y324783D01*
Y332658D02*
Y342756D01*
Y350630D02*
Y360728D01*
Y368602D02*
Y373776D01*
X135500Y376000D01*
X246158Y376181D02*
X247929Y374409D01*
Y367717D02*
Y374409D01*
X112791Y377165D02*
X114661Y375295D01*
X114563Y368996D02*
X114661Y375295D01*
X114858Y259941D02*
X114957Y260039D01*
Y270177D01*
X114760Y278248D02*
X114957Y278051D01*
X114760Y278248D02*
Y288484D01*
Y296358D02*
Y306496D01*
X114563Y314567D02*
X114760Y314370D01*
X114563Y314567D02*
Y324705D01*
Y332579D02*
Y342913D01*
Y350787D02*
Y361122D01*
X112496Y377165D02*
X112791D01*
X247929Y349744D02*
Y359842D01*
Y331772D02*
Y341870D01*
Y313799D02*
Y323898D01*
Y295827D02*
Y305925D01*
Y277854D02*
Y287953D01*
Y259882D02*
Y269980D01*
D14*
X356700Y165500D02*
Y171687D01*
X236400Y169900D02*
Y175800D01*
X102700Y169200D02*
Y175100D01*
X112700Y200500D02*
X113000Y200200D01*
X112700Y200500D02*
Y218013D01*
X97750Y207150D02*
Y217900D01*
X107700Y229820D02*
X111600Y233720D01*
X107700Y218013D02*
Y229820D01*
X105369Y240399D02*
X110029D01*
X103279Y238310D02*
X105369Y240399D01*
X103279Y218059D02*
Y238310D01*
X246100Y201300D02*
X246350Y201550D01*
Y218000D01*
X231350Y207250D02*
Y218000D01*
X241350Y231110D02*
X243100Y232860D01*
X241350Y218000D02*
Y231110D01*
X236350Y218000D02*
Y238250D01*
X238440Y240340D01*
X243100D01*
X366700Y197400D02*
Y214600D01*
X351700Y203600D02*
Y214600D01*
X358940Y233440D02*
X364700D01*
X356700Y231200D02*
X358940Y233440D01*
X356700Y214600D02*
Y231200D01*
X361700Y222960D02*
X364700Y225960D01*
X361700Y214600D02*
Y222960D01*
D15*
X78435Y313140D02*
D03*
D16*
X169041Y313140D02*
D03*
D17*
X213037Y313189D02*
D03*
D19*
X299892Y313091D02*
D03*
D21*
X98257Y28300D02*
D03*
D22*
X117943D02*
D03*
D23*
X386700Y131600D02*
D03*
X258100Y129900D02*
D03*
X123300Y132400D02*
D03*
D24*
X376700Y131600D02*
D03*
X366700D02*
D03*
X356700D02*
D03*
X346700D02*
D03*
X336700D02*
D03*
X248100Y129900D02*
D03*
X238100D02*
D03*
X228100D02*
D03*
X218100D02*
D03*
X208100D02*
D03*
X113300Y132400D02*
D03*
X103300D02*
D03*
X93300D02*
D03*
X83300D02*
D03*
X73300D02*
D03*
X314005Y179855D02*
D03*
X329805D02*
D03*
X321898Y179805D02*
D03*
X183155Y179855D02*
D03*
X198955D02*
D03*
X191048Y179805D02*
D03*
X48553Y179855D02*
D03*
X64353D02*
D03*
X56445Y179805D02*
D03*
D25*
X160600Y27100D02*
D03*
D26*
X170600D02*
D03*
X180600D02*
D03*
X190600D02*
D03*
X200600D02*
D03*
X210600D02*
D03*
X220600D02*
D03*
X230600D02*
D03*
X240600D02*
D03*
X250600D02*
D03*
X260600D02*
D03*
X270600D02*
D03*
X280600D02*
D03*
X290600D02*
D03*
X300600D02*
D03*
X310600D02*
D03*
X320600D02*
D03*
X330600D02*
D03*
X340600D02*
D03*
X350600D02*
D03*
X160600Y87100D02*
D03*
X170600D02*
D03*
X180600D02*
D03*
X190600D02*
D03*
X200600D02*
D03*
X210600D02*
D03*
X220600D02*
D03*
X230600D02*
D03*
X240600D02*
D03*
X250600D02*
D03*
X260600D02*
D03*
X270600D02*
D03*
X280600D02*
D03*
X290600D02*
D03*
X300600D02*
D03*
X310600D02*
D03*
X320600D02*
D03*
X330600D02*
D03*
X340600D02*
D03*
X350600D02*
D03*
D27*
X124500Y165078D02*
D03*
Y172952D02*
D03*
Y188700D02*
D03*
Y204448D02*
D03*
X377600Y203348D02*
D03*
Y187600D02*
D03*
Y171852D02*
D03*
Y163978D02*
D03*
X257800Y203548D02*
D03*
Y187800D02*
D03*
Y172052D02*
D03*
Y164178D02*
D03*
X385827Y385827D02*
D03*
X385827Y7874D02*
D03*
X7874Y385827D02*
D03*
Y7874D02*
D03*
D28*
X341598Y263305D02*
D03*
X302213Y262720D02*
D03*
X210748Y263305D02*
D03*
X171363Y262720D02*
D03*
X76145Y263305D02*
D03*
X36760Y262720D02*
D03*
D29*
X342657Y359744D02*
D03*
X214366Y359744D02*
D03*
X298071Y359744D02*
D03*
X77500Y359744D02*
D03*
X170272Y359744D02*
D03*
X32815Y359744D02*
D03*
D30*
X306906Y287323D02*
D03*
X336906D02*
D03*
Y317323D02*
D03*
X306906D02*
D03*
X176055Y287421D02*
D03*
X206055D02*
D03*
Y317421D02*
D03*
X176055D02*
D03*
X41453Y287323D02*
D03*
X71453D02*
D03*
Y317323D02*
D03*
X41453D02*
D03*
D31*
X253663Y119737D02*
D03*
X119563Y122437D02*
D03*
X381037Y118337D02*
D03*
X356700Y165500D02*
D03*
X236400Y169900D02*
D03*
X102700Y169200D02*
D03*
X112700Y200500D02*
D03*
X97750Y207150D02*
D03*
X246100Y201300D02*
D03*
X231350Y207250D02*
D03*
X366700Y197400D02*
D03*
X351700Y203600D02*
D03*
X374876Y368776D02*
D03*
X389100Y372500D02*
D03*
X265000Y375500D02*
D03*
X135500Y376000D02*
D03*
X112496Y377165D02*
D03*
X246158Y376181D02*
D03*
X13400Y138400D02*
D03*
X24600Y127900D02*
D03*
Y106900D02*
D03*
X13400Y96400D02*
D03*
X24600Y85900D02*
D03*
X35800Y96400D02*
D03*
Y117400D02*
D03*
Y138400D02*
D03*
X47100Y85000D02*
D03*
Y106000D02*
D03*
Y127000D02*
D03*
X13400Y117400D02*
D03*
X13100Y51800D02*
D03*
X46800Y61400D02*
D03*
Y40400D02*
D03*
Y19400D02*
D03*
X35500Y72800D02*
D03*
Y51800D02*
D03*
Y30800D02*
D03*
X24300Y20300D02*
D03*
X13100Y30800D02*
D03*
X24300Y41300D02*
D03*
Y62300D02*
D03*
X13100Y72800D02*
D03*
X64400Y50500D02*
D03*
X98100Y60100D02*
D03*
Y39100D02*
D03*
Y18100D02*
D03*
X86800Y71500D02*
D03*
Y50500D02*
D03*
Y29500D02*
D03*
X75600Y19000D02*
D03*
X64400Y29500D02*
D03*
X75600Y40000D02*
D03*
Y61000D02*
D03*
X64400Y71500D02*
D03*
X273000Y14400D02*
D03*
X284200Y3900D02*
D03*
X295400Y14400D02*
D03*
X306700Y3000D02*
D03*
X228700Y15200D02*
D03*
X239900Y4700D02*
D03*
X251100Y15200D02*
D03*
X262400Y3800D02*
D03*
X182600Y15900D02*
D03*
X193800Y5400D02*
D03*
X205000Y15900D02*
D03*
X216300Y4500D02*
D03*
X139000Y16100D02*
D03*
X150200Y5600D02*
D03*
X161400Y16100D02*
D03*
X172700Y4700D02*
D03*
X367300Y45100D02*
D03*
X356100Y34600D02*
D03*
X367300Y24100D02*
D03*
X378500Y34600D02*
D03*
X389800Y23200D02*
D03*
Y44200D02*
D03*
X290400Y125300D02*
D03*
X279200Y114800D02*
D03*
X301600D02*
D03*
X312900Y124400D02*
D03*
X154500Y127100D02*
D03*
X143300Y116600D02*
D03*
X154500Y106100D02*
D03*
X165700Y116600D02*
D03*
X177000Y105200D02*
D03*
Y126200D02*
D03*
X64500Y104500D02*
D03*
X75700Y94000D02*
D03*
X86900Y83500D02*
D03*
Y104500D02*
D03*
X98200Y93100D02*
D03*
X64500Y83500D02*
D03*
X141200Y138800D02*
D03*
X151700Y150000D02*
D03*
X162200Y161200D02*
D03*
X141200D02*
D03*
X152600Y172500D02*
D03*
X162200Y138800D02*
D03*
X35200Y178900D02*
D03*
X24700Y167700D02*
D03*
X14200Y156500D02*
D03*
X35200D02*
D03*
X23800Y145200D02*
D03*
X14200Y178900D02*
D03*
X298500Y172500D02*
D03*
X288000Y161300D02*
D03*
X277500Y150100D02*
D03*
X298500D02*
D03*
X287100Y138800D02*
D03*
X277500Y172500D02*
D03*
D32*
X336613Y270648D02*
D03*
X346583Y255963D02*
D03*
X341313Y270748D02*
D03*
X346813Y270848D02*
D03*
X351913Y269548D02*
D03*
X354413Y265048D02*
D03*
X354213Y260048D02*
D03*
X350513Y256048D02*
D03*
X342413Y255748D02*
D03*
X336713Y256048D02*
D03*
X331613Y257148D02*
D03*
X328813Y261248D02*
D03*
X329113Y265948D02*
D03*
X332713Y269548D02*
D03*
X293328Y268963D02*
D03*
X289728Y265363D02*
D03*
X289428Y260663D02*
D03*
X292228Y256563D02*
D03*
X297328Y255463D02*
D03*
X303028Y255163D02*
D03*
X311128Y255463D02*
D03*
X314828Y259463D02*
D03*
X315028Y264463D02*
D03*
X312528Y268963D02*
D03*
X307428Y270263D02*
D03*
X301928Y270163D02*
D03*
X307198Y255378D02*
D03*
X297228Y270063D02*
D03*
X205763Y270648D02*
D03*
X215733Y255963D02*
D03*
X210463Y270748D02*
D03*
X215963Y270848D02*
D03*
X221063Y269548D02*
D03*
X223563Y265048D02*
D03*
X223363Y260048D02*
D03*
X219663Y256048D02*
D03*
X211563Y255748D02*
D03*
X205863Y256048D02*
D03*
X200763Y257148D02*
D03*
X197963Y261248D02*
D03*
X198263Y265948D02*
D03*
X201863Y269548D02*
D03*
X162478Y268963D02*
D03*
X158878Y265363D02*
D03*
X158578Y260663D02*
D03*
X161378Y256563D02*
D03*
X166478Y255463D02*
D03*
X172178Y255163D02*
D03*
X180278Y255463D02*
D03*
X183977Y259463D02*
D03*
X184177Y264463D02*
D03*
X181677Y268963D02*
D03*
X176577Y270263D02*
D03*
X171078Y270163D02*
D03*
X176348Y255378D02*
D03*
X166377Y270063D02*
D03*
X71160Y270648D02*
D03*
X81130Y255963D02*
D03*
X75860Y270748D02*
D03*
X81360Y270848D02*
D03*
X86460Y269548D02*
D03*
X88960Y265048D02*
D03*
X88760Y260048D02*
D03*
X85060Y256048D02*
D03*
X76960Y255748D02*
D03*
X71260Y256048D02*
D03*
X66160Y257148D02*
D03*
X63360Y261248D02*
D03*
X63660Y265948D02*
D03*
X67260Y269548D02*
D03*
X27875Y268963D02*
D03*
X24275Y265363D02*
D03*
X23975Y260663D02*
D03*
X26775Y256563D02*
D03*
X31875Y255463D02*
D03*
X37575Y255163D02*
D03*
X45675Y255463D02*
D03*
X49375Y259463D02*
D03*
X49575Y264463D02*
D03*
X47075Y268963D02*
D03*
X41975Y270263D02*
D03*
X36475Y270163D02*
D03*
X41745Y255378D02*
D03*
X31775Y270063D02*
D03*
D33*
X350458Y350644D02*
D03*
X333558Y351944D02*
D03*
X334858Y368844D02*
D03*
X351758Y367544D02*
D03*
X354958Y359744D02*
D03*
X342657Y347444D02*
D03*
X330358Y359744D02*
D03*
X342657Y372044D02*
D03*
X222166Y350644D02*
D03*
X205266Y351944D02*
D03*
X206566Y368844D02*
D03*
X223466Y367544D02*
D03*
X226666Y359744D02*
D03*
X214366Y347444D02*
D03*
X202066Y359744D02*
D03*
X214366Y372044D02*
D03*
X305871Y350644D02*
D03*
X288971Y351944D02*
D03*
X290271Y368844D02*
D03*
X307171Y367544D02*
D03*
X310371Y359744D02*
D03*
X298071Y347444D02*
D03*
X285771Y359744D02*
D03*
X298071Y372044D02*
D03*
X85300Y350644D02*
D03*
X68400Y351944D02*
D03*
X69700Y368844D02*
D03*
X86600Y367544D02*
D03*
X89800Y359744D02*
D03*
X77500Y347444D02*
D03*
X65200Y359744D02*
D03*
X77500Y372044D02*
D03*
X178072Y350644D02*
D03*
X161172Y351944D02*
D03*
X162472Y368844D02*
D03*
X179372Y367544D02*
D03*
X182572Y359744D02*
D03*
X170272Y347444D02*
D03*
X157972Y359744D02*
D03*
X170272Y372044D02*
D03*
X40615Y350644D02*
D03*
X23715Y351944D02*
D03*
X25015Y368844D02*
D03*
X41915Y367544D02*
D03*
X45115Y359744D02*
D03*
X32815Y347444D02*
D03*
X20515Y359744D02*
D03*
X32815Y372044D02*
D03*
D34*
X269900Y162500D02*
D03*
Y169980D02*
D03*
X388400Y162460D02*
D03*
Y169940D02*
D03*
X136200Y164160D02*
D03*
Y171640D02*
D03*
X135400Y199240D02*
D03*
Y191760D02*
D03*
X270300Y199040D02*
D03*
Y191560D02*
D03*
X364700Y225960D02*
D03*
Y233440D02*
D03*
X388700Y198940D02*
D03*
Y191460D02*
D03*
X243100Y232860D02*
D03*
Y240340D02*
D03*
X111600Y233720D02*
D03*
Y241200D02*
D03*
D35*
X366700Y171687D02*
D03*
X361700D02*
D03*
X356700D02*
D03*
X351700D02*
D03*
X366700Y214600D02*
D03*
X361700D02*
D03*
X356700D02*
D03*
X246350Y175087D02*
D03*
X241350D02*
D03*
X236350D02*
D03*
X231350D02*
D03*
X246350Y218000D02*
D03*
X241350D02*
D03*
X236350D02*
D03*
X112700Y175100D02*
D03*
X107700D02*
D03*
X102700D02*
D03*
X97700D02*
D03*
X112700Y218013D02*
D03*
X107700D02*
D03*
X102700D02*
D03*
D36*
X351700Y214600D02*
D03*
X231350Y218000D02*
D03*
X97700Y218013D02*
D03*
D37*
X110150Y174950D02*
D03*
X243800Y174937D02*
D03*
X364150Y171537D02*
D03*
D38*
X343888Y304913D02*
D03*
D39*
X34439Y307114D02*
D03*
M02*
