G04 Layer_Physical_Order=1*
G04 Layer_Color=255*
%FSLAX25Y25*%
%MOIN*%
G70*
G01*
G75*
%ADD10R,0.05905X0.05512*%
%ADD11R,0.05905X0.06299*%
%ADD12C,0.03000*%
%ADD13C,0.06000*%
%ADD14C,0.02000*%
%ADD15R,0.40846X1.29626*%
%ADD16R,0.40846X1.29626*%
%ADD17R,0.40846X1.29528*%
%ADD18R,0.40846X1.12173*%
%ADD19R,0.40846X1.29724*%
%ADD20R,0.40846X1.17272*%
%ADD21C,0.11811*%
%ADD22R,0.11811X0.11811*%
%ADD23R,0.05905X0.05905*%
%ADD24C,0.05905*%
%ADD25R,0.04724X0.09842*%
%ADD26O,0.04724X0.09842*%
%ADD27C,0.06000*%
%ADD28O,0.31496X0.23622*%
%ADD29C,0.31496*%
%ADD30C,0.10000*%
%ADD31C,0.03000*%
%ADD32C,0.03150*%
%ADD33C,0.02362*%
G36*
X349700Y177100D02*
X374655Y177100D01*
X375261Y175100D01*
X374716Y174736D01*
X373832Y173413D01*
X373621Y172352D01*
X377600D01*
X381579D01*
X381368Y173413D01*
X380484Y174736D01*
X379939Y175100D01*
X380545Y177100D01*
X393996Y177100D01*
Y132474D01*
X391996Y131867D01*
X391584Y132484D01*
X391584Y132484D01*
X390735Y133333D01*
Y134553D01*
X390418Y135318D01*
X389653Y135635D01*
X386917D01*
X386700Y135678D01*
X386483Y135635D01*
X383747D01*
X382982Y135318D01*
X382665Y134553D01*
Y134149D01*
X379751D01*
X379550Y134450D01*
X379249Y134651D01*
Y160269D01*
X380484Y161094D01*
X381368Y162417D01*
X381678Y163978D01*
X381368Y165539D01*
X380484Y166862D01*
Y168968D01*
X381368Y170291D01*
X381579Y171352D01*
X377600D01*
X373621D01*
X373832Y170291D01*
X374716Y168968D01*
Y166862D01*
X373832Y165539D01*
X373522Y163978D01*
X373832Y162417D01*
X374151Y161940D01*
Y134651D01*
X373850Y134450D01*
X372977Y133142D01*
X372670Y131600D01*
X372977Y130058D01*
X373850Y128750D01*
X375158Y127877D01*
X376700Y127570D01*
X378242Y127877D01*
X379550Y128750D01*
X379751Y129051D01*
X382665D01*
Y128647D01*
X382982Y127882D01*
X383747Y127565D01*
X384622D01*
Y121072D01*
X383594Y120534D01*
X382622Y120285D01*
X382012Y120692D01*
X381537Y120786D01*
Y118337D01*
Y115887D01*
X381831Y115946D01*
X382184Y115891D01*
X383901Y114977D01*
X384032Y113800D01*
X380411Y110178D01*
X272178D01*
Y125700D01*
X272178Y125700D01*
X271868Y127261D01*
X270984Y128584D01*
X270984Y128584D01*
X266784Y132784D01*
X265461Y133668D01*
X263900Y133978D01*
X263900Y133978D01*
X260349D01*
Y161070D01*
X260684Y161294D01*
X261568Y162617D01*
X261878Y164178D01*
X261568Y165739D01*
X260684Y167062D01*
Y169168D01*
X261568Y170491D01*
X261779Y171552D01*
X257800D01*
X253821D01*
X254032Y170491D01*
X254916Y169168D01*
Y167062D01*
X254032Y165739D01*
X253722Y164178D01*
X254032Y162617D01*
X254916Y161294D01*
X255251Y161070D01*
Y133935D01*
X255147D01*
X254382Y133618D01*
X254065Y132853D01*
Y132449D01*
X251151D01*
X250950Y132750D01*
X249642Y133623D01*
X248100Y133930D01*
X246558Y133623D01*
X245250Y132750D01*
X244377Y131442D01*
X244070Y129900D01*
X244377Y128358D01*
X245250Y127050D01*
X246558Y126177D01*
X248100Y125870D01*
X249642Y126177D01*
X250950Y127050D01*
X251151Y127351D01*
X254065D01*
Y126947D01*
X254382Y126182D01*
X255147Y125865D01*
X257883D01*
X258100Y125822D01*
X262211D01*
X264022Y124011D01*
Y110178D01*
X191100D01*
X189539Y109868D01*
X188216Y108984D01*
X188216Y108984D01*
X177716Y98484D01*
X176832Y97161D01*
X176522Y95600D01*
X176522Y95600D01*
Y87100D01*
Y69589D01*
X173011Y66078D01*
X132878D01*
Y126900D01*
X132568Y128461D01*
X131684Y129784D01*
X131684Y129784D01*
X127335Y134133D01*
Y135353D01*
X127018Y136118D01*
X126253Y136435D01*
X125849D01*
Y161268D01*
X126061Y161310D01*
X127384Y162194D01*
X128268Y163517D01*
X128578Y165078D01*
X128268Y166639D01*
X127384Y167962D01*
Y170068D01*
X128268Y171391D01*
X128479Y172452D01*
X124500D01*
X120521D01*
X120732Y171391D01*
X121616Y170068D01*
Y167962D01*
X120732Y166639D01*
X120422Y165078D01*
X120732Y163517D01*
X120751Y163489D01*
Y136435D01*
X120347D01*
X119582Y136118D01*
X119265Y135353D01*
Y134949D01*
X116351D01*
X116150Y135250D01*
X114842Y136123D01*
X113300Y136430D01*
X111758Y136123D01*
X110450Y135250D01*
X109577Y133942D01*
X109270Y132400D01*
X109577Y130858D01*
X110450Y129550D01*
X111758Y128677D01*
X113300Y128370D01*
X114842Y128677D01*
X116150Y129550D01*
X116351Y129851D01*
X119265D01*
Y129447D01*
X119582Y128682D01*
X120347Y128365D01*
X121567D01*
X124722Y125211D01*
Y62000D01*
Y52089D01*
X115059Y42426D01*
X114175Y41103D01*
X113864Y39542D01*
X113864Y39542D01*
Y35288D01*
X112037D01*
X111272Y34971D01*
X110955Y34205D01*
Y22395D01*
X111272Y21629D01*
X112037Y21312D01*
X123848D01*
X124613Y21629D01*
X124930Y22395D01*
Y34205D01*
X124613Y34971D01*
X123848Y35288D01*
X122021D01*
Y37853D01*
X131684Y47516D01*
X131684Y47516D01*
X132568Y48839D01*
X132878Y50400D01*
X132878Y50400D01*
Y57922D01*
X174700D01*
X174700Y57922D01*
X176261Y58232D01*
X177584Y59116D01*
X183484Y65016D01*
X184368Y66339D01*
X184678Y67900D01*
X184678Y67900D01*
Y87100D01*
Y93911D01*
X192789Y102022D01*
X267700D01*
X268100Y102101D01*
X268500Y102022D01*
X268500Y102022D01*
X382100D01*
X382100Y102022D01*
X383661Y102332D01*
X384984Y103216D01*
X391584Y109816D01*
X391996Y110433D01*
X393996Y109826D01*
X393996Y46940D01*
X393599Y46614D01*
X391602Y46002D01*
X390775Y46555D01*
X390300Y46650D01*
Y44200D01*
Y41750D01*
X390775Y41845D01*
X391602Y42398D01*
X393599Y41786D01*
X393996Y41460D01*
Y25940D01*
X393599Y25614D01*
X391602Y25002D01*
X390775Y25555D01*
X390300Y25649D01*
Y23200D01*
Y20751D01*
X390775Y20845D01*
X391602Y21398D01*
X393599Y20786D01*
X393996Y20460D01*
Y17600D01*
X375500Y17600D01*
Y-0D01*
X310036D01*
X309038Y2000D01*
X309055Y2025D01*
X309150Y2500D01*
X304251D01*
X304345Y2025D01*
X304362Y2000D01*
X303364Y-0D01*
X286463D01*
X285856Y2000D01*
X286002Y2098D01*
X286555Y2925D01*
X286649Y3400D01*
X281750D01*
X281845Y2925D01*
X282398Y2098D01*
X282544Y2000D01*
X281937Y-0D01*
X264813D01*
X264202Y1998D01*
X264755Y2825D01*
X264849Y3300D01*
X259950D01*
X260045Y2825D01*
X260598Y1998D01*
X259987Y-0D01*
X217877D01*
X217129Y2000D01*
X217276Y2145D01*
X217653Y2397D01*
X218102Y2698D01*
X218655Y3525D01*
X218749Y4000D01*
X213850D01*
X213945Y3525D01*
X214498Y2698D01*
X214948Y2397D01*
X215324Y2145D01*
X215471Y2000D01*
X214723Y-0D01*
X18400Y-0D01*
X18400Y17600D01*
X-0Y17600D01*
X-0Y188300D01*
X87600Y188300D01*
X97200Y178700D01*
X122642Y178700D01*
X122939Y176720D01*
X121616Y175836D01*
X120732Y174513D01*
X120521Y173452D01*
X124500D01*
X128479D01*
X128268Y174513D01*
X127384Y175836D01*
X126061Y176720D01*
X126358Y178700D01*
X163800Y178700D01*
X173400Y188300D01*
X218400D01*
X228200Y178500D01*
X294300Y178500D01*
X304100Y188300D01*
X338500D01*
X349700Y177100D01*
D02*
G37*
G36*
X364300Y368200D02*
Y360500D01*
X323465D01*
Y377965D01*
X323500Y378000D01*
X354500D01*
X364300Y368200D01*
D02*
G37*
G36*
X54862Y365500D02*
X14016D01*
X26516Y378000D01*
X54862D01*
Y365500D01*
D02*
G37*
%LPC*%
G36*
X89249Y50000D02*
X87300D01*
Y48050D01*
X87775Y48145D01*
X88602Y48698D01*
X89155Y49525D01*
X89249Y50000D01*
D02*
G37*
G36*
X86300D02*
X84351D01*
X84445Y49525D01*
X84998Y48698D01*
X85825Y48145D01*
X86300Y48050D01*
Y50000D01*
D02*
G37*
G36*
X66849D02*
X64900D01*
Y48050D01*
X65376Y48145D01*
X66202Y48698D01*
X66755Y49525D01*
X66849Y50000D01*
D02*
G37*
G36*
X35000Y51300D02*
X33051D01*
X33145Y50824D01*
X33698Y49998D01*
X34525Y49445D01*
X35000Y49351D01*
Y51300D01*
D02*
G37*
G36*
X37949D02*
X36000D01*
Y49351D01*
X36476Y49445D01*
X37302Y49998D01*
X37855Y50824D01*
X37949Y51300D01*
D02*
G37*
G36*
X12600D02*
X10650D01*
X10745Y50824D01*
X11298Y49998D01*
X12125Y49445D01*
X12600Y49351D01*
Y51300D01*
D02*
G37*
G36*
X15550D02*
X13600D01*
Y49351D01*
X14075Y49445D01*
X14902Y49998D01*
X15455Y50824D01*
X15550Y51300D01*
D02*
G37*
G36*
X369749Y44600D02*
X367800D01*
Y42650D01*
X368275Y42745D01*
X369102Y43298D01*
X369655Y44124D01*
X369749Y44600D01*
D02*
G37*
G36*
X366800D02*
X364850D01*
X364945Y44124D01*
X365498Y43298D01*
X366324Y42745D01*
X366800Y42650D01*
Y44600D01*
D02*
G37*
G36*
X24800Y43749D02*
Y41800D01*
X26750D01*
X26655Y42276D01*
X26102Y43102D01*
X25275Y43655D01*
X24800Y43749D01*
D02*
G37*
G36*
X389300Y46650D02*
X388825Y46555D01*
X387998Y46002D01*
X387445Y45175D01*
X387351Y44700D01*
X389300D01*
Y46650D01*
D02*
G37*
G36*
X63900Y50000D02*
X61950D01*
X62045Y49525D01*
X62598Y48698D01*
X63424Y48145D01*
X63900Y48050D01*
Y50000D01*
D02*
G37*
G36*
X367800Y47550D02*
Y45600D01*
X369749D01*
X369655Y46075D01*
X369102Y46902D01*
X368275Y47455D01*
X367800Y47550D01*
D02*
G37*
G36*
X366800D02*
X366324Y47455D01*
X365498Y46902D01*
X364945Y46075D01*
X364850Y45600D01*
X366800D01*
Y47550D01*
D02*
G37*
G36*
X100549Y59600D02*
X98600D01*
Y57651D01*
X99076Y57745D01*
X99902Y58298D01*
X100455Y59124D01*
X100549Y59600D01*
D02*
G37*
G36*
X97600D02*
X95651D01*
X95745Y59124D01*
X96298Y58298D01*
X97124Y57745D01*
X97600Y57651D01*
Y59600D01*
D02*
G37*
G36*
X36000Y54250D02*
Y52300D01*
X37949D01*
X37855Y52776D01*
X37302Y53602D01*
X36476Y54155D01*
X36000Y54250D01*
D02*
G37*
G36*
X75100Y60500D02*
X73150D01*
X73245Y60024D01*
X73798Y59198D01*
X74625Y58645D01*
X75100Y58551D01*
Y60500D01*
D02*
G37*
G36*
X49250Y60900D02*
X47300D01*
Y58951D01*
X47776Y59045D01*
X48602Y59598D01*
X49155Y60425D01*
X49250Y60900D01*
D02*
G37*
G36*
X46300D02*
X44350D01*
X44445Y60425D01*
X44998Y59598D01*
X45825Y59045D01*
X46300Y58951D01*
Y60900D01*
D02*
G37*
G36*
X78049Y60500D02*
X76100D01*
Y58551D01*
X76575Y58645D01*
X77402Y59198D01*
X77955Y60024D01*
X78049Y60500D01*
D02*
G37*
G36*
X86300Y52950D02*
X85825Y52855D01*
X84998Y52302D01*
X84445Y51476D01*
X84351Y51000D01*
X86300D01*
Y52950D01*
D02*
G37*
G36*
X64900D02*
Y51000D01*
X66849D01*
X66755Y51476D01*
X66202Y52302D01*
X65376Y52855D01*
X64900Y52950D01*
D02*
G37*
G36*
X63900D02*
X63424Y52855D01*
X62598Y52302D01*
X62045Y51476D01*
X61950Y51000D01*
X63900D01*
Y52950D01*
D02*
G37*
G36*
X87300D02*
Y51000D01*
X89249D01*
X89155Y51476D01*
X88602Y52302D01*
X87775Y52855D01*
X87300Y52950D01*
D02*
G37*
G36*
X35000Y54250D02*
X34525Y54155D01*
X33698Y53602D01*
X33145Y52776D01*
X33051Y52300D01*
X35000D01*
Y54250D01*
D02*
G37*
G36*
X13600D02*
Y52300D01*
X15550D01*
X15455Y52776D01*
X14902Y53602D01*
X14075Y54155D01*
X13600Y54250D01*
D02*
G37*
G36*
X12600D02*
X12125Y54155D01*
X11298Y53602D01*
X10745Y52776D01*
X10650Y52300D01*
X12600D01*
Y54250D01*
D02*
G37*
G36*
X355600Y34100D02*
X353650D01*
X353657Y34065D01*
X352543Y33004D01*
X352036Y32743D01*
X351912Y32826D01*
X351100Y32988D01*
Y27600D01*
X354028D01*
Y29659D01*
X353819Y30712D01*
X354569Y31593D01*
X355351Y32200D01*
X355600Y32151D01*
Y34100D01*
D02*
G37*
G36*
X380949D02*
X379000D01*
Y32151D01*
X379475Y32245D01*
X380302Y32798D01*
X380855Y33625D01*
X380949Y34100D01*
D02*
G37*
G36*
X378000D02*
X376050D01*
X376145Y33625D01*
X376698Y32798D01*
X377524Y32245D01*
X378000Y32151D01*
Y34100D01*
D02*
G37*
G36*
X355600Y37049D02*
X355124Y36955D01*
X354298Y36402D01*
X353745Y35576D01*
X353650Y35100D01*
X355600D01*
Y37049D01*
D02*
G37*
G36*
X379000D02*
Y35100D01*
X380949D01*
X380855Y35576D01*
X380302Y36402D01*
X379475Y36955D01*
X379000Y37049D01*
D02*
G37*
G36*
X378000D02*
X377524Y36955D01*
X376698Y36402D01*
X376145Y35576D01*
X376050Y35100D01*
X378000D01*
Y37049D01*
D02*
G37*
G36*
X356600D02*
Y35100D01*
X358549D01*
X358455Y35576D01*
X357902Y36402D01*
X357076Y36955D01*
X356600Y37049D01*
D02*
G37*
G36*
X12600Y33250D02*
X12125Y33155D01*
X11298Y32602D01*
X10745Y31776D01*
X10650Y31300D01*
X12600D01*
Y33250D01*
D02*
G37*
G36*
X87300Y31949D02*
Y30000D01*
X89249D01*
X89155Y30476D01*
X88602Y31302D01*
X87775Y31855D01*
X87300Y31949D01*
D02*
G37*
G36*
X86300D02*
X85825Y31855D01*
X84998Y31302D01*
X84445Y30476D01*
X84351Y30000D01*
X86300D01*
Y31949D01*
D02*
G37*
G36*
X13600Y33250D02*
Y31300D01*
X15550D01*
X15455Y31776D01*
X14902Y32602D01*
X14075Y33155D01*
X13600Y33250D01*
D02*
G37*
G36*
X358549Y34100D02*
X356600D01*
Y32151D01*
X357076Y32245D01*
X357902Y32798D01*
X358455Y33625D01*
X358549Y34100D01*
D02*
G37*
G36*
X36000Y33250D02*
Y31300D01*
X37949D01*
X37855Y31776D01*
X37302Y32602D01*
X36476Y33155D01*
X36000Y33250D01*
D02*
G37*
G36*
X35000D02*
X34525Y33155D01*
X33698Y32602D01*
X33145Y31776D01*
X33051Y31300D01*
X35000D01*
Y33250D01*
D02*
G37*
G36*
X76100Y42450D02*
Y40500D01*
X78049D01*
X77955Y40975D01*
X77402Y41802D01*
X76575Y42355D01*
X76100Y42450D01*
D02*
G37*
G36*
X75100D02*
X74625Y42355D01*
X73798Y41802D01*
X73245Y40975D01*
X73150Y40500D01*
X75100D01*
Y42450D01*
D02*
G37*
G36*
X98600Y41550D02*
Y39600D01*
X100549D01*
X100455Y40075D01*
X99902Y40902D01*
X99076Y41455D01*
X98600Y41550D01*
D02*
G37*
G36*
X46300Y42849D02*
X45825Y42755D01*
X44998Y42202D01*
X44445Y41375D01*
X44350Y40900D01*
X46300D01*
Y42849D01*
D02*
G37*
G36*
X23800Y43749D02*
X23325Y43655D01*
X22498Y43102D01*
X21945Y42276D01*
X21850Y41800D01*
X23800D01*
Y43749D01*
D02*
G37*
G36*
X389300Y43700D02*
X387351D01*
X387445Y43224D01*
X387998Y42398D01*
X388825Y41845D01*
X389300Y41750D01*
Y43700D01*
D02*
G37*
G36*
X47300Y42849D02*
Y40900D01*
X49250D01*
X49155Y41375D01*
X48602Y42202D01*
X47776Y42755D01*
X47300Y42849D01*
D02*
G37*
G36*
X46300Y39900D02*
X44350D01*
X44445Y39424D01*
X44998Y38598D01*
X45825Y38045D01*
X46300Y37951D01*
Y39900D01*
D02*
G37*
G36*
X78049Y39500D02*
X76100D01*
Y37551D01*
X76575Y37645D01*
X77402Y38198D01*
X77955Y39024D01*
X78049Y39500D01*
D02*
G37*
G36*
X75100D02*
X73150D01*
X73245Y39024D01*
X73798Y38198D01*
X74625Y37645D01*
X75100Y37551D01*
Y39500D01*
D02*
G37*
G36*
X49250Y39900D02*
X47300D01*
Y37951D01*
X47776Y38045D01*
X48602Y38598D01*
X49155Y39424D01*
X49250Y39900D01*
D02*
G37*
G36*
X97600Y41550D02*
X97124Y41455D01*
X96298Y40902D01*
X95745Y40075D01*
X95651Y39600D01*
X97600D01*
Y41550D01*
D02*
G37*
G36*
X26750Y40800D02*
X24800D01*
Y38851D01*
X25275Y38945D01*
X26102Y39498D01*
X26655Y40325D01*
X26750Y40800D01*
D02*
G37*
G36*
X23800D02*
X21850D01*
X21945Y40325D01*
X22498Y39498D01*
X23325Y38945D01*
X23800Y38851D01*
Y40800D01*
D02*
G37*
G36*
Y61800D02*
X21850D01*
X21945Y61325D01*
X22498Y60498D01*
X23325Y59945D01*
X23800Y59851D01*
Y61800D01*
D02*
G37*
G36*
X260600Y93087D02*
X259288Y92826D01*
X258176Y92083D01*
X257433Y90971D01*
X257172Y89659D01*
Y84541D01*
X257433Y83229D01*
X258176Y82117D01*
X259288Y81374D01*
X260600Y81113D01*
X261912Y81374D01*
X263024Y82117D01*
X263767Y83229D01*
X264028Y84541D01*
Y89659D01*
X263767Y90971D01*
X263024Y92083D01*
X261912Y92826D01*
X260600Y93087D01*
D02*
G37*
G36*
X250600D02*
X249288Y92826D01*
X248176Y92083D01*
X247433Y90971D01*
X247172Y89659D01*
Y84541D01*
X247433Y83229D01*
X248176Y82117D01*
X249288Y81374D01*
X250600Y81113D01*
X251912Y81374D01*
X253024Y82117D01*
X253767Y83229D01*
X254028Y84541D01*
Y89659D01*
X253767Y90971D01*
X253024Y92083D01*
X251912Y92826D01*
X250600Y93087D01*
D02*
G37*
G36*
X240600D02*
X239288Y92826D01*
X238176Y92083D01*
X237433Y90971D01*
X237172Y89659D01*
Y84541D01*
X237433Y83229D01*
X238176Y82117D01*
X239288Y81374D01*
X240600Y81113D01*
X241912Y81374D01*
X243024Y82117D01*
X243767Y83229D01*
X244028Y84541D01*
Y89659D01*
X243767Y90971D01*
X243024Y92083D01*
X241912Y92826D01*
X240600Y93087D01*
D02*
G37*
G36*
X270600D02*
X269288Y92826D01*
X268176Y92083D01*
X267433Y90971D01*
X267172Y89659D01*
Y84541D01*
X267433Y83229D01*
X268176Y82117D01*
X269288Y81374D01*
X270600Y81113D01*
X271912Y81374D01*
X273024Y82117D01*
X273767Y83229D01*
X274028Y84541D01*
Y89659D01*
X273767Y90971D01*
X273024Y92083D01*
X271912Y92826D01*
X270600Y93087D01*
D02*
G37*
G36*
X300600D02*
X299288Y92826D01*
X298176Y92083D01*
X297433Y90971D01*
X297172Y89659D01*
Y84541D01*
X297433Y83229D01*
X298176Y82117D01*
X299288Y81374D01*
X300600Y81113D01*
X301912Y81374D01*
X303024Y82117D01*
X303767Y83229D01*
X304028Y84541D01*
Y89659D01*
X303767Y90971D01*
X303024Y92083D01*
X301912Y92826D01*
X300600Y93087D01*
D02*
G37*
G36*
X290600D02*
X289288Y92826D01*
X288176Y92083D01*
X287433Y90971D01*
X287172Y89659D01*
Y84541D01*
X287433Y83229D01*
X288176Y82117D01*
X289288Y81374D01*
X290600Y81113D01*
X291912Y81374D01*
X293024Y82117D01*
X293767Y83229D01*
X294028Y84541D01*
Y89659D01*
X293767Y90971D01*
X293024Y92083D01*
X291912Y92826D01*
X290600Y93087D01*
D02*
G37*
G36*
X280600D02*
X279288Y92826D01*
X278176Y92083D01*
X277433Y90971D01*
X277172Y89659D01*
Y84541D01*
X277433Y83229D01*
X278176Y82117D01*
X279288Y81374D01*
X280600Y81113D01*
X281912Y81374D01*
X283024Y82117D01*
X283767Y83229D01*
X284028Y84541D01*
Y89659D01*
X283767Y90971D01*
X283024Y92083D01*
X281912Y92826D01*
X280600Y93087D01*
D02*
G37*
G36*
X190600D02*
X189288Y92826D01*
X188176Y92083D01*
X187433Y90971D01*
X187172Y89659D01*
Y84541D01*
X187433Y83229D01*
X188176Y82117D01*
X189288Y81374D01*
X190600Y81113D01*
X191912Y81374D01*
X193024Y82117D01*
X193767Y83229D01*
X194028Y84541D01*
Y89659D01*
X193767Y90971D01*
X193024Y92083D01*
X191912Y92826D01*
X190600Y93087D01*
D02*
G37*
G36*
X160600D02*
X159288Y92826D01*
X158176Y92083D01*
X157433Y90971D01*
X157172Y89659D01*
Y84541D01*
X157433Y83229D01*
X158176Y82117D01*
X159288Y81374D01*
X160600Y81113D01*
X161912Y81374D01*
X163024Y82117D01*
X163767Y83229D01*
X164028Y84541D01*
Y89659D01*
X163767Y90971D01*
X163024Y92083D01*
X161912Y92826D01*
X160600Y93087D01*
D02*
G37*
G36*
X89350Y83000D02*
X87400D01*
Y81050D01*
X87875Y81145D01*
X88702Y81698D01*
X89255Y82525D01*
X89350Y83000D01*
D02*
G37*
G36*
X200600Y93087D02*
X199288Y92826D01*
X198176Y92083D01*
X197433Y90971D01*
X197172Y89659D01*
Y84541D01*
X197433Y83229D01*
X198176Y82117D01*
X199288Y81374D01*
X200600Y81113D01*
X201912Y81374D01*
X203024Y82117D01*
X203767Y83229D01*
X204028Y84541D01*
Y89659D01*
X203767Y90971D01*
X203024Y92083D01*
X201912Y92826D01*
X200600Y93087D01*
D02*
G37*
G36*
X230600D02*
X229288Y92826D01*
X228176Y92083D01*
X227433Y90971D01*
X227172Y89659D01*
Y84541D01*
X227433Y83229D01*
X228176Y82117D01*
X229288Y81374D01*
X230600Y81113D01*
X231912Y81374D01*
X233024Y82117D01*
X233767Y83229D01*
X234028Y84541D01*
Y89659D01*
X233767Y90971D01*
X233024Y92083D01*
X231912Y92826D01*
X230600Y93087D01*
D02*
G37*
G36*
X220600D02*
X219288Y92826D01*
X218176Y92083D01*
X217433Y90971D01*
X217172Y89659D01*
Y84541D01*
X217433Y83229D01*
X218176Y82117D01*
X219288Y81374D01*
X220600Y81113D01*
X221912Y81374D01*
X223024Y82117D01*
X223767Y83229D01*
X224028Y84541D01*
Y89659D01*
X223767Y90971D01*
X223024Y92083D01*
X221912Y92826D01*
X220600Y93087D01*
D02*
G37*
G36*
X210600D02*
X209288Y92826D01*
X208176Y92083D01*
X207433Y90971D01*
X207172Y89659D01*
Y84541D01*
X207433Y83229D01*
X208176Y82117D01*
X209288Y81374D01*
X210600Y81113D01*
X211912Y81374D01*
X213024Y82117D01*
X213767Y83229D01*
X214028Y84541D01*
Y89659D01*
X213767Y90971D01*
X213024Y92083D01*
X211912Y92826D01*
X210600Y93087D01*
D02*
G37*
G36*
X24100Y85400D02*
X22151D01*
X22245Y84925D01*
X22798Y84098D01*
X23625Y83545D01*
X24100Y83451D01*
Y85400D01*
D02*
G37*
G36*
X49549Y84500D02*
X47600D01*
Y82551D01*
X48076Y82645D01*
X48902Y83198D01*
X49455Y84025D01*
X49549Y84500D01*
D02*
G37*
G36*
X46600D02*
X44651D01*
X44745Y84025D01*
X45298Y83198D01*
X46125Y82645D01*
X46600Y82551D01*
Y84500D01*
D02*
G37*
G36*
X27049Y85400D02*
X25100D01*
Y83451D01*
X25576Y83545D01*
X26402Y84098D01*
X26955Y84925D01*
X27049Y85400D01*
D02*
G37*
G36*
X86400Y85949D02*
X85925Y85855D01*
X85098Y85302D01*
X84545Y84475D01*
X84451Y84000D01*
X86400D01*
Y85949D01*
D02*
G37*
G36*
X65000D02*
Y84000D01*
X66949D01*
X66855Y84475D01*
X66302Y85302D01*
X65475Y85855D01*
X65000Y85949D01*
D02*
G37*
G36*
X64000D02*
X63525Y85855D01*
X62698Y85302D01*
X62145Y84475D01*
X62050Y84000D01*
X64000D01*
Y85949D01*
D02*
G37*
G36*
X330600Y93087D02*
X329288Y92826D01*
X328176Y92083D01*
X327433Y90971D01*
X327172Y89659D01*
Y84541D01*
X327433Y83229D01*
X328176Y82117D01*
X329288Y81374D01*
X330600Y81113D01*
X331912Y81374D01*
X333024Y82117D01*
X333767Y83229D01*
X334028Y84541D01*
Y89659D01*
X333767Y90971D01*
X333024Y92083D01*
X331912Y92826D01*
X330600Y93087D01*
D02*
G37*
G36*
X320600D02*
X319288Y92826D01*
X318176Y92083D01*
X317433Y90971D01*
X317172Y89659D01*
Y84541D01*
X317433Y83229D01*
X318176Y82117D01*
X319288Y81374D01*
X320600Y81113D01*
X321912Y81374D01*
X323024Y82117D01*
X323767Y83229D01*
X324028Y84541D01*
Y89659D01*
X323767Y90971D01*
X323024Y92083D01*
X321912Y92826D01*
X320600Y93087D01*
D02*
G37*
G36*
X310600D02*
X309288Y92826D01*
X308176Y92083D01*
X307433Y90971D01*
X307172Y89659D01*
Y84541D01*
X307433Y83229D01*
X308176Y82117D01*
X309288Y81374D01*
X310600Y81113D01*
X311912Y81374D01*
X313024Y82117D01*
X313767Y83229D01*
X314028Y84541D01*
Y89659D01*
X313767Y90971D01*
X313024Y92083D01*
X311912Y92826D01*
X310600Y93087D01*
D02*
G37*
G36*
X340600D02*
X339288Y92826D01*
X338176Y92083D01*
X337433Y90971D01*
X337172Y89659D01*
Y84541D01*
X337433Y83229D01*
X338176Y82117D01*
X339288Y81374D01*
X340600Y81113D01*
X341912Y81374D01*
X343024Y82117D01*
X343767Y83229D01*
X344028Y84541D01*
Y89659D01*
X343767Y90971D01*
X343024Y92083D01*
X341912Y92826D01*
X340600Y93087D01*
D02*
G37*
G36*
X174028Y86600D02*
X171100D01*
Y81212D01*
X171912Y81374D01*
X173024Y82117D01*
X173767Y83229D01*
X174028Y84541D01*
Y86600D01*
D02*
G37*
G36*
X170100D02*
X167172D01*
Y84541D01*
X167433Y83229D01*
X168176Y82117D01*
X169288Y81374D01*
X170100Y81212D01*
Y86600D01*
D02*
G37*
G36*
X350600Y93087D02*
X349288Y92826D01*
X348176Y92083D01*
X347433Y90971D01*
X347172Y89659D01*
Y84541D01*
X347433Y83229D01*
X348176Y82117D01*
X349288Y81374D01*
X350600Y81113D01*
X351912Y81374D01*
X353024Y82117D01*
X353767Y83229D01*
X354028Y84541D01*
Y89659D01*
X353767Y90971D01*
X353024Y92083D01*
X351912Y92826D01*
X350600Y93087D01*
D02*
G37*
G36*
X63900Y71000D02*
X61950D01*
X62045Y70525D01*
X62598Y69698D01*
X63424Y69145D01*
X63900Y69051D01*
Y71000D01*
D02*
G37*
G36*
X24800Y64749D02*
Y62800D01*
X26750D01*
X26655Y63275D01*
X26102Y64102D01*
X25275Y64655D01*
X24800Y64749D01*
D02*
G37*
G36*
X23800D02*
X23325Y64655D01*
X22498Y64102D01*
X21945Y63275D01*
X21850Y62800D01*
X23800D01*
Y64749D01*
D02*
G37*
G36*
X66849Y71000D02*
X64900D01*
Y69051D01*
X65376Y69145D01*
X66202Y69698D01*
X66755Y70525D01*
X66849Y71000D01*
D02*
G37*
G36*
X12600Y72300D02*
X10650D01*
X10745Y71825D01*
X11298Y70998D01*
X12125Y70445D01*
X12600Y70350D01*
Y72300D01*
D02*
G37*
G36*
X89249Y71000D02*
X87300D01*
Y69051D01*
X87775Y69145D01*
X88602Y69698D01*
X89155Y70525D01*
X89249Y71000D01*
D02*
G37*
G36*
X86300D02*
X84351D01*
X84445Y70525D01*
X84998Y69698D01*
X85825Y69145D01*
X86300Y69051D01*
Y71000D01*
D02*
G37*
G36*
X98600Y62550D02*
Y60600D01*
X100549D01*
X100455Y61076D01*
X99902Y61902D01*
X99076Y62455D01*
X98600Y62550D01*
D02*
G37*
G36*
X97600D02*
X97124Y62455D01*
X96298Y61902D01*
X95745Y61076D01*
X95651Y60600D01*
X97600D01*
Y62550D01*
D02*
G37*
G36*
X26750Y61800D02*
X24800D01*
Y59851D01*
X25275Y59945D01*
X26102Y60498D01*
X26655Y61325D01*
X26750Y61800D01*
D02*
G37*
G36*
X75100Y63450D02*
X74625Y63355D01*
X73798Y62802D01*
X73245Y61976D01*
X73150Y61500D01*
X75100D01*
Y63450D01*
D02*
G37*
G36*
X47300Y63850D02*
Y61900D01*
X49250D01*
X49155Y62375D01*
X48602Y63202D01*
X47776Y63755D01*
X47300Y63850D01*
D02*
G37*
G36*
X46300D02*
X45825Y63755D01*
X44998Y63202D01*
X44445Y62375D01*
X44350Y61900D01*
X46300D01*
Y63850D01*
D02*
G37*
G36*
X76100Y63450D02*
Y61500D01*
X78049D01*
X77955Y61976D01*
X77402Y62802D01*
X76575Y63355D01*
X76100Y63450D01*
D02*
G37*
G36*
X35000Y75249D02*
X34525Y75155D01*
X33698Y74602D01*
X33145Y73776D01*
X33051Y73300D01*
X35000D01*
Y75249D01*
D02*
G37*
G36*
X13600D02*
Y73300D01*
X15550D01*
X15455Y73776D01*
X14902Y74602D01*
X14075Y75155D01*
X13600Y75249D01*
D02*
G37*
G36*
X12600D02*
X12125Y75155D01*
X11298Y74602D01*
X10745Y73776D01*
X10650Y73300D01*
X12600D01*
Y75249D01*
D02*
G37*
G36*
X36000D02*
Y73300D01*
X37949D01*
X37855Y73776D01*
X37302Y74602D01*
X36476Y75155D01*
X36000Y75249D01*
D02*
G37*
G36*
X86400Y83000D02*
X84451D01*
X84545Y82525D01*
X85098Y81698D01*
X85925Y81145D01*
X86400Y81050D01*
Y83000D01*
D02*
G37*
G36*
X66949D02*
X65000D01*
Y81050D01*
X65475Y81145D01*
X66302Y81698D01*
X66855Y82525D01*
X66949Y83000D01*
D02*
G37*
G36*
X64000D02*
X62050D01*
X62145Y82525D01*
X62698Y81698D01*
X63525Y81145D01*
X64000Y81050D01*
Y83000D01*
D02*
G37*
G36*
X37949Y72300D02*
X36000D01*
Y70350D01*
X36476Y70445D01*
X37302Y70998D01*
X37855Y71825D01*
X37949Y72300D01*
D02*
G37*
G36*
X35000D02*
X33051D01*
X33145Y71825D01*
X33698Y70998D01*
X34525Y70445D01*
X35000Y70350D01*
Y72300D01*
D02*
G37*
G36*
X15550D02*
X13600D01*
Y70350D01*
X14075Y70445D01*
X14902Y70998D01*
X15455Y71825D01*
X15550Y72300D01*
D02*
G37*
G36*
X63900Y73949D02*
X63424Y73855D01*
X62598Y73302D01*
X62045Y72475D01*
X61950Y72000D01*
X63900D01*
Y73949D01*
D02*
G37*
G36*
X87300D02*
Y72000D01*
X89249D01*
X89155Y72475D01*
X88602Y73302D01*
X87775Y73855D01*
X87300Y73949D01*
D02*
G37*
G36*
X86300D02*
X85825Y73855D01*
X84998Y73302D01*
X84445Y72475D01*
X84351Y72000D01*
X86300D01*
Y73949D01*
D02*
G37*
G36*
X64900D02*
Y72000D01*
X66849D01*
X66755Y72475D01*
X66202Y73302D01*
X65376Y73855D01*
X64900Y73949D01*
D02*
G37*
G36*
X141449Y15600D02*
X139500D01*
Y13650D01*
X139976Y13745D01*
X140802Y14298D01*
X141355Y15124D01*
X141449Y15600D01*
D02*
G37*
G36*
X138500D02*
X136550D01*
X136645Y15124D01*
X137198Y14298D01*
X138024Y13745D01*
X138500Y13650D01*
Y15600D01*
D02*
G37*
G36*
X207450Y15400D02*
X205500D01*
Y13451D01*
X205976Y13545D01*
X206802Y14098D01*
X207355Y14924D01*
X207450Y15400D01*
D02*
G37*
G36*
X160900Y15600D02*
X158950D01*
X159045Y15124D01*
X159598Y14298D01*
X160424Y13745D01*
X160900Y13650D01*
Y15600D01*
D02*
G37*
G36*
X273500Y16849D02*
Y14900D01*
X275449D01*
X275355Y15375D01*
X274802Y16202D01*
X273975Y16755D01*
X273500Y16849D01*
D02*
G37*
G36*
X272500D02*
X272024Y16755D01*
X271198Y16202D01*
X270645Y15375D01*
X270550Y14900D01*
X272500D01*
Y16849D01*
D02*
G37*
G36*
X163849Y15600D02*
X161900D01*
Y13650D01*
X162375Y13745D01*
X163202Y14298D01*
X163755Y15124D01*
X163849Y15600D01*
D02*
G37*
G36*
X250600Y14700D02*
X248651D01*
X248745Y14224D01*
X249298Y13398D01*
X250125Y12845D01*
X250600Y12751D01*
Y14700D01*
D02*
G37*
G36*
X231150D02*
X229200D01*
Y12751D01*
X229676Y12845D01*
X230502Y13398D01*
X231055Y14224D01*
X231150Y14700D01*
D02*
G37*
G36*
X228200D02*
X226251D01*
X226345Y14224D01*
X226898Y13398D01*
X227725Y12845D01*
X228200Y12751D01*
Y14700D01*
D02*
G37*
G36*
X253550D02*
X251600D01*
Y12751D01*
X252076Y12845D01*
X252902Y13398D01*
X253455Y14224D01*
X253550Y14700D01*
D02*
G37*
G36*
X204500Y15400D02*
X202551D01*
X202645Y14924D01*
X203198Y14098D01*
X204025Y13545D01*
X204500Y13451D01*
Y15400D01*
D02*
G37*
G36*
X185049D02*
X183100D01*
Y13451D01*
X183575Y13545D01*
X184402Y14098D01*
X184955Y14924D01*
X185049Y15400D01*
D02*
G37*
G36*
X182100D02*
X180150D01*
X180245Y14924D01*
X180798Y14098D01*
X181624Y13545D01*
X182100Y13451D01*
Y15400D01*
D02*
G37*
G36*
X183100Y18350D02*
Y16400D01*
X185049D01*
X184955Y16875D01*
X184402Y17702D01*
X183575Y18255D01*
X183100Y18350D01*
D02*
G37*
G36*
X182100D02*
X181624Y18255D01*
X180798Y17702D01*
X180245Y16875D01*
X180150Y16400D01*
X182100D01*
Y18350D01*
D02*
G37*
G36*
X251600Y17650D02*
Y15700D01*
X253550D01*
X253455Y16175D01*
X252902Y17002D01*
X252076Y17555D01*
X251600Y17650D01*
D02*
G37*
G36*
X204500Y18350D02*
X204025Y18255D01*
X203198Y17702D01*
X202645Y16875D01*
X202551Y16400D01*
X204500D01*
Y18350D01*
D02*
G37*
G36*
X78049Y18500D02*
X76100D01*
Y16551D01*
X76575Y16645D01*
X77402Y17198D01*
X77955Y18024D01*
X78049Y18500D01*
D02*
G37*
G36*
X75100D02*
X73150D01*
X73245Y18024D01*
X73798Y17198D01*
X74625Y16645D01*
X75100Y16551D01*
Y18500D01*
D02*
G37*
G36*
X205500Y18350D02*
Y16400D01*
X207450D01*
X207355Y16875D01*
X206802Y17702D01*
X205976Y18255D01*
X205500Y18350D01*
D02*
G37*
G36*
X97600Y17600D02*
X95651D01*
X95745Y17124D01*
X96298Y16298D01*
X97124Y15745D01*
X97600Y15651D01*
Y17600D01*
D02*
G37*
G36*
X295900Y16849D02*
Y14900D01*
X297849D01*
X297755Y15375D01*
X297202Y16202D01*
X296375Y16755D01*
X295900Y16849D01*
D02*
G37*
G36*
X294900D02*
X294425Y16755D01*
X293598Y16202D01*
X293045Y15375D01*
X292951Y14900D01*
X294900D01*
Y16849D01*
D02*
G37*
G36*
X100549Y17600D02*
X98600D01*
Y15651D01*
X99076Y15745D01*
X99902Y16298D01*
X100455Y17124D01*
X100549Y17600D01*
D02*
G37*
G36*
X250600Y17650D02*
X250125Y17555D01*
X249298Y17002D01*
X248745Y16175D01*
X248651Y15700D01*
X250600D01*
Y17650D01*
D02*
G37*
G36*
X229200D02*
Y15700D01*
X231150D01*
X231055Y16175D01*
X230502Y17002D01*
X229676Y17555D01*
X229200Y17650D01*
D02*
G37*
G36*
X228200D02*
X227725Y17555D01*
X226898Y17002D01*
X226345Y16175D01*
X226251Y15700D01*
X228200D01*
Y17650D01*
D02*
G37*
G36*
X307200Y5449D02*
Y3500D01*
X309150D01*
X309055Y3976D01*
X308502Y4802D01*
X307676Y5355D01*
X307200Y5449D01*
D02*
G37*
G36*
X306200D02*
X305725Y5355D01*
X304898Y4802D01*
X304345Y3976D01*
X304251Y3500D01*
X306200D01*
Y5449D01*
D02*
G37*
G36*
X152649Y5100D02*
X150700D01*
Y3150D01*
X151175Y3245D01*
X152002Y3798D01*
X152555Y4625D01*
X152649Y5100D01*
D02*
G37*
G36*
X261900Y6250D02*
X261424Y6155D01*
X260598Y5602D01*
X260045Y4775D01*
X259950Y4300D01*
X261900D01*
Y6250D01*
D02*
G37*
G36*
X284700Y6350D02*
Y4400D01*
X286649D01*
X286555Y4876D01*
X286002Y5702D01*
X285175Y6255D01*
X284700Y6350D01*
D02*
G37*
G36*
X283700D02*
X283225Y6255D01*
X282398Y5702D01*
X281845Y4876D01*
X281750Y4400D01*
X283700D01*
Y6350D01*
D02*
G37*
G36*
X262900Y6250D02*
Y4300D01*
X264849D01*
X264755Y4775D01*
X264202Y5602D01*
X263375Y6155D01*
X262900Y6250D01*
D02*
G37*
G36*
X239400Y4200D02*
X237451D01*
X237545Y3725D01*
X238098Y2898D01*
X238925Y2345D01*
X239400Y2251D01*
Y4200D01*
D02*
G37*
G36*
X175150D02*
X173200D01*
Y2251D01*
X173676Y2345D01*
X174502Y2898D01*
X175055Y3725D01*
X175150Y4200D01*
D02*
G37*
G36*
X172200D02*
X170250D01*
X170345Y3725D01*
X170898Y2898D01*
X171724Y2345D01*
X172200Y2251D01*
Y4200D01*
D02*
G37*
G36*
X242350D02*
X240400D01*
Y2251D01*
X240876Y2345D01*
X241702Y2898D01*
X242255Y3725D01*
X242350Y4200D01*
D02*
G37*
G36*
X149700Y5100D02*
X147750D01*
X147845Y4625D01*
X148398Y3798D01*
X149224Y3245D01*
X149700Y3150D01*
Y5100D01*
D02*
G37*
G36*
X196249Y4900D02*
X194300D01*
Y2950D01*
X194775Y3045D01*
X195602Y3598D01*
X196155Y4425D01*
X196249Y4900D01*
D02*
G37*
G36*
X193300D02*
X191350D01*
X191445Y4425D01*
X191998Y3598D01*
X192824Y3045D01*
X193300Y2950D01*
Y4900D01*
D02*
G37*
G36*
X150700Y8049D02*
Y6100D01*
X152649D01*
X152555Y6575D01*
X152002Y7402D01*
X151175Y7955D01*
X150700Y8049D01*
D02*
G37*
G36*
X149700D02*
X149224Y7955D01*
X148398Y7402D01*
X147845Y6575D01*
X147750Y6100D01*
X149700D01*
Y8049D01*
D02*
G37*
G36*
X194300Y7850D02*
Y5900D01*
X196249D01*
X196155Y6375D01*
X195602Y7202D01*
X194775Y7755D01*
X194300Y7850D01*
D02*
G37*
G36*
X272500Y13900D02*
X270550D01*
X270645Y13424D01*
X271198Y12598D01*
X272024Y12045D01*
X272500Y11951D01*
Y13900D01*
D02*
G37*
G36*
X297849D02*
X295900D01*
Y11951D01*
X296375Y12045D01*
X297202Y12598D01*
X297755Y13424D01*
X297849Y13900D01*
D02*
G37*
G36*
X294900D02*
X292951D01*
X293045Y13424D01*
X293598Y12598D01*
X294425Y12045D01*
X294900Y11951D01*
Y13900D01*
D02*
G37*
G36*
X275449D02*
X273500D01*
Y11951D01*
X273975Y12045D01*
X274802Y12598D01*
X275355Y13424D01*
X275449Y13900D01*
D02*
G37*
G36*
X172200Y7149D02*
X171724Y7055D01*
X170898Y6502D01*
X170345Y5675D01*
X170250Y5200D01*
X172200D01*
Y7149D01*
D02*
G37*
G36*
X216800Y6949D02*
Y5000D01*
X218749D01*
X218655Y5475D01*
X218102Y6302D01*
X217276Y6855D01*
X216800Y6949D01*
D02*
G37*
G36*
X215800D02*
X215324Y6855D01*
X214498Y6302D01*
X213945Y5475D01*
X213850Y5000D01*
X215800D01*
Y6949D01*
D02*
G37*
G36*
X173200Y7149D02*
Y5200D01*
X175150D01*
X175055Y5675D01*
X174502Y6502D01*
X173676Y7055D01*
X173200Y7149D01*
D02*
G37*
G36*
X193300Y7850D02*
X192824Y7755D01*
X191998Y7202D01*
X191445Y6375D01*
X191350Y5900D01*
X193300D01*
Y7850D01*
D02*
G37*
G36*
X240400Y7149D02*
Y5200D01*
X242350D01*
X242255Y5675D01*
X241702Y6502D01*
X240876Y7055D01*
X240400Y7149D01*
D02*
G37*
G36*
X239400D02*
X238925Y7055D01*
X238098Y6502D01*
X237545Y5675D01*
X237451Y5200D01*
X239400D01*
Y7149D01*
D02*
G37*
G36*
X138500Y18550D02*
X138024Y18455D01*
X137198Y17902D01*
X136645Y17075D01*
X136550Y16600D01*
X138500D01*
Y18550D01*
D02*
G37*
G36*
X366800Y23600D02*
X364850D01*
X364945Y23124D01*
X365498Y22298D01*
X366324Y21745D01*
X366800Y21651D01*
Y23600D01*
D02*
G37*
G36*
X354028Y26600D02*
X351100D01*
Y21212D01*
X351912Y21374D01*
X353024Y22117D01*
X353767Y23229D01*
X354028Y24541D01*
Y26600D01*
D02*
G37*
G36*
X344028D02*
X341100D01*
Y21212D01*
X341912Y21374D01*
X343024Y22117D01*
X343767Y23229D01*
X344028Y24541D01*
Y26600D01*
D02*
G37*
G36*
X369749Y23600D02*
X367800D01*
Y21651D01*
X368275Y21745D01*
X369102Y22298D01*
X369655Y23124D01*
X369749Y23600D01*
D02*
G37*
G36*
X367800Y26550D02*
Y24600D01*
X369749D01*
X369655Y25076D01*
X369102Y25902D01*
X368275Y26455D01*
X367800Y26550D01*
D02*
G37*
G36*
X366800D02*
X366324Y26455D01*
X365498Y25902D01*
X364945Y25076D01*
X364850Y24600D01*
X366800D01*
Y26550D01*
D02*
G37*
G36*
X389300Y25649D02*
X388825Y25555D01*
X387998Y25002D01*
X387445Y24175D01*
X387351Y23700D01*
X389300D01*
Y25649D01*
D02*
G37*
G36*
X310600Y33087D02*
X309288Y32826D01*
X308176Y32083D01*
X307433Y30971D01*
X307172Y29659D01*
Y24541D01*
X307433Y23229D01*
X308176Y22117D01*
X309288Y21374D01*
X310600Y21113D01*
X311912Y21374D01*
X313024Y22117D01*
X313767Y23229D01*
X314028Y24541D01*
Y29659D01*
X313767Y30971D01*
X313024Y32083D01*
X311912Y32826D01*
X310600Y33087D01*
D02*
G37*
G36*
X300600D02*
X299288Y32826D01*
X298176Y32083D01*
X297433Y30971D01*
X297172Y29659D01*
Y24541D01*
X297433Y23229D01*
X298176Y22117D01*
X299288Y21374D01*
X300600Y21113D01*
X301912Y21374D01*
X303024Y22117D01*
X303767Y23229D01*
X304028Y24541D01*
Y29659D01*
X303767Y30971D01*
X303024Y32083D01*
X301912Y32826D01*
X300600Y33087D01*
D02*
G37*
G36*
X290600D02*
X289288Y32826D01*
X288176Y32083D01*
X287433Y30971D01*
X287172Y29659D01*
Y24541D01*
X287433Y23229D01*
X288176Y22117D01*
X289288Y21374D01*
X290600Y21113D01*
X291912Y21374D01*
X293024Y22117D01*
X293767Y23229D01*
X294028Y24541D01*
Y29659D01*
X293767Y30971D01*
X293024Y32083D01*
X291912Y32826D01*
X290600Y33087D01*
D02*
G37*
G36*
X320600D02*
X319288Y32826D01*
X318176Y32083D01*
X317433Y30971D01*
X317172Y29659D01*
Y24541D01*
X317433Y23229D01*
X318176Y22117D01*
X319288Y21374D01*
X320600Y21113D01*
X321912Y21374D01*
X323024Y22117D01*
X323767Y23229D01*
X324028Y24541D01*
Y29659D01*
X323767Y30971D01*
X323024Y32083D01*
X321912Y32826D01*
X320600Y33087D01*
D02*
G37*
G36*
X350100Y26600D02*
X347172D01*
Y24541D01*
X347433Y23229D01*
X348176Y22117D01*
X349288Y21374D01*
X350100Y21212D01*
Y26600D01*
D02*
G37*
G36*
X340100D02*
X337172D01*
Y24541D01*
X337433Y23229D01*
X338176Y22117D01*
X339288Y21374D01*
X340100Y21212D01*
Y26600D01*
D02*
G37*
G36*
X330600Y33087D02*
X329288Y32826D01*
X328176Y32083D01*
X327433Y30971D01*
X327172Y29659D01*
Y24541D01*
X327433Y23229D01*
X328176Y22117D01*
X329288Y21374D01*
X330600Y21113D01*
X331912Y21374D01*
X333024Y22117D01*
X333767Y23229D01*
X334028Y24541D01*
Y29659D01*
X333767Y30971D01*
X333024Y32083D01*
X331912Y32826D01*
X330600Y33087D01*
D02*
G37*
G36*
X35000Y30300D02*
X33051D01*
X33145Y29825D01*
X33698Y28998D01*
X34525Y28445D01*
X35000Y28350D01*
Y30300D01*
D02*
G37*
G36*
X15550D02*
X13600D01*
Y28350D01*
X14075Y28445D01*
X14902Y28998D01*
X15455Y29825D01*
X15550Y30300D01*
D02*
G37*
G36*
X12600D02*
X10650D01*
X10745Y29825D01*
X11298Y28998D01*
X12125Y28445D01*
X12600Y28350D01*
Y30300D01*
D02*
G37*
G36*
X37949D02*
X36000D01*
Y28350D01*
X36476Y28445D01*
X37302Y28998D01*
X37855Y29825D01*
X37949Y30300D01*
D02*
G37*
G36*
X64900Y31949D02*
Y30000D01*
X66849D01*
X66755Y30476D01*
X66202Y31302D01*
X65376Y31855D01*
X64900Y31949D01*
D02*
G37*
G36*
X63900D02*
X63424Y31855D01*
X62598Y31302D01*
X62045Y30476D01*
X61950Y30000D01*
X63900D01*
Y31949D01*
D02*
G37*
G36*
X100549Y38600D02*
X95651D01*
X95745Y38124D01*
X96298Y37298D01*
X96652Y37061D01*
X96496Y35121D01*
X96441Y34980D01*
X95563Y34805D01*
X93279Y33279D01*
X91753Y30994D01*
X91316Y28800D01*
X98257D01*
X105199D01*
X104762Y30994D01*
X103236Y33279D01*
X100952Y34805D01*
X99872Y35020D01*
X99620Y37109D01*
X99902Y37298D01*
X100455Y38124D01*
X100549Y38600D01*
D02*
G37*
G36*
X86300Y29000D02*
X84351D01*
X84445Y28525D01*
X84998Y27698D01*
X85825Y27145D01*
X86300Y27051D01*
Y29000D01*
D02*
G37*
G36*
X66849D02*
X64900D01*
Y27051D01*
X65376Y27145D01*
X66202Y27698D01*
X66755Y28525D01*
X66849Y29000D01*
D02*
G37*
G36*
X63900D02*
X61950D01*
X62045Y28525D01*
X62598Y27698D01*
X63424Y27145D01*
X63900Y27051D01*
Y29000D01*
D02*
G37*
G36*
X89249D02*
X87300D01*
Y27051D01*
X87775Y27145D01*
X88602Y27698D01*
X89155Y28525D01*
X89249Y29000D01*
D02*
G37*
G36*
X341100Y32988D02*
Y27600D01*
X344028D01*
Y29659D01*
X343767Y30971D01*
X343024Y32083D01*
X341912Y32826D01*
X341100Y32988D01*
D02*
G37*
G36*
X350100D02*
X349288Y32826D01*
X348176Y32083D01*
X347433Y30971D01*
X347172Y29659D01*
Y27600D01*
X350100D01*
Y32988D01*
D02*
G37*
G36*
X340100D02*
X339288Y32826D01*
X338176Y32083D01*
X337433Y30971D01*
X337172Y29659D01*
Y27600D01*
X340100D01*
Y32988D01*
D02*
G37*
G36*
X76100Y21450D02*
Y19500D01*
X78049D01*
X77955Y19975D01*
X77402Y20802D01*
X76575Y21355D01*
X76100Y21450D01*
D02*
G37*
G36*
X75100D02*
X74625Y21355D01*
X73798Y20802D01*
X73245Y19975D01*
X73150Y19500D01*
X75100D01*
Y21450D01*
D02*
G37*
G36*
X105199Y27800D02*
X98257D01*
X91316D01*
X91753Y25606D01*
X93279Y23321D01*
X95563Y21795D01*
X95894Y20942D01*
X96125Y19644D01*
X95745Y19075D01*
X95651Y18600D01*
X100549D01*
X100455Y19075D01*
X100112Y19589D01*
X100378Y20959D01*
X100734Y21752D01*
X100952Y21795D01*
X103236Y23321D01*
X104762Y25606D01*
X105199Y27800D01*
D02*
G37*
G36*
X46300Y21849D02*
X45825Y21755D01*
X44998Y21202D01*
X44445Y20376D01*
X44350Y19900D01*
X46300D01*
Y21849D01*
D02*
G37*
G36*
X23800Y22749D02*
X23325Y22655D01*
X22498Y22102D01*
X21945Y21275D01*
X21850Y20800D01*
X23800D01*
Y22749D01*
D02*
G37*
G36*
X389300Y22700D02*
X387351D01*
X387445Y22224D01*
X387998Y21398D01*
X388825Y20845D01*
X389300Y20751D01*
Y22700D01*
D02*
G37*
G36*
X47300Y21849D02*
Y19900D01*
X49250D01*
X49155Y20376D01*
X48602Y21202D01*
X47776Y21755D01*
X47300Y21849D01*
D02*
G37*
G36*
X161900Y18550D02*
Y16600D01*
X163849D01*
X163755Y17075D01*
X163202Y17902D01*
X162375Y18455D01*
X161900Y18550D01*
D02*
G37*
G36*
X160900D02*
X160424Y18455D01*
X159598Y17902D01*
X159045Y17075D01*
X158950Y16600D01*
X160900D01*
Y18550D01*
D02*
G37*
G36*
X139500D02*
Y16600D01*
X141449D01*
X141355Y17075D01*
X140802Y17902D01*
X139976Y18455D01*
X139500Y18550D01*
D02*
G37*
G36*
X46300Y18900D02*
X44350D01*
X44445Y18425D01*
X44998Y17598D01*
X45825Y17045D01*
X46300Y16951D01*
Y18900D01*
D02*
G37*
G36*
X26750Y19800D02*
X24800D01*
Y17851D01*
X25275Y17945D01*
X26102Y18498D01*
X26655Y19324D01*
X26750Y19800D01*
D02*
G37*
G36*
X23800D02*
X21850D01*
X21945Y19324D01*
X22498Y18498D01*
X23325Y17945D01*
X23800Y17851D01*
Y19800D01*
D02*
G37*
G36*
X49250Y18900D02*
X47300D01*
Y16951D01*
X47776Y17045D01*
X48602Y17598D01*
X49155Y18425D01*
X49250Y18900D01*
D02*
G37*
G36*
X240600Y33087D02*
X239288Y32826D01*
X238176Y32083D01*
X237433Y30971D01*
X237172Y29659D01*
Y24541D01*
X237433Y23229D01*
X238176Y22117D01*
X239288Y21374D01*
X240600Y21113D01*
X241912Y21374D01*
X243024Y22117D01*
X243767Y23229D01*
X244028Y24541D01*
Y29659D01*
X243767Y30971D01*
X243024Y32083D01*
X241912Y32826D01*
X240600Y33087D01*
D02*
G37*
G36*
X230600D02*
X229288Y32826D01*
X228176Y32083D01*
X227433Y30971D01*
X227172Y29659D01*
Y24541D01*
X227433Y23229D01*
X228176Y22117D01*
X229288Y21374D01*
X230600Y21113D01*
X231912Y21374D01*
X233024Y22117D01*
X233767Y23229D01*
X234028Y24541D01*
Y29659D01*
X233767Y30971D01*
X233024Y32083D01*
X231912Y32826D01*
X230600Y33087D01*
D02*
G37*
G36*
X220600D02*
X219288Y32826D01*
X218176Y32083D01*
X217433Y30971D01*
X217172Y29659D01*
Y24541D01*
X217433Y23229D01*
X218176Y22117D01*
X219288Y21374D01*
X220600Y21113D01*
X221912Y21374D01*
X223024Y22117D01*
X223767Y23229D01*
X224028Y24541D01*
Y29659D01*
X223767Y30971D01*
X223024Y32083D01*
X221912Y32826D01*
X220600Y33087D01*
D02*
G37*
G36*
X250600D02*
X249288Y32826D01*
X248176Y32083D01*
X247433Y30971D01*
X247172Y29659D01*
Y24541D01*
X247433Y23229D01*
X248176Y22117D01*
X249288Y21374D01*
X250600Y21113D01*
X251912Y21374D01*
X253024Y22117D01*
X253767Y23229D01*
X254028Y24541D01*
Y29659D01*
X253767Y30971D01*
X253024Y32083D01*
X251912Y32826D01*
X250600Y33087D01*
D02*
G37*
G36*
X280600D02*
X279288Y32826D01*
X278176Y32083D01*
X277433Y30971D01*
X277172Y29659D01*
Y24541D01*
X277433Y23229D01*
X278176Y22117D01*
X279288Y21374D01*
X280600Y21113D01*
X281912Y21374D01*
X283024Y22117D01*
X283767Y23229D01*
X284028Y24541D01*
Y29659D01*
X283767Y30971D01*
X283024Y32083D01*
X281912Y32826D01*
X280600Y33087D01*
D02*
G37*
G36*
X270600D02*
X269288Y32826D01*
X268176Y32083D01*
X267433Y30971D01*
X267172Y29659D01*
Y24541D01*
X267433Y23229D01*
X268176Y22117D01*
X269288Y21374D01*
X270600Y21113D01*
X271912Y21374D01*
X273024Y22117D01*
X273767Y23229D01*
X274028Y24541D01*
Y29659D01*
X273767Y30971D01*
X273024Y32083D01*
X271912Y32826D01*
X270600Y33087D01*
D02*
G37*
G36*
X260600D02*
X259288Y32826D01*
X258176Y32083D01*
X257433Y30971D01*
X257172Y29659D01*
Y24541D01*
X257433Y23229D01*
X258176Y22117D01*
X259288Y21374D01*
X260600Y21113D01*
X261912Y21374D01*
X263024Y22117D01*
X263767Y23229D01*
X264028Y24541D01*
Y29659D01*
X263767Y30971D01*
X263024Y32083D01*
X261912Y32826D01*
X260600Y33087D01*
D02*
G37*
G36*
X170600D02*
X169288Y32826D01*
X168176Y32083D01*
X167433Y30971D01*
X167172Y29659D01*
Y24541D01*
X167433Y23229D01*
X168176Y22117D01*
X169288Y21374D01*
X170600Y21113D01*
X171912Y21374D01*
X173024Y22117D01*
X173767Y23229D01*
X174028Y24541D01*
Y29659D01*
X173767Y30971D01*
X173024Y32083D01*
X171912Y32826D01*
X170600Y33087D01*
D02*
G37*
G36*
X162962Y33104D02*
X158238D01*
X157472Y32787D01*
X157155Y32021D01*
Y22179D01*
X157472Y21413D01*
X158238Y21096D01*
X162962D01*
X163728Y21413D01*
X164045Y22179D01*
Y32021D01*
X163728Y32787D01*
X162962Y33104D01*
D02*
G37*
G36*
X24800Y22749D02*
Y20800D01*
X26750D01*
X26655Y21275D01*
X26102Y22102D01*
X25275Y22655D01*
X24800Y22749D01*
D02*
G37*
G36*
X180600Y33087D02*
X179288Y32826D01*
X178176Y32083D01*
X177433Y30971D01*
X177172Y29659D01*
Y24541D01*
X177433Y23229D01*
X178176Y22117D01*
X179288Y21374D01*
X180600Y21113D01*
X181912Y21374D01*
X183024Y22117D01*
X183767Y23229D01*
X184028Y24541D01*
Y29659D01*
X183767Y30971D01*
X183024Y32083D01*
X181912Y32826D01*
X180600Y33087D01*
D02*
G37*
G36*
X210600D02*
X209288Y32826D01*
X208176Y32083D01*
X207433Y30971D01*
X207172Y29659D01*
Y24541D01*
X207433Y23229D01*
X208176Y22117D01*
X209288Y21374D01*
X210600Y21113D01*
X211912Y21374D01*
X213024Y22117D01*
X213767Y23229D01*
X214028Y24541D01*
Y29659D01*
X213767Y30971D01*
X213024Y32083D01*
X211912Y32826D01*
X210600Y33087D01*
D02*
G37*
G36*
X200600D02*
X199288Y32826D01*
X198176Y32083D01*
X197433Y30971D01*
X197172Y29659D01*
Y24541D01*
X197433Y23229D01*
X198176Y22117D01*
X199288Y21374D01*
X200600Y21113D01*
X201912Y21374D01*
X203024Y22117D01*
X203767Y23229D01*
X204028Y24541D01*
Y29659D01*
X203767Y30971D01*
X203024Y32083D01*
X201912Y32826D01*
X200600Y33087D01*
D02*
G37*
G36*
X190600D02*
X189288Y32826D01*
X188176Y32083D01*
X187433Y30971D01*
X187172Y29659D01*
Y24541D01*
X187433Y23229D01*
X188176Y22117D01*
X189288Y21374D01*
X190600Y21113D01*
X191912Y21374D01*
X193024Y22117D01*
X193767Y23229D01*
X194028Y24541D01*
Y29659D01*
X193767Y30971D01*
X193024Y32083D01*
X191912Y32826D01*
X190600Y33087D01*
D02*
G37*
G36*
X87400Y85949D02*
Y84000D01*
X89350D01*
X89255Y84475D01*
X88702Y85302D01*
X87875Y85855D01*
X87400Y85949D01*
D02*
G37*
G36*
X321945Y150287D02*
X318409D01*
Y146555D01*
X320862D01*
X321628Y146872D01*
X321945Y147638D01*
Y150287D01*
D02*
G37*
G36*
X191433Y150287D02*
X187898D01*
Y146555D01*
X190350D01*
X191116Y146872D01*
X191433Y147638D01*
Y150287D01*
D02*
G37*
G36*
X57574Y150189D02*
X54039D01*
Y146457D01*
X56492D01*
X57257Y146774D01*
X57574Y147539D01*
Y150189D01*
D02*
G37*
G36*
X151200Y149500D02*
X149250D01*
X149345Y149024D01*
X149898Y148198D01*
X150724Y147645D01*
X151200Y147550D01*
Y149500D01*
D02*
G37*
G36*
X279949Y149600D02*
X278000D01*
Y147651D01*
X278475Y147745D01*
X279302Y148298D01*
X279855Y149125D01*
X279949Y149600D01*
D02*
G37*
G36*
X277000D02*
X275050D01*
X275145Y149125D01*
X275698Y148298D01*
X276524Y147745D01*
X277000Y147651D01*
Y149600D01*
D02*
G37*
G36*
X154149Y149500D02*
X152200D01*
Y147550D01*
X152675Y147645D01*
X153502Y148198D01*
X154055Y149024D01*
X154149Y149500D01*
D02*
G37*
G36*
X26250Y144700D02*
X24300D01*
Y142751D01*
X24776Y142845D01*
X25602Y143398D01*
X26155Y144225D01*
X26250Y144700D01*
D02*
G37*
G36*
X23300D02*
X21350D01*
X21445Y144225D01*
X21998Y143398D01*
X22825Y142845D01*
X23300Y142751D01*
Y144700D01*
D02*
G37*
G36*
X346860Y145832D02*
X344407D01*
X343642Y145515D01*
X343325Y144750D01*
Y142100D01*
X346860D01*
Y145832D01*
D02*
G37*
G36*
X87160Y148232D02*
X84707D01*
X83942Y147915D01*
X83625Y147150D01*
Y144500D01*
X87160D01*
Y148232D01*
D02*
G37*
G36*
X24300Y147650D02*
Y145700D01*
X26250D01*
X26155Y146176D01*
X25602Y147002D01*
X24776Y147555D01*
X24300Y147650D01*
D02*
G37*
G36*
X23300D02*
X22825Y147555D01*
X21998Y147002D01*
X21445Y146176D01*
X21350Y145700D01*
X23300D01*
Y147650D01*
D02*
G37*
G36*
X222260Y149132D02*
X219807D01*
X219042Y148815D01*
X218725Y148050D01*
Y145400D01*
X222260D01*
Y149132D01*
D02*
G37*
G36*
X299000Y152550D02*
Y150600D01*
X300950D01*
X300855Y151075D01*
X300302Y151902D01*
X299476Y152455D01*
X299000Y152550D01*
D02*
G37*
G36*
X298000D02*
X297524Y152455D01*
X296698Y151902D01*
X296145Y151075D01*
X296051Y150600D01*
X298000D01*
Y152550D01*
D02*
G37*
G36*
X278000D02*
Y150600D01*
X279949D01*
X279855Y151075D01*
X279302Y151902D01*
X278475Y152455D01*
X278000Y152550D01*
D02*
G37*
G36*
X56492Y154921D02*
X54039D01*
Y151189D01*
X57574D01*
Y153839D01*
X57257Y154604D01*
X56492Y154921D01*
D02*
G37*
G36*
X13700Y156000D02*
X11750D01*
X11845Y155525D01*
X12398Y154698D01*
X13225Y154145D01*
X13700Y154051D01*
Y156000D01*
D02*
G37*
G36*
X320862Y155019D02*
X318409D01*
Y151287D01*
X321945D01*
Y153937D01*
X321628Y154702D01*
X320862Y155019D01*
D02*
G37*
G36*
X190350Y155019D02*
X187898D01*
Y151287D01*
X191433D01*
Y153937D01*
X191116Y154702D01*
X190350Y155019D01*
D02*
G37*
G36*
X102700Y171749D02*
X101725Y171555D01*
X100898Y171002D01*
X100345Y170176D01*
X100151Y169200D01*
Y164275D01*
X99747D01*
X98982Y163958D01*
X98665Y163193D01*
Y158118D01*
X98665Y157681D01*
X98776Y156500D01*
X98665Y155319D01*
X98665Y154882D01*
Y150080D01*
X98539Y149674D01*
X97179Y148232D01*
X97178Y148232D01*
X92187D01*
X91422Y147915D01*
X91378Y147915D01*
X90613Y148232D01*
X88160D01*
Y144000D01*
Y139768D01*
X90613D01*
X91378Y140085D01*
X91422Y140085D01*
X92187Y139768D01*
X98093D01*
X98858Y140085D01*
X100751Y139428D01*
Y135451D01*
X100450Y135250D01*
X99577Y133942D01*
X99270Y132400D01*
X99577Y130858D01*
X100450Y129550D01*
X101758Y128677D01*
X103300Y128370D01*
X104842Y128677D01*
X106150Y129550D01*
X107023Y130858D01*
X107330Y132400D01*
X107023Y133942D01*
X106150Y135250D01*
X105849Y135451D01*
Y144000D01*
Y148806D01*
X106418Y149042D01*
X106735Y149807D01*
Y154882D01*
X106735Y155319D01*
X106624Y156500D01*
X106735Y157681D01*
X106735Y158118D01*
Y163193D01*
X106418Y163958D01*
X105653Y164275D01*
X105249D01*
Y169200D01*
X105055Y170176D01*
X104502Y171002D01*
X103675Y171555D01*
X102700Y171749D01*
D02*
G37*
G36*
X300950Y149600D02*
X299000D01*
Y147651D01*
X299476Y147745D01*
X300302Y148298D01*
X300855Y149125D01*
X300950Y149600D01*
D02*
G37*
G36*
X298000D02*
X296051D01*
X296145Y149125D01*
X296698Y148298D01*
X297524Y147745D01*
X298000Y147651D01*
Y149600D01*
D02*
G37*
G36*
X236400Y172449D02*
X235424Y172255D01*
X234598Y171702D01*
X234045Y170876D01*
X233851Y169900D01*
Y165175D01*
X233347D01*
X232582Y164858D01*
X232265Y164093D01*
Y159018D01*
X232265Y158581D01*
X232376Y157400D01*
X232265Y156219D01*
X232265Y155782D01*
Y150817D01*
X232265Y150707D01*
X230779Y149132D01*
X230779Y149132D01*
X227287D01*
X226522Y148815D01*
X226478Y148815D01*
X225713Y149132D01*
X223260D01*
Y144900D01*
Y140668D01*
X225713D01*
X226478Y140985D01*
X226522Y140985D01*
X227287Y140668D01*
X233193D01*
X234451Y139024D01*
Y131554D01*
X234377Y131442D01*
X234070Y129900D01*
X234377Y128358D01*
X235250Y127050D01*
X236558Y126177D01*
X238100Y125870D01*
X239642Y126177D01*
X240950Y127050D01*
X241823Y128358D01*
X242130Y129900D01*
X241823Y131442D01*
X240950Y132750D01*
X239642Y133623D01*
X239549Y133642D01*
Y149747D01*
X240018Y149942D01*
X240335Y150707D01*
Y155782D01*
X240335Y156219D01*
X240224Y157400D01*
X240335Y158581D01*
X240335Y159018D01*
Y164093D01*
X240018Y164858D01*
X239253Y165175D01*
X238949D01*
Y169900D01*
X238755Y170876D01*
X238202Y171702D01*
X237375Y172255D01*
X236400Y172449D01*
D02*
G37*
G36*
X277000Y152550D02*
X276524Y152455D01*
X275698Y151902D01*
X275145Y151075D01*
X275050Y150600D01*
X277000D01*
Y152550D01*
D02*
G37*
G36*
X152200Y152450D02*
Y150500D01*
X154149D01*
X154055Y150976D01*
X153502Y151802D01*
X152675Y152355D01*
X152200Y152450D01*
D02*
G37*
G36*
X151200D02*
X150724Y152355D01*
X149898Y151802D01*
X149345Y150976D01*
X149250Y150500D01*
X151200D01*
Y152450D01*
D02*
G37*
G36*
X38249Y137900D02*
X36300D01*
Y135951D01*
X36775Y136045D01*
X37602Y136598D01*
X38155Y137425D01*
X38249Y137900D01*
D02*
G37*
G36*
X35300D02*
X33351D01*
X33445Y137425D01*
X33998Y136598D01*
X34824Y136045D01*
X35300Y135951D01*
Y137900D01*
D02*
G37*
G36*
X15849D02*
X13900D01*
Y135951D01*
X14376Y136045D01*
X15202Y136598D01*
X15755Y137425D01*
X15849Y137900D01*
D02*
G37*
G36*
X140700Y138300D02*
X138751D01*
X138845Y137824D01*
X139398Y136998D01*
X140225Y136445D01*
X140700Y136351D01*
Y138300D01*
D02*
G37*
G36*
X164649D02*
X162700D01*
Y136351D01*
X163175Y136445D01*
X164002Y136998D01*
X164555Y137824D01*
X164649Y138300D01*
D02*
G37*
G36*
X161700D02*
X159750D01*
X159845Y137824D01*
X160398Y136998D01*
X161224Y136445D01*
X161700Y136351D01*
Y138300D01*
D02*
G37*
G36*
X143649D02*
X141700D01*
Y136351D01*
X142175Y136445D01*
X143002Y136998D01*
X143555Y137824D01*
X143649Y138300D01*
D02*
G37*
G36*
X82800Y136331D02*
X81758Y136123D01*
X80450Y135250D01*
X79577Y133942D01*
X79369Y132900D01*
X82800D01*
Y136331D01*
D02*
G37*
G36*
X337200Y135531D02*
Y132100D01*
X340631D01*
X340423Y133142D01*
X339550Y134450D01*
X338242Y135323D01*
X337200Y135531D01*
D02*
G37*
G36*
X336200Y135531D02*
X335158Y135323D01*
X333850Y134450D01*
X332977Y133142D01*
X332769Y132100D01*
X336200D01*
Y135531D01*
D02*
G37*
G36*
X72800Y136331D02*
X71758Y136123D01*
X70450Y135250D01*
X69577Y133942D01*
X69369Y132900D01*
X72800D01*
Y136331D01*
D02*
G37*
G36*
X12900Y137900D02*
X10950D01*
X11045Y137425D01*
X11598Y136598D01*
X12425Y136045D01*
X12900Y135951D01*
Y137900D01*
D02*
G37*
G36*
X83800Y136331D02*
Y132900D01*
X87231D01*
X87023Y133942D01*
X86150Y135250D01*
X84842Y136123D01*
X83800Y136331D01*
D02*
G37*
G36*
X73800D02*
Y132900D01*
X77231D01*
X77023Y133942D01*
X76150Y135250D01*
X74842Y136123D01*
X73800Y136331D01*
D02*
G37*
G36*
X162700Y141250D02*
Y139300D01*
X164649D01*
X164555Y139776D01*
X164002Y140602D01*
X163175Y141155D01*
X162700Y141250D01*
D02*
G37*
G36*
X161700D02*
X161224Y141155D01*
X160398Y140602D01*
X159845Y139776D01*
X159750Y139300D01*
X161700D01*
Y141250D01*
D02*
G37*
G36*
X141700D02*
Y139300D01*
X143649D01*
X143555Y139776D01*
X143002Y140602D01*
X142175Y141155D01*
X141700Y141250D01*
D02*
G37*
G36*
X286600D02*
X286124Y141155D01*
X285298Y140602D01*
X284745Y139776D01*
X284650Y139300D01*
X286600D01*
Y141250D01*
D02*
G37*
G36*
X222260Y144400D02*
X218725D01*
Y141750D01*
X219042Y140985D01*
X219807Y140668D01*
X222260D01*
Y144400D01*
D02*
G37*
G36*
X87160Y143500D02*
X83625D01*
Y140850D01*
X83942Y140085D01*
X84707Y139768D01*
X87160D01*
Y143500D01*
D02*
G37*
G36*
X287600Y141250D02*
Y139300D01*
X289549D01*
X289455Y139776D01*
X288902Y140602D01*
X288075Y141155D01*
X287600Y141250D01*
D02*
G37*
G36*
X12900Y140849D02*
X12425Y140755D01*
X11598Y140202D01*
X11045Y139375D01*
X10950Y138900D01*
X12900D01*
Y140849D01*
D02*
G37*
G36*
X289549Y138300D02*
X287600D01*
Y136351D01*
X288075Y136445D01*
X288902Y136998D01*
X289455Y137824D01*
X289549Y138300D01*
D02*
G37*
G36*
X286600D02*
X284650D01*
X284745Y137824D01*
X285298Y136998D01*
X286124Y136445D01*
X286600Y136351D01*
Y138300D01*
D02*
G37*
G36*
X13900Y140849D02*
Y138900D01*
X15849D01*
X15755Y139375D01*
X15202Y140202D01*
X14376Y140755D01*
X13900Y140849D01*
D02*
G37*
G36*
X140700Y141250D02*
X140225Y141155D01*
X139398Y140602D01*
X138845Y139776D01*
X138751Y139300D01*
X140700D01*
Y141250D01*
D02*
G37*
G36*
X36300Y140849D02*
Y138900D01*
X38249D01*
X38155Y139375D01*
X37602Y140202D01*
X36775Y140755D01*
X36300Y140849D01*
D02*
G37*
G36*
X35300D02*
X34824Y140755D01*
X33998Y140202D01*
X33445Y139375D01*
X33351Y138900D01*
X35300D01*
Y140849D01*
D02*
G37*
G36*
X16649Y156000D02*
X14700D01*
Y154051D01*
X15176Y154145D01*
X16002Y154698D01*
X16555Y155525D01*
X16649Y156000D01*
D02*
G37*
G36*
X153100Y174950D02*
Y173000D01*
X155050D01*
X154955Y173476D01*
X154402Y174302D01*
X153576Y174855D01*
X153100Y174950D01*
D02*
G37*
G36*
X152100D02*
X151625Y174855D01*
X150798Y174302D01*
X150245Y173476D01*
X150151Y173000D01*
X152100D01*
Y174950D01*
D02*
G37*
G36*
X258300Y176031D02*
Y172552D01*
X261779D01*
X261568Y173613D01*
X260684Y174936D01*
X259361Y175820D01*
X258300Y176031D01*
D02*
G37*
G36*
X277000Y174950D02*
X276524Y174855D01*
X275698Y174302D01*
X275145Y173476D01*
X275050Y173000D01*
X277000D01*
Y174950D01*
D02*
G37*
G36*
X299000D02*
Y173000D01*
X300950D01*
X300855Y173476D01*
X300302Y174302D01*
X299476Y174855D01*
X299000Y174950D01*
D02*
G37*
G36*
X298000D02*
X297524Y174855D01*
X296698Y174302D01*
X296145Y173476D01*
X296051Y173000D01*
X298000D01*
Y174950D01*
D02*
G37*
G36*
X278000D02*
Y173000D01*
X279949D01*
X279855Y173476D01*
X279302Y174302D01*
X278475Y174855D01*
X278000Y174950D01*
D02*
G37*
G36*
X277000Y172000D02*
X275050D01*
X275145Y171525D01*
X275698Y170698D01*
X276524Y170145D01*
X277000Y170051D01*
Y172000D01*
D02*
G37*
G36*
X155050D02*
X153100D01*
Y170051D01*
X153576Y170145D01*
X154402Y170698D01*
X154955Y171525D01*
X155050Y172000D01*
D02*
G37*
G36*
X152100D02*
X150151D01*
X150245Y171525D01*
X150798Y170698D01*
X151625Y170145D01*
X152100Y170051D01*
Y172000D01*
D02*
G37*
G36*
X279949D02*
X278000D01*
Y170051D01*
X278475Y170145D01*
X279302Y170698D01*
X279855Y171525D01*
X279949Y172000D01*
D02*
G37*
G36*
X257300Y176031D02*
X256239Y175820D01*
X254916Y174936D01*
X254032Y173613D01*
X253821Y172552D01*
X257300D01*
Y176031D01*
D02*
G37*
G36*
X300950Y172000D02*
X299000D01*
Y170051D01*
X299476Y170145D01*
X300302Y170698D01*
X300855Y171525D01*
X300950Y172000D01*
D02*
G37*
G36*
X298000D02*
X296051D01*
X296145Y171525D01*
X296698Y170698D01*
X297524Y170145D01*
X298000Y170051D01*
Y172000D01*
D02*
G37*
G36*
X34700Y181350D02*
X34225Y181255D01*
X33398Y180702D01*
X32845Y179876D01*
X32750Y179400D01*
X34700D01*
Y181350D01*
D02*
G37*
G36*
X14700D02*
Y179400D01*
X16649D01*
X16555Y179876D01*
X16002Y180702D01*
X15176Y181255D01*
X14700Y181350D01*
D02*
G37*
G36*
X13700D02*
X13225Y181255D01*
X12398Y180702D01*
X11845Y179876D01*
X11750Y179400D01*
X13700D01*
Y181350D01*
D02*
G37*
G36*
X35700D02*
Y179400D01*
X37650D01*
X37555Y179876D01*
X37002Y180702D01*
X36176Y181255D01*
X35700Y181350D01*
D02*
G37*
G36*
X64353Y183885D02*
X62810Y183579D01*
X61503Y182705D01*
X59295Y182655D01*
X57988Y183529D01*
X56945Y183736D01*
Y179805D01*
Y175874D01*
X57988Y176082D01*
X59295Y176955D01*
X59872Y176968D01*
X61804Y175119D01*
Y172302D01*
X61804Y172302D01*
X60213Y170832D01*
X57760D01*
Y166600D01*
Y162368D01*
X60213D01*
X60978Y162685D01*
X61022Y162685D01*
X61787Y162368D01*
X67693D01*
X68458Y162685D01*
X68775Y163450D01*
Y169750D01*
X68458Y170515D01*
X67693Y170832D01*
X66902D01*
Y176804D01*
X67203Y177005D01*
X68076Y178313D01*
X68383Y179855D01*
X68076Y181397D01*
X67203Y182705D01*
X65895Y183579D01*
X64353Y183885D01*
D02*
G37*
G36*
X329805Y183885D02*
X328263Y183579D01*
X326956Y182705D01*
X324748Y182655D01*
X323440Y183528D01*
X322398Y183736D01*
Y179805D01*
Y175874D01*
X323440Y176082D01*
X324748Y176955D01*
X325325Y176968D01*
X327256Y175119D01*
Y169150D01*
X325348Y168310D01*
X324813Y168532D01*
X322360D01*
Y164300D01*
Y160068D01*
X324813D01*
X325578Y160385D01*
X325622Y160385D01*
X326387Y160068D01*
X332293D01*
X333058Y160385D01*
X333375Y161150D01*
Y167450D01*
X333058Y168215D01*
X332354Y168507D01*
Y176804D01*
X332655Y177005D01*
X333529Y178313D01*
X333836Y179855D01*
X333529Y181397D01*
X332655Y182705D01*
X331348Y183579D01*
X329805Y183885D01*
D02*
G37*
G36*
X198955Y183885D02*
X197413Y183579D01*
X196105Y182705D01*
X193897Y182655D01*
X192590Y183528D01*
X191548Y183736D01*
Y179805D01*
Y175874D01*
X192590Y176082D01*
X193897Y176955D01*
X194474Y176968D01*
X196406Y175119D01*
Y170078D01*
X194913Y168532D01*
X192460D01*
Y164300D01*
Y160068D01*
X194913D01*
X195678Y160385D01*
X195722Y160385D01*
X196487Y160068D01*
X202393D01*
X203158Y160385D01*
X203475Y161150D01*
Y167450D01*
X203158Y168215D01*
X202393Y168532D01*
X201504D01*
Y176804D01*
X201805Y177005D01*
X202678Y178313D01*
X202985Y179855D01*
X202678Y181397D01*
X201805Y182705D01*
X200497Y183579D01*
X198955Y183885D01*
D02*
G37*
G36*
X48553Y183885D02*
X47010Y183579D01*
X45703Y182705D01*
X44829Y181397D01*
X44523Y179855D01*
X44593Y179500D01*
X41796Y176703D01*
X41243Y175876D01*
X41049Y174901D01*
Y173327D01*
X40646D01*
X39880Y173010D01*
X39563Y172244D01*
Y167169D01*
X39563Y166732D01*
X39674Y165551D01*
X39563Y164370D01*
X39563Y163934D01*
Y158858D01*
X39880Y158093D01*
X40646Y157776D01*
X41049D01*
Y150787D01*
X41148Y150293D01*
Y137503D01*
X41342Y136528D01*
X41895Y135701D01*
X46188Y131407D01*
X46168Y130743D01*
X45697Y129069D01*
X45298Y128802D01*
X44745Y127975D01*
X44651Y127500D01*
X47100D01*
Y127000D01*
X47600D01*
Y124550D01*
X48076Y124645D01*
X48902Y125198D01*
X49169Y125597D01*
X50843Y126068D01*
X51507Y126088D01*
X55398Y122198D01*
X56225Y121645D01*
X57200Y121451D01*
X90100D01*
X91075Y121645D01*
X91902Y122198D01*
X95102Y125398D01*
X95655Y126225D01*
X95849Y127200D01*
Y129349D01*
X96150Y129550D01*
X97023Y130858D01*
X97330Y132400D01*
X97023Y133942D01*
X96150Y135250D01*
X94842Y136123D01*
X93300Y136430D01*
X91758Y136123D01*
X90450Y135250D01*
X89577Y133942D01*
X89270Y132400D01*
X89577Y130858D01*
X90450Y129550D01*
X90092Y127596D01*
X89044Y126549D01*
X85914D01*
X84305Y127492D01*
X84305Y127492D01*
X84305D01*
X84201Y128549D01*
X84323Y128573D01*
X84842Y128677D01*
X86150Y129550D01*
X87023Y130858D01*
X87231Y131900D01*
X83300D01*
X79369D01*
X79577Y130858D01*
X80450Y129550D01*
X81758Y128677D01*
X82277Y128573D01*
X82399Y128549D01*
X82295Y127492D01*
X82295D01*
X82295Y127492D01*
X80686Y126549D01*
X75914D01*
X74305Y127492D01*
X74305Y127492D01*
X74305D01*
X74201Y128549D01*
X74323Y128573D01*
X74842Y128677D01*
X76150Y129550D01*
X77023Y130858D01*
X77231Y131900D01*
X73300D01*
X69369D01*
X69577Y130858D01*
X70450Y129550D01*
X71758Y128677D01*
X72277Y128573D01*
X72399Y128549D01*
X72295Y127492D01*
X72295D01*
X72295Y127492D01*
X70686Y126549D01*
X58256D01*
X46246Y138559D01*
Y146457D01*
X49012D01*
X49777Y146774D01*
X49821Y146774D01*
X50587Y146457D01*
X53039D01*
Y150689D01*
Y154921D01*
X50587D01*
X49821Y154604D01*
X49777Y154604D01*
X49012Y154921D01*
X46147D01*
Y157776D01*
X46551D01*
X47317Y158093D01*
X47634Y158858D01*
Y163933D01*
X47634Y164370D01*
X47522Y165551D01*
X47634Y166732D01*
X47634Y167169D01*
Y172244D01*
X47317Y173010D01*
X47381Y174219D01*
X48553Y175825D01*
X50095Y176132D01*
X51402Y177005D01*
X53596Y176955D01*
X54903Y176082D01*
X55945Y175874D01*
Y179805D01*
Y183736D01*
X54903Y183529D01*
X53596Y182655D01*
X51402Y182705D01*
X50095Y183579D01*
X48553Y183885D01*
D02*
G37*
G36*
X314005Y183885D02*
X312463Y183579D01*
X311156Y182705D01*
X310282Y181397D01*
X309975Y179855D01*
X310046Y179500D01*
X305969Y175424D01*
X305417Y174597D01*
X305223Y173621D01*
Y173425D01*
X304819D01*
X304053Y173108D01*
X303736Y172343D01*
Y167267D01*
X303736Y166831D01*
X303848Y165650D01*
X303736Y164469D01*
X303736Y164032D01*
Y158957D01*
X304053Y158191D01*
X304819Y157874D01*
X305223D01*
Y141128D01*
X305417Y140153D01*
X305969Y139326D01*
X324298Y120998D01*
X325125Y120445D01*
X326100Y120251D01*
X353300D01*
X354275Y120445D01*
X355102Y120998D01*
X358502Y124398D01*
X359055Y125224D01*
X359249Y126200D01*
Y128549D01*
X359550Y128750D01*
X360423Y130058D01*
X360730Y131600D01*
X360423Y133142D01*
X359550Y134450D01*
X358242Y135323D01*
X357880Y137285D01*
X357930Y137425D01*
X358558Y137685D01*
X358875Y138450D01*
Y139051D01*
X364151D01*
Y134651D01*
X363850Y134450D01*
X362977Y133142D01*
X362670Y131600D01*
X362977Y130058D01*
X363850Y128750D01*
X365158Y127877D01*
X366700Y127570D01*
X368242Y127877D01*
X369550Y128750D01*
X370423Y130058D01*
X370730Y131600D01*
X370423Y133142D01*
X369550Y134450D01*
X369249Y134651D01*
Y142000D01*
Y146700D01*
X369055Y147676D01*
X368502Y148502D01*
X364639Y152365D01*
X363812Y152918D01*
X362837Y153112D01*
X362260Y154877D01*
X362335Y155681D01*
X362335Y156118D01*
Y161193D01*
X362018Y161958D01*
X361253Y162275D01*
X360849D01*
Y162400D01*
X360655Y163375D01*
X360102Y164202D01*
X359249Y165056D01*
Y165500D01*
X359055Y166475D01*
X358502Y167302D01*
X357676Y167855D01*
X356700Y168049D01*
X355725Y167855D01*
X354898Y167302D01*
X354345Y166475D01*
X354151Y165500D01*
Y164000D01*
X354345Y163025D01*
X354582Y161958D01*
X354265Y161193D01*
Y156118D01*
X354265Y155681D01*
X354376Y154500D01*
X354265Y153319D01*
X354265Y152882D01*
Y147807D01*
X353179Y145832D01*
X351887D01*
X351122Y145515D01*
X351078Y145515D01*
X350313Y145832D01*
X347860D01*
Y141600D01*
X347360D01*
Y141100D01*
X343325D01*
Y138450D01*
X343642Y137685D01*
X344407Y137368D01*
X345185D01*
X345382Y135368D01*
X345158Y135323D01*
X343850Y134450D01*
X342977Y133142D01*
X342769Y132100D01*
X346700D01*
X350631D01*
X350423Y133142D01*
X349550Y134450D01*
X348242Y135323D01*
X348018Y135368D01*
X348215Y137368D01*
X350313D01*
X351078Y137685D01*
X351122Y137685D01*
X351887Y137368D01*
X355185D01*
X355382Y135368D01*
X355158Y135323D01*
X353850Y134450D01*
X352977Y133142D01*
X352670Y131600D01*
X352977Y130058D01*
X353850Y128750D01*
X353659Y126763D01*
X352244Y125349D01*
X327156D01*
X310321Y142184D01*
Y146555D01*
X313382D01*
X314147Y146872D01*
X314191Y146872D01*
X314957Y146555D01*
X317409D01*
Y150787D01*
Y155019D01*
X314957D01*
X314191Y154702D01*
X314147Y154702D01*
X313382Y155019D01*
X310321D01*
Y157874D01*
X310724D01*
X311490Y158191D01*
X311807Y158957D01*
Y164032D01*
X311807Y164469D01*
X311696Y165650D01*
X311807Y166831D01*
X311807Y167267D01*
Y172343D01*
X311490Y173108D01*
X311386Y173631D01*
X313651Y175896D01*
X314005Y175825D01*
X315548Y176132D01*
X316855Y177005D01*
X319048Y176955D01*
X320356Y176082D01*
X321398Y175874D01*
Y179805D01*
Y183736D01*
X320356Y183528D01*
X319048Y182655D01*
X316855Y182705D01*
X315548Y183579D01*
X314005Y183885D01*
D02*
G37*
G36*
X183155Y183885D02*
X181613Y183579D01*
X180305Y182705D01*
X179432Y181397D01*
X179125Y179855D01*
X179195Y179500D01*
X175556Y175861D01*
X175003Y175034D01*
X174809Y174058D01*
Y173425D01*
X174406D01*
X173640Y173108D01*
X173323Y172343D01*
Y167267D01*
X173323Y166831D01*
X173434Y165650D01*
X173323Y164469D01*
X173323Y164032D01*
Y158957D01*
X173640Y158191D01*
X174406Y157874D01*
X174809D01*
Y150984D01*
X175003Y150009D01*
X175006Y150005D01*
Y141345D01*
X175200Y140369D01*
X175753Y139542D01*
X196098Y119198D01*
X196924Y118645D01*
X197900Y118451D01*
X223700D01*
X224675Y118645D01*
X225502Y119198D01*
X229902Y123598D01*
X230455Y124425D01*
X230649Y125400D01*
Y126849D01*
X230950Y127050D01*
X231823Y128358D01*
X232130Y129900D01*
X231823Y131442D01*
X230950Y132750D01*
X229642Y133623D01*
X228100Y133930D01*
X226558Y133623D01*
X225250Y132750D01*
X224377Y131442D01*
X224070Y129900D01*
X224377Y128358D01*
X225250Y127050D01*
X224345Y125250D01*
X222644Y123549D01*
X198956D01*
X180104Y142401D01*
Y146555D01*
X182870D01*
X183635Y146872D01*
X183679Y146872D01*
X184445Y146555D01*
X186898D01*
Y150787D01*
Y155019D01*
X184445D01*
X183679Y154702D01*
X183635Y154702D01*
X182870Y155019D01*
X179907D01*
Y157874D01*
X180311D01*
X181076Y158191D01*
X181393Y158957D01*
Y164032D01*
X181393Y164469D01*
X181282Y165650D01*
X181393Y166831D01*
X181393Y167267D01*
Y172343D01*
X181076Y173108D01*
X180900Y173995D01*
X182800Y175896D01*
X183155Y175825D01*
X184697Y176132D01*
X186005Y177005D01*
X188198Y176955D01*
X189505Y176082D01*
X190548Y175874D01*
Y179805D01*
Y183736D01*
X189505Y183528D01*
X188198Y182655D01*
X186005Y182705D01*
X184697Y183579D01*
X183155Y183885D01*
D02*
G37*
G36*
X13700Y178400D02*
X11750D01*
X11845Y177925D01*
X12398Y177098D01*
X13225Y176545D01*
X13700Y176451D01*
Y178400D01*
D02*
G37*
G36*
X37650D02*
X35700D01*
Y176451D01*
X36176Y176545D01*
X37002Y177098D01*
X37555Y177925D01*
X37650Y178400D01*
D02*
G37*
G36*
X34700D02*
X32750D01*
X32845Y177925D01*
X33398Y177098D01*
X34225Y176545D01*
X34700Y176451D01*
Y178400D01*
D02*
G37*
G36*
X16649D02*
X14700D01*
Y176451D01*
X15176Y176545D01*
X16002Y177098D01*
X16555Y177925D01*
X16649Y178400D01*
D02*
G37*
G36*
X164649Y160700D02*
X162700D01*
Y158750D01*
X163175Y158845D01*
X164002Y159398D01*
X164555Y160224D01*
X164649Y160700D01*
D02*
G37*
G36*
X161700D02*
X159750D01*
X159845Y160224D01*
X160398Y159398D01*
X161224Y158845D01*
X161700Y158750D01*
Y160700D01*
D02*
G37*
G36*
X143649D02*
X141700D01*
Y158750D01*
X142175Y158845D01*
X143002Y159398D01*
X143555Y160224D01*
X143649Y160700D01*
D02*
G37*
G36*
X287500Y160800D02*
X285550D01*
X285645Y160325D01*
X286198Y159498D01*
X287024Y158945D01*
X287500Y158851D01*
Y160800D01*
D02*
G37*
G36*
X321360Y163800D02*
X317825D01*
Y161150D01*
X318142Y160385D01*
X318907Y160068D01*
X321360D01*
Y163800D01*
D02*
G37*
G36*
X191460D02*
X187925D01*
Y161150D01*
X188242Y160385D01*
X189007Y160068D01*
X191460D01*
Y163800D01*
D02*
G37*
G36*
X290450Y160800D02*
X288500D01*
Y158851D01*
X288976Y158945D01*
X289802Y159498D01*
X290355Y160325D01*
X290450Y160800D01*
D02*
G37*
G36*
X13700Y158949D02*
X13225Y158855D01*
X12398Y158302D01*
X11845Y157475D01*
X11750Y157000D01*
X13700D01*
Y158949D01*
D02*
G37*
G36*
X37650Y156000D02*
X35700D01*
Y154051D01*
X36176Y154145D01*
X37002Y154698D01*
X37555Y155525D01*
X37650Y156000D01*
D02*
G37*
G36*
X34700D02*
X32750D01*
X32845Y155525D01*
X33398Y154698D01*
X34225Y154145D01*
X34700Y154051D01*
Y156000D01*
D02*
G37*
G36*
X14700Y158949D02*
Y157000D01*
X16649D01*
X16555Y157475D01*
X16002Y158302D01*
X15176Y158855D01*
X14700Y158949D01*
D02*
G37*
G36*
X140700Y160700D02*
X138751D01*
X138845Y160224D01*
X139398Y159398D01*
X140225Y158845D01*
X140700Y158750D01*
Y160700D01*
D02*
G37*
G36*
X35700Y158949D02*
Y157000D01*
X37650D01*
X37555Y157475D01*
X37002Y158302D01*
X36176Y158855D01*
X35700Y158949D01*
D02*
G37*
G36*
X34700D02*
X34225Y158855D01*
X33398Y158302D01*
X32845Y157475D01*
X32750Y157000D01*
X34700D01*
Y158949D01*
D02*
G37*
G36*
X24200Y167200D02*
X22251D01*
X22345Y166725D01*
X22898Y165898D01*
X23724Y165345D01*
X24200Y165251D01*
Y167200D01*
D02*
G37*
G36*
X321360Y168532D02*
X318907D01*
X318142Y168215D01*
X317825Y167450D01*
Y164800D01*
X321360D01*
Y168532D01*
D02*
G37*
G36*
X191460D02*
X189007D01*
X188242Y168215D01*
X187925Y167450D01*
Y164800D01*
X191460D01*
Y168532D01*
D02*
G37*
G36*
X27150Y167200D02*
X25200D01*
Y165251D01*
X25675Y165345D01*
X26502Y165898D01*
X27055Y166725D01*
X27150Y167200D01*
D02*
G37*
G36*
X25200Y170150D02*
Y168200D01*
X27150D01*
X27055Y168675D01*
X26502Y169502D01*
X25675Y170055D01*
X25200Y170150D01*
D02*
G37*
G36*
X24200D02*
X23724Y170055D01*
X22898Y169502D01*
X22345Y168675D01*
X22251Y168200D01*
X24200D01*
Y170150D01*
D02*
G37*
G36*
X56760Y170832D02*
X54307D01*
X53542Y170515D01*
X53225Y169750D01*
Y167100D01*
X56760D01*
Y170832D01*
D02*
G37*
G36*
X161700Y163649D02*
X161224Y163555D01*
X160398Y163002D01*
X159845Y162176D01*
X159750Y161700D01*
X161700D01*
Y163649D01*
D02*
G37*
G36*
X141700D02*
Y161700D01*
X143649D01*
X143555Y162176D01*
X143002Y163002D01*
X142175Y163555D01*
X141700Y163649D01*
D02*
G37*
G36*
X140700D02*
X140225Y163555D01*
X139398Y163002D01*
X138845Y162176D01*
X138751Y161700D01*
X140700D01*
Y163649D01*
D02*
G37*
G36*
X162700D02*
Y161700D01*
X164649D01*
X164555Y162176D01*
X164002Y163002D01*
X163175Y163555D01*
X162700Y163649D01*
D02*
G37*
G36*
X56760Y166100D02*
X53225D01*
Y163450D01*
X53542Y162685D01*
X54307Y162368D01*
X56760D01*
Y166100D01*
D02*
G37*
G36*
X288500Y163750D02*
Y161800D01*
X290450D01*
X290355Y162276D01*
X289802Y163102D01*
X288976Y163655D01*
X288500Y163750D01*
D02*
G37*
G36*
X287500D02*
X287024Y163655D01*
X286198Y163102D01*
X285645Y162276D01*
X285550Y161800D01*
X287500D01*
Y163750D01*
D02*
G37*
G36*
X87400Y106949D02*
Y105000D01*
X89350D01*
X89255Y105475D01*
X88702Y106302D01*
X87875Y106855D01*
X87400Y106949D01*
D02*
G37*
G36*
X86400D02*
X85925Y106855D01*
X85098Y106302D01*
X84545Y105475D01*
X84451Y105000D01*
X86400D01*
Y106949D01*
D02*
G37*
G36*
X65000D02*
Y105000D01*
X66949D01*
X66855Y105475D01*
X66302Y106302D01*
X65475Y106855D01*
X65000Y106949D01*
D02*
G37*
G36*
X176500Y107650D02*
X176024Y107555D01*
X175198Y107002D01*
X174645Y106175D01*
X174550Y105700D01*
X176500D01*
Y107650D01*
D02*
G37*
G36*
X47600Y108449D02*
Y106500D01*
X49549D01*
X49455Y106975D01*
X48902Y107802D01*
X48076Y108355D01*
X47600Y108449D01*
D02*
G37*
G36*
X46600D02*
X46125Y108355D01*
X45298Y107802D01*
X44745Y106975D01*
X44651Y106500D01*
X46600D01*
Y108449D01*
D02*
G37*
G36*
X177500Y107650D02*
Y105700D01*
X179449D01*
X179355Y106175D01*
X178802Y107002D01*
X177975Y107555D01*
X177500Y107650D01*
D02*
G37*
G36*
X154000Y105600D02*
X152050D01*
X152145Y105124D01*
X152698Y104298D01*
X153524Y103745D01*
X154000Y103650D01*
Y105600D01*
D02*
G37*
G36*
X49549Y105500D02*
X47600D01*
Y103551D01*
X48076Y103645D01*
X48902Y104198D01*
X49455Y105025D01*
X49549Y105500D01*
D02*
G37*
G36*
X46600D02*
X44651D01*
X44745Y105025D01*
X45298Y104198D01*
X46125Y103645D01*
X46600Y103551D01*
Y105500D01*
D02*
G37*
G36*
X156949Y105600D02*
X155000D01*
Y103650D01*
X155475Y103745D01*
X156302Y104298D01*
X156855Y105124D01*
X156949Y105600D01*
D02*
G37*
G36*
X64000Y106949D02*
X63525Y106855D01*
X62698Y106302D01*
X62145Y105475D01*
X62050Y105000D01*
X64000D01*
Y106949D01*
D02*
G37*
G36*
X27049Y106400D02*
X25100D01*
Y104451D01*
X25576Y104545D01*
X26402Y105098D01*
X26955Y105924D01*
X27049Y106400D01*
D02*
G37*
G36*
X24100D02*
X22151D01*
X22245Y105924D01*
X22798Y105098D01*
X23625Y104545D01*
X24100Y104451D01*
Y106400D01*
D02*
G37*
G36*
X145749Y116100D02*
X143800D01*
Y114151D01*
X144275Y114245D01*
X145102Y114798D01*
X145655Y115624D01*
X145749Y116100D01*
D02*
G37*
G36*
X142800D02*
X140850D01*
X140945Y115624D01*
X141498Y114798D01*
X142324Y114245D01*
X142800Y114151D01*
Y116100D01*
D02*
G37*
G36*
X304049Y114300D02*
X302100D01*
Y112350D01*
X302575Y112445D01*
X303402Y112998D01*
X303955Y113824D01*
X304049Y114300D01*
D02*
G37*
G36*
X165200Y116100D02*
X163251D01*
X163345Y115624D01*
X163898Y114798D01*
X164725Y114245D01*
X165200Y114151D01*
Y116100D01*
D02*
G37*
G36*
X15849Y116900D02*
X13900D01*
Y114951D01*
X14376Y115045D01*
X15202Y115598D01*
X15755Y116425D01*
X15849Y116900D01*
D02*
G37*
G36*
X12900D02*
X10950D01*
X11045Y116425D01*
X11598Y115598D01*
X12425Y115045D01*
X12900Y114951D01*
Y116900D01*
D02*
G37*
G36*
X168149Y116100D02*
X166200D01*
Y114151D01*
X166675Y114245D01*
X167502Y114798D01*
X168055Y115624D01*
X168149Y116100D01*
D02*
G37*
G36*
X24100Y109350D02*
X23625Y109255D01*
X22798Y108702D01*
X22245Y107876D01*
X22151Y107400D01*
X24100D01*
Y109350D01*
D02*
G37*
G36*
X155000Y108549D02*
Y106600D01*
X156949D01*
X156855Y107076D01*
X156302Y107902D01*
X155475Y108455D01*
X155000Y108549D01*
D02*
G37*
G36*
X154000D02*
X153524Y108455D01*
X152698Y107902D01*
X152145Y107076D01*
X152050Y106600D01*
X154000D01*
Y108549D01*
D02*
G37*
G36*
X25100Y109350D02*
Y107400D01*
X27049D01*
X26955Y107876D01*
X26402Y108702D01*
X25576Y109255D01*
X25100Y109350D01*
D02*
G37*
G36*
X301100Y114300D02*
X299150D01*
X299245Y113824D01*
X299798Y112998D01*
X300624Y112445D01*
X301100Y112350D01*
Y114300D01*
D02*
G37*
G36*
X281649D02*
X279700D01*
Y112350D01*
X280175Y112445D01*
X281002Y112998D01*
X281555Y113824D01*
X281649Y114300D01*
D02*
G37*
G36*
X278700D02*
X276750D01*
X276845Y113824D01*
X277398Y112998D01*
X278224Y112445D01*
X278700Y112350D01*
Y114300D01*
D02*
G37*
G36*
X78149Y93500D02*
X76200D01*
Y91550D01*
X76675Y91645D01*
X77502Y92198D01*
X78055Y93024D01*
X78149Y93500D01*
D02*
G37*
G36*
X75200D02*
X73251D01*
X73345Y93024D01*
X73898Y92198D01*
X74725Y91645D01*
X75200Y91550D01*
Y93500D01*
D02*
G37*
G36*
X100649Y92600D02*
X98700D01*
Y90650D01*
X99176Y90745D01*
X100002Y91298D01*
X100555Y92124D01*
X100649Y92600D01*
D02*
G37*
G36*
X97700Y95549D02*
X97224Y95455D01*
X96398Y94902D01*
X95845Y94076D01*
X95750Y93600D01*
X97700D01*
Y95549D01*
D02*
G37*
G36*
X15849Y95900D02*
X13900D01*
Y93950D01*
X14376Y94045D01*
X15202Y94598D01*
X15755Y95424D01*
X15849Y95900D01*
D02*
G37*
G36*
X12900D02*
X10950D01*
X11045Y95424D01*
X11598Y94598D01*
X12425Y94045D01*
X12900Y93950D01*
Y95900D01*
D02*
G37*
G36*
X98700Y95549D02*
Y93600D01*
X100649D01*
X100555Y94076D01*
X100002Y94902D01*
X99176Y95455D01*
X98700Y95549D01*
D02*
G37*
G36*
X24100Y88349D02*
X23625Y88255D01*
X22798Y87702D01*
X22245Y86875D01*
X22151Y86400D01*
X24100D01*
Y88349D01*
D02*
G37*
G36*
X47600Y87450D02*
Y85500D01*
X49549D01*
X49455Y85975D01*
X48902Y86802D01*
X48076Y87355D01*
X47600Y87450D01*
D02*
G37*
G36*
X46600D02*
X46125Y87355D01*
X45298Y86802D01*
X44745Y85975D01*
X44651Y85500D01*
X46600D01*
Y87450D01*
D02*
G37*
G36*
X25100Y88349D02*
Y86400D01*
X27049D01*
X26955Y86875D01*
X26402Y87702D01*
X25576Y88255D01*
X25100Y88349D01*
D02*
G37*
G36*
X97700Y92600D02*
X95750D01*
X95845Y92124D01*
X96398Y91298D01*
X97224Y90745D01*
X97700Y90650D01*
Y92600D01*
D02*
G37*
G36*
X171100Y92988D02*
Y87600D01*
X174028D01*
Y89659D01*
X173767Y90971D01*
X173024Y92083D01*
X171912Y92826D01*
X171100Y92988D01*
D02*
G37*
G36*
X170100D02*
X169288Y92826D01*
X168176Y92083D01*
X167433Y90971D01*
X167172Y89659D01*
Y87600D01*
X170100D01*
Y92988D01*
D02*
G37*
G36*
X66949Y104000D02*
X65000D01*
Y102050D01*
X65475Y102145D01*
X66302Y102698D01*
X66855Y103524D01*
X66949Y104000D01*
D02*
G37*
G36*
X64000D02*
X62050D01*
X62145Y103524D01*
X62698Y102698D01*
X63525Y102145D01*
X64000Y102050D01*
Y104000D01*
D02*
G37*
G36*
X36300Y98849D02*
Y96900D01*
X38249D01*
X38155Y97376D01*
X37602Y98202D01*
X36775Y98755D01*
X36300Y98849D01*
D02*
G37*
G36*
X86400Y104000D02*
X84451D01*
X84545Y103524D01*
X85098Y102698D01*
X85925Y102145D01*
X86400Y102050D01*
Y104000D01*
D02*
G37*
G36*
X179449Y104700D02*
X177500D01*
Y102751D01*
X177975Y102845D01*
X178802Y103398D01*
X179355Y104225D01*
X179449Y104700D01*
D02*
G37*
G36*
X176500D02*
X174550D01*
X174645Y104225D01*
X175198Y103398D01*
X176024Y102845D01*
X176500Y102751D01*
Y104700D01*
D02*
G37*
G36*
X89350Y104000D02*
X87400D01*
Y102050D01*
X87875Y102145D01*
X88702Y102698D01*
X89255Y103524D01*
X89350Y104000D01*
D02*
G37*
G36*
X75200Y96450D02*
X74725Y96355D01*
X73898Y95802D01*
X73345Y94976D01*
X73251Y94500D01*
X75200D01*
Y96450D01*
D02*
G37*
G36*
X38249Y95900D02*
X36300D01*
Y93950D01*
X36775Y94045D01*
X37602Y94598D01*
X38155Y95424D01*
X38249Y95900D01*
D02*
G37*
G36*
X35300D02*
X33351D01*
X33445Y95424D01*
X33998Y94598D01*
X34824Y94045D01*
X35300Y93950D01*
Y95900D01*
D02*
G37*
G36*
X76200Y96450D02*
Y94500D01*
X78149D01*
X78055Y94976D01*
X77502Y95802D01*
X76675Y96355D01*
X76200Y96450D01*
D02*
G37*
G36*
X35300Y98849D02*
X34824Y98755D01*
X33998Y98202D01*
X33445Y97376D01*
X33351Y96900D01*
X35300D01*
Y98849D01*
D02*
G37*
G36*
X13900D02*
Y96900D01*
X15849D01*
X15755Y97376D01*
X15202Y98202D01*
X14376Y98755D01*
X13900Y98849D01*
D02*
G37*
G36*
X12900D02*
X12425Y98755D01*
X11598Y98202D01*
X11045Y97376D01*
X10950Y96900D01*
X12900D01*
Y98849D01*
D02*
G37*
G36*
X35300Y116900D02*
X33351D01*
X33445Y116425D01*
X33998Y115598D01*
X34824Y115045D01*
X35300Y114951D01*
Y116900D01*
D02*
G37*
G36*
X290900Y127750D02*
Y125800D01*
X292849D01*
X292755Y126276D01*
X292202Y127102D01*
X291375Y127655D01*
X290900Y127750D01*
D02*
G37*
G36*
X289900D02*
X289424Y127655D01*
X288598Y127102D01*
X288045Y126276D01*
X287950Y125800D01*
X289900D01*
Y127750D01*
D02*
G37*
G36*
X27049Y127400D02*
X25100D01*
Y125451D01*
X25576Y125545D01*
X26402Y126098D01*
X26955Y126925D01*
X27049Y127400D01*
D02*
G37*
G36*
X207600Y129400D02*
X204169D01*
X204377Y128358D01*
X205250Y127050D01*
X206558Y126177D01*
X207600Y125969D01*
Y129400D01*
D02*
G37*
G36*
X222031D02*
X218600D01*
Y125969D01*
X219642Y126177D01*
X220950Y127050D01*
X221823Y128358D01*
X222031Y129400D01*
D02*
G37*
G36*
X212031D02*
X208600D01*
Y125969D01*
X209642Y126177D01*
X210950Y127050D01*
X211823Y128358D01*
X212031Y129400D01*
D02*
G37*
G36*
X217600D02*
X214169D01*
X214377Y128358D01*
X215250Y127050D01*
X216558Y126177D01*
X217600Y125969D01*
Y129400D01*
D02*
G37*
G36*
X154000Y126600D02*
X152050D01*
X152145Y126125D01*
X152698Y125298D01*
X153524Y124745D01*
X154000Y124651D01*
Y126600D01*
D02*
G37*
G36*
X46600Y126500D02*
X44651D01*
X44745Y126024D01*
X45298Y125198D01*
X46125Y124645D01*
X46600Y124550D01*
Y126500D01*
D02*
G37*
G36*
X179449Y125700D02*
X177500D01*
Y123750D01*
X177975Y123845D01*
X178802Y124398D01*
X179355Y125224D01*
X179449Y125700D01*
D02*
G37*
G36*
X156949Y126600D02*
X155000D01*
Y124651D01*
X155475Y124745D01*
X156302Y125298D01*
X156855Y126125D01*
X156949Y126600D01*
D02*
G37*
G36*
X24100Y127400D02*
X22151D01*
X22245Y126925D01*
X22798Y126098D01*
X23625Y125545D01*
X24100Y125451D01*
Y127400D01*
D02*
G37*
G36*
X313400Y126849D02*
Y124900D01*
X315350D01*
X315255Y125375D01*
X314702Y126202D01*
X313876Y126755D01*
X313400Y126849D01*
D02*
G37*
G36*
X312400D02*
X311925Y126755D01*
X311098Y126202D01*
X310545Y125375D01*
X310451Y124900D01*
X312400D01*
Y126849D01*
D02*
G37*
G36*
X25100Y130350D02*
Y128400D01*
X27049D01*
X26955Y128876D01*
X26402Y129702D01*
X25576Y130255D01*
X25100Y130350D01*
D02*
G37*
G36*
X24100D02*
X23625Y130255D01*
X22798Y129702D01*
X22245Y128876D01*
X22151Y128400D01*
X24100D01*
Y130350D01*
D02*
G37*
G36*
X350631Y131100D02*
X347200D01*
Y127669D01*
X348242Y127877D01*
X349550Y128750D01*
X350423Y130058D01*
X350631Y131100D01*
D02*
G37*
G36*
X207600Y133831D02*
X206558Y133623D01*
X205250Y132750D01*
X204377Y131442D01*
X204169Y130400D01*
X207600D01*
Y133831D01*
D02*
G37*
G36*
X218600Y133831D02*
Y130400D01*
X222031D01*
X221823Y131442D01*
X220950Y132750D01*
X219642Y133623D01*
X218600Y133831D01*
D02*
G37*
G36*
X208600D02*
Y130400D01*
X212031D01*
X211823Y131442D01*
X210950Y132750D01*
X209642Y133623D01*
X208600Y133831D01*
D02*
G37*
G36*
X217600Y133831D02*
X216558Y133623D01*
X215250Y132750D01*
X214377Y131442D01*
X214169Y130400D01*
X217600D01*
Y133831D01*
D02*
G37*
G36*
X154000Y129550D02*
X153524Y129455D01*
X152698Y128902D01*
X152145Y128076D01*
X152050Y127600D01*
X154000D01*
Y129550D01*
D02*
G37*
G36*
X177500Y128649D02*
Y126700D01*
X179449D01*
X179355Y127175D01*
X178802Y128002D01*
X177975Y128555D01*
X177500Y128649D01*
D02*
G37*
G36*
X176500D02*
X176024Y128555D01*
X175198Y128002D01*
X174645Y127175D01*
X174550Y126700D01*
X176500D01*
Y128649D01*
D02*
G37*
G36*
X155000Y129550D02*
Y127600D01*
X156949D01*
X156855Y128076D01*
X156302Y128902D01*
X155475Y129455D01*
X155000Y129550D01*
D02*
G37*
G36*
X340631Y131100D02*
X337200D01*
Y127669D01*
X338242Y127877D01*
X339550Y128750D01*
X340423Y130058D01*
X340631Y131100D01*
D02*
G37*
G36*
X346200D02*
X342769D01*
X342977Y130058D01*
X343850Y128750D01*
X345158Y127877D01*
X346200Y127669D01*
Y131100D01*
D02*
G37*
G36*
X336200D02*
X332769D01*
X332977Y130058D01*
X333850Y128750D01*
X335158Y127877D01*
X336200Y127669D01*
Y131100D01*
D02*
G37*
G36*
X166200Y119050D02*
Y117100D01*
X168149D01*
X168055Y117576D01*
X167502Y118402D01*
X166675Y118955D01*
X166200Y119050D01*
D02*
G37*
G36*
X165200D02*
X164725Y118955D01*
X163898Y118402D01*
X163345Y117576D01*
X163251Y117100D01*
X165200D01*
Y119050D01*
D02*
G37*
G36*
X143800D02*
Y117100D01*
X145749D01*
X145655Y117576D01*
X145102Y118402D01*
X144275Y118955D01*
X143800Y119050D01*
D02*
G37*
G36*
X253163Y119237D02*
X251214D01*
X251308Y118762D01*
X251861Y117935D01*
X252688Y117382D01*
X253163Y117288D01*
Y119237D01*
D02*
G37*
G36*
X13900Y119850D02*
Y117900D01*
X15849D01*
X15755Y118376D01*
X15202Y119202D01*
X14376Y119755D01*
X13900Y119850D01*
D02*
G37*
G36*
X12900D02*
X12425Y119755D01*
X11598Y119202D01*
X11045Y118376D01*
X10950Y117900D01*
X12900D01*
Y119850D01*
D02*
G37*
G36*
X256113Y119237D02*
X254163D01*
Y117288D01*
X254639Y117382D01*
X255465Y117935D01*
X256018Y118762D01*
X256113Y119237D01*
D02*
G37*
G36*
X279700Y117250D02*
Y115300D01*
X281649D01*
X281555Y115776D01*
X281002Y116602D01*
X280175Y117155D01*
X279700Y117250D01*
D02*
G37*
G36*
X278700D02*
X278224Y117155D01*
X277398Y116602D01*
X276845Y115776D01*
X276750Y115300D01*
X278700D01*
Y117250D01*
D02*
G37*
G36*
X38249Y116900D02*
X36300D01*
Y114951D01*
X36775Y115045D01*
X37602Y115598D01*
X38155Y116425D01*
X38249Y116900D01*
D02*
G37*
G36*
X301100Y117250D02*
X300624Y117155D01*
X299798Y116602D01*
X299245Y115776D01*
X299150Y115300D01*
X301100D01*
Y117250D01*
D02*
G37*
G36*
X142800Y119050D02*
X142324Y118955D01*
X141498Y118402D01*
X140945Y117576D01*
X140850Y117100D01*
X142800D01*
Y119050D01*
D02*
G37*
G36*
X380537Y117837D02*
X378588D01*
X378682Y117362D01*
X379235Y116535D01*
X380062Y115982D01*
X380537Y115887D01*
Y117837D01*
D02*
G37*
G36*
X302100Y117250D02*
Y115300D01*
X304049D01*
X303955Y115776D01*
X303402Y116602D01*
X302575Y117155D01*
X302100Y117250D01*
D02*
G37*
G36*
X289900Y124800D02*
X287950D01*
X288045Y124325D01*
X288598Y123498D01*
X289424Y122945D01*
X289900Y122851D01*
Y124800D01*
D02*
G37*
G36*
X315350Y123900D02*
X313400D01*
Y121950D01*
X313876Y122045D01*
X314702Y122598D01*
X315255Y123424D01*
X315350Y123900D01*
D02*
G37*
G36*
X312400D02*
X310451D01*
X310545Y123424D01*
X311098Y122598D01*
X311925Y122045D01*
X312400Y121950D01*
Y123900D01*
D02*
G37*
G36*
X292849Y124800D02*
X290900D01*
Y122851D01*
X291375Y122945D01*
X292202Y123498D01*
X292755Y124325D01*
X292849Y124800D01*
D02*
G37*
G36*
X176500Y125700D02*
X174550D01*
X174645Y125224D01*
X175198Y124398D01*
X176024Y123845D01*
X176500Y123750D01*
Y125700D01*
D02*
G37*
G36*
X120063Y124887D02*
Y122937D01*
X122012D01*
X121918Y123412D01*
X121365Y124239D01*
X120538Y124792D01*
X120063Y124887D01*
D02*
G37*
G36*
X119063D02*
X118588Y124792D01*
X117761Y124239D01*
X117208Y123412D01*
X117113Y122937D01*
X119063D01*
Y124887D01*
D02*
G37*
G36*
X380537Y120786D02*
X380062Y120692D01*
X379235Y120139D01*
X378682Y119312D01*
X378588Y118837D01*
X380537D01*
Y120786D01*
D02*
G37*
G36*
X36300Y119850D02*
Y117900D01*
X38249D01*
X38155Y118376D01*
X37602Y119202D01*
X36775Y119755D01*
X36300Y119850D01*
D02*
G37*
G36*
X35300D02*
X34824Y119755D01*
X33998Y119202D01*
X33445Y118376D01*
X33351Y117900D01*
X35300D01*
Y119850D01*
D02*
G37*
G36*
X119063Y121937D02*
X117113D01*
X117208Y121462D01*
X117761Y120635D01*
X118588Y120082D01*
X119063Y119987D01*
Y121937D01*
D02*
G37*
G36*
X254163Y122187D02*
Y120237D01*
X256113D01*
X256018Y120712D01*
X255465Y121539D01*
X254639Y122092D01*
X254163Y122187D01*
D02*
G37*
G36*
X253163D02*
X252688Y122092D01*
X251861Y121539D01*
X251308Y120712D01*
X251214Y120237D01*
X253163D01*
Y122187D01*
D02*
G37*
G36*
X122012Y121937D02*
X120063D01*
Y119987D01*
X120538Y120082D01*
X121365Y120635D01*
X121918Y121462D01*
X122012Y121937D01*
D02*
G37*
%LPD*%
D10*
X358300Y158437D02*
D03*
Y150563D02*
D03*
X236300Y161337D02*
D03*
Y153463D02*
D03*
X102700Y160437D02*
D03*
Y152563D02*
D03*
X374876Y354832D02*
D03*
Y362706D02*
D03*
Y336860D02*
D03*
Y344734D02*
D03*
Y318887D02*
D03*
Y326761D02*
D03*
Y300915D02*
D03*
Y308789D02*
D03*
Y282943D02*
D03*
Y290817D02*
D03*
Y264970D02*
D03*
Y272844D02*
D03*
Y246998D02*
D03*
Y254872D02*
D03*
X5300Y358826D02*
D03*
Y366700D02*
D03*
Y340854D02*
D03*
Y348728D02*
D03*
Y322881D02*
D03*
Y330755D02*
D03*
Y304909D02*
D03*
Y312783D02*
D03*
Y286936D02*
D03*
Y294810D02*
D03*
Y268964D02*
D03*
Y276838D02*
D03*
Y250991D02*
D03*
Y258865D02*
D03*
X267776Y360232D02*
D03*
Y368106D02*
D03*
Y342260D02*
D03*
Y350134D02*
D03*
Y324287D02*
D03*
Y332161D02*
D03*
Y306315D02*
D03*
Y314189D02*
D03*
Y288342D02*
D03*
Y296217D02*
D03*
Y270370D02*
D03*
Y278244D02*
D03*
Y252398D02*
D03*
Y260272D02*
D03*
X137500Y360063D02*
D03*
Y367937D02*
D03*
Y342091D02*
D03*
Y349965D02*
D03*
Y324118D02*
D03*
Y331992D02*
D03*
Y270201D02*
D03*
Y278075D02*
D03*
Y252228D02*
D03*
Y260102D02*
D03*
Y288173D02*
D03*
Y296047D02*
D03*
Y306146D02*
D03*
Y314020D02*
D03*
X307772Y161713D02*
D03*
Y169587D02*
D03*
X177358Y161713D02*
D03*
Y169587D02*
D03*
X43598Y161614D02*
D03*
Y169488D02*
D03*
X110134Y259941D02*
D03*
Y252067D02*
D03*
Y278110D02*
D03*
Y270236D02*
D03*
Y296280D02*
D03*
Y288405D02*
D03*
Y314449D02*
D03*
Y306575D02*
D03*
Y332618D02*
D03*
Y324744D02*
D03*
Y350787D02*
D03*
Y342913D02*
D03*
X244386Y259941D02*
D03*
Y252067D02*
D03*
Y278110D02*
D03*
Y270236D02*
D03*
Y296280D02*
D03*
Y288405D02*
D03*
Y314449D02*
D03*
Y306575D02*
D03*
Y332618D02*
D03*
Y324744D02*
D03*
Y350787D02*
D03*
Y342913D02*
D03*
X110232Y368996D02*
D03*
Y361122D02*
D03*
X244271Y368284D02*
D03*
Y360410D02*
D03*
D11*
X230240Y144900D02*
D03*
X222760D02*
D03*
X354840Y141600D02*
D03*
X347360D02*
D03*
X95140Y144000D02*
D03*
X87660D02*
D03*
X358220Y204100D02*
D03*
X365700D02*
D03*
X238260Y207300D02*
D03*
X245740D02*
D03*
X105260Y207500D02*
D03*
X112740D02*
D03*
X321860Y164300D02*
D03*
X329340D02*
D03*
X310429Y150787D02*
D03*
X317909D02*
D03*
X57260Y166600D02*
D03*
X64740D02*
D03*
X179917Y150787D02*
D03*
X187398D02*
D03*
X191960Y164300D02*
D03*
X199440D02*
D03*
X46059Y150689D02*
D03*
X53539D02*
D03*
D12*
X56445Y151233D02*
Y179805D01*
X198955Y166002D02*
Y179855D01*
Y166002D02*
X200685Y164272D01*
X64353Y166987D02*
X64740Y166600D01*
X64353Y166987D02*
Y179855D01*
X237000Y129900D02*
Y152663D01*
X217000Y129900D02*
X218100D01*
X208100D02*
X217000D01*
Y143300D01*
X346700Y140940D02*
X347360Y141600D01*
X346700Y131600D02*
Y140940D01*
X366700Y142000D02*
Y146700D01*
Y131600D02*
Y142000D01*
X366300Y141600D02*
X366700Y142000D01*
X354840Y141600D02*
X366300D01*
X362837Y150563D02*
X366700Y146700D01*
X358300Y150563D02*
X362837D01*
X358300Y158437D02*
Y162400D01*
X356700Y164000D02*
X358300Y162400D01*
X356700Y164000D02*
Y165500D01*
X236400Y161137D02*
Y169900D01*
X228840Y144700D02*
X237000D01*
X217000Y143300D02*
X218400Y144700D01*
X221360D01*
X84700Y144000D02*
X87660D01*
X83300Y142600D02*
X84700Y144000D01*
X83300Y132400D02*
Y142600D01*
X103300Y144000D02*
Y151963D01*
Y132400D02*
Y144000D01*
X103300Y144000D02*
X103300Y144000D01*
X95140Y144000D02*
X103300D01*
X102700Y152563D02*
X103300Y151963D01*
X102700Y160437D02*
Y169200D01*
X113300Y132400D02*
X123300D01*
Y163878D01*
X248100Y129900D02*
X258100D01*
X257800Y130200D02*
Y164178D01*
X376700Y131600D02*
X386700D01*
X376700Y163078D02*
X377600Y163978D01*
X376700Y131600D02*
Y163078D01*
X307772Y141128D02*
X326100Y122800D01*
X353300D01*
X356700Y126200D01*
Y131600D01*
X336700D02*
X346700D01*
X320272Y141528D02*
Y150787D01*
Y141528D02*
X330200Y131600D01*
X336700D01*
X191048Y152075D02*
Y179805D01*
X202900Y129900D02*
X208100D01*
X189760Y143040D02*
X202900Y129900D01*
X189760Y143040D02*
Y150787D01*
X228100Y125400D02*
Y129900D01*
X223700Y121000D02*
X228100Y125400D01*
X197900Y121000D02*
X223700D01*
X177555Y141345D02*
X197900Y121000D01*
X177555Y141345D02*
Y150787D01*
X93300Y127200D02*
Y132400D01*
X90100Y124000D02*
X93300Y127200D01*
X57200Y124000D02*
X90100D01*
X43697Y137503D02*
X57200Y124000D01*
X43697Y137503D02*
Y150689D01*
X73300Y132400D02*
X83300D01*
X64300D02*
X73300D01*
X55902Y140798D02*
X64300Y132400D01*
X55902Y140798D02*
Y150689D01*
X112700Y207460D02*
X112740Y207500D01*
X112700Y200500D02*
Y207460D01*
X116700Y195400D02*
X124200Y202900D01*
X108700Y195400D02*
X116700D01*
X104610Y199490D02*
X108700Y195400D01*
X97750Y207150D02*
X104610D01*
Y199490D02*
Y207150D01*
X238210Y199590D02*
Y207250D01*
Y199590D02*
X241200Y196600D01*
X251400D01*
X257800Y203000D01*
Y203548D01*
X231350Y207250D02*
X238210D01*
X357700Y195900D02*
Y203580D01*
Y195900D02*
X362100Y191500D01*
X368600D01*
X377600Y200500D02*
Y203348D01*
X368600Y191500D02*
X377600Y200500D01*
X357680Y203600D02*
X357700Y203580D01*
X351700Y203600D02*
X357680D01*
X361300Y249900D02*
X366900D01*
X369802Y246998D01*
X374876D01*
Y344734D02*
Y354832D01*
Y326761D02*
Y336860D01*
Y308789D02*
Y318887D01*
Y290817D02*
Y300915D01*
Y272844D02*
Y282943D01*
Y254872D02*
Y264970D01*
Y362706D02*
Y368776D01*
X381200Y374300D02*
X387300D01*
X370500Y385000D02*
X381200Y374300D01*
X21418Y385000D02*
X370500D01*
X387300Y374300D02*
X389100Y372500D01*
X5300Y366700D02*
Y368882D01*
X21418Y385000D01*
X5300Y348728D02*
Y358826D01*
Y330755D02*
Y340854D01*
Y312783D02*
Y322881D01*
Y294810D02*
Y304909D01*
Y276838D02*
Y286936D01*
Y258865D02*
Y268964D01*
X10500Y249800D02*
X17400D01*
X9309Y250991D02*
X10500Y249800D01*
X5300Y250991D02*
X9309D01*
X265000Y375500D02*
X267776Y372724D01*
Y368106D02*
Y372724D01*
Y350134D02*
Y360232D01*
Y332161D02*
Y342260D01*
Y314189D02*
Y324287D01*
Y296217D02*
Y306315D01*
Y278244D02*
Y288342D01*
Y260272D02*
Y270370D01*
X235472Y252067D02*
X240984D01*
X233307Y249902D02*
X235472Y252067D01*
X225827Y249902D02*
X233307D01*
X268350Y252228D02*
X273122D01*
X275350Y250000D01*
X285350D01*
X135500Y376000D02*
X137500Y374000D01*
Y367937D02*
Y374000D01*
Y349965D02*
Y360063D01*
Y331992D02*
Y342091D01*
Y314020D02*
Y324118D01*
Y296047D02*
Y306146D01*
Y278075D02*
Y288173D01*
Y260102D02*
Y270201D01*
X144500Y250000D02*
X154500D01*
X142272Y252228D02*
X144500Y250000D01*
X137500Y252228D02*
X142272D01*
X244271Y368284D02*
Y374294D01*
X246158Y376181D01*
X239224Y252067D02*
X244736D01*
X237059Y249902D02*
X239224Y252067D01*
X229579Y249902D02*
X237059D01*
X94976Y249902D02*
X102457D01*
X104622Y252067D01*
X110134D01*
X110232Y368996D02*
Y374902D01*
X110134Y332618D02*
Y342913D01*
Y314449D02*
Y324744D01*
Y296280D02*
Y306575D01*
Y278110D02*
Y288405D01*
Y259941D02*
Y270236D01*
X244386Y332618D02*
Y342913D01*
Y314449D02*
Y324744D01*
Y296280D02*
Y306575D01*
Y278110D02*
Y288405D01*
Y259941D02*
Y270236D01*
X43598Y150787D02*
X43697Y150689D01*
X43598Y150787D02*
Y161614D01*
X55902Y150689D02*
X56445Y151233D01*
X43598Y169488D02*
Y174901D01*
X48553Y179855D01*
X177358Y150984D02*
X177555Y150787D01*
X177358Y150984D02*
Y161713D01*
Y169587D02*
Y174058D01*
X183155Y179855D01*
X189760Y150787D02*
X191048Y152075D01*
X329805Y164300D02*
Y179855D01*
X320272Y150787D02*
X321158Y151673D01*
Y164272D01*
X321898Y165012D01*
Y179805D01*
X307772Y141128D02*
Y161713D01*
Y169587D02*
Y173621D01*
X314005Y179855D01*
X110232Y374902D02*
X112496Y377165D01*
X244271Y368284D02*
X244878Y368891D01*
X244386Y350787D02*
Y360295D01*
X244271Y360410D02*
X244386Y360295D01*
X110232Y350886D02*
Y361122D01*
X110134Y350787D02*
X110232Y350886D01*
D13*
X268100Y106500D02*
X268500Y106100D01*
X268100Y106500D02*
Y125700D01*
X268500Y106100D02*
X382100D01*
X191100D02*
X267700D01*
X382100D02*
X388700Y112700D01*
Y129600D01*
X386700Y131600D02*
X388700Y129600D01*
X258100Y129900D02*
X263900D01*
X268100Y125700D01*
X180600Y95600D02*
X191100Y106100D01*
X180600Y87100D02*
Y95600D01*
X128800Y62000D02*
Y126900D01*
Y50400D02*
Y62000D01*
X174700D01*
X180600Y67900D01*
Y87100D01*
X117943Y28300D02*
Y39542D01*
X128800Y50400D01*
X123300Y132400D02*
X128800Y126900D01*
D14*
X102700Y133000D02*
X103300Y132400D01*
X245740Y201660D02*
X246100Y201300D01*
X245740Y201660D02*
Y207300D01*
X365700Y204100D02*
X366700Y203100D01*
Y197400D02*
Y203100D01*
D15*
X78435Y313140D02*
D03*
D16*
X169041Y313140D02*
D03*
D17*
X213037Y313189D02*
D03*
D18*
X343888Y304413D02*
D03*
D19*
X299892Y313091D02*
D03*
D20*
X34439Y306864D02*
D03*
D21*
X98257Y28300D02*
D03*
D22*
X117943D02*
D03*
D23*
X386700Y131600D02*
D03*
X258100Y129900D02*
D03*
X123300Y132400D02*
D03*
D24*
X376700Y131600D02*
D03*
X366700D02*
D03*
X356700D02*
D03*
X346700D02*
D03*
X336700D02*
D03*
X248100Y129900D02*
D03*
X238100D02*
D03*
X228100D02*
D03*
X218100D02*
D03*
X208100D02*
D03*
X113300Y132400D02*
D03*
X103300D02*
D03*
X93300D02*
D03*
X83300D02*
D03*
X73300D02*
D03*
X314005Y179855D02*
D03*
X329805D02*
D03*
X321898Y179805D02*
D03*
X183155Y179855D02*
D03*
X198955D02*
D03*
X191048Y179805D02*
D03*
X48553Y179855D02*
D03*
X64353D02*
D03*
X56445Y179805D02*
D03*
D25*
X160600Y27100D02*
D03*
D26*
X170600D02*
D03*
X180600D02*
D03*
X190600D02*
D03*
X200600D02*
D03*
X210600D02*
D03*
X220600D02*
D03*
X230600D02*
D03*
X240600D02*
D03*
X250600D02*
D03*
X260600D02*
D03*
X270600D02*
D03*
X280600D02*
D03*
X290600D02*
D03*
X300600D02*
D03*
X310600D02*
D03*
X320600D02*
D03*
X330600D02*
D03*
X340600D02*
D03*
X350600D02*
D03*
X160600Y87100D02*
D03*
X170600D02*
D03*
X180600D02*
D03*
X190600D02*
D03*
X200600D02*
D03*
X210600D02*
D03*
X220600D02*
D03*
X230600D02*
D03*
X240600D02*
D03*
X250600D02*
D03*
X260600D02*
D03*
X270600D02*
D03*
X280600D02*
D03*
X290600D02*
D03*
X300600D02*
D03*
X310600D02*
D03*
X320600D02*
D03*
X330600D02*
D03*
X340600D02*
D03*
X350600D02*
D03*
D27*
X124500Y165078D02*
D03*
Y172952D02*
D03*
Y188700D02*
D03*
Y204448D02*
D03*
X377600Y203348D02*
D03*
Y187600D02*
D03*
Y171852D02*
D03*
Y163978D02*
D03*
X257800Y203548D02*
D03*
Y187800D02*
D03*
Y172052D02*
D03*
Y164178D02*
D03*
X385827Y385827D02*
D03*
X385827Y7874D02*
D03*
X7874Y385827D02*
D03*
Y7874D02*
D03*
D28*
X341598Y263305D02*
D03*
X302213Y262720D02*
D03*
X210748Y263305D02*
D03*
X171363Y262720D02*
D03*
X76145Y263305D02*
D03*
X36760Y262720D02*
D03*
D29*
X342657Y359744D02*
D03*
X214366Y359744D02*
D03*
X298071Y359744D02*
D03*
X77500Y359744D02*
D03*
X170272Y359744D02*
D03*
X32815Y359744D02*
D03*
D30*
X306906Y287323D02*
D03*
X336906D02*
D03*
Y317323D02*
D03*
X306906D02*
D03*
X176055Y287421D02*
D03*
X206055D02*
D03*
Y317421D02*
D03*
X176055D02*
D03*
X41453Y287323D02*
D03*
X71453D02*
D03*
Y317323D02*
D03*
X41453D02*
D03*
D31*
X253663Y119737D02*
D03*
X119563Y122437D02*
D03*
X381037Y118337D02*
D03*
X356700Y165500D02*
D03*
X236400Y169900D02*
D03*
X102700Y169200D02*
D03*
X112700Y200500D02*
D03*
X97750Y207150D02*
D03*
X246100Y201300D02*
D03*
X231350Y207250D02*
D03*
X366700Y197400D02*
D03*
X351700Y203600D02*
D03*
X374876Y368776D02*
D03*
X389100Y372500D02*
D03*
X265000Y375500D02*
D03*
X135500Y376000D02*
D03*
X112496Y377165D02*
D03*
X246158Y376181D02*
D03*
X13400Y138400D02*
D03*
X24600Y127900D02*
D03*
Y106900D02*
D03*
X13400Y96400D02*
D03*
X24600Y85900D02*
D03*
X35800Y96400D02*
D03*
Y117400D02*
D03*
Y138400D02*
D03*
X47100Y85000D02*
D03*
Y106000D02*
D03*
Y127000D02*
D03*
X13400Y117400D02*
D03*
X13100Y51800D02*
D03*
X46800Y61400D02*
D03*
Y40400D02*
D03*
Y19400D02*
D03*
X35500Y72800D02*
D03*
Y51800D02*
D03*
Y30800D02*
D03*
X24300Y20300D02*
D03*
X13100Y30800D02*
D03*
X24300Y41300D02*
D03*
Y62300D02*
D03*
X13100Y72800D02*
D03*
X64400Y50500D02*
D03*
X98100Y60100D02*
D03*
Y39100D02*
D03*
Y18100D02*
D03*
X86800Y71500D02*
D03*
Y50500D02*
D03*
Y29500D02*
D03*
X75600Y19000D02*
D03*
X64400Y29500D02*
D03*
X75600Y40000D02*
D03*
Y61000D02*
D03*
X64400Y71500D02*
D03*
X273000Y14400D02*
D03*
X284200Y3900D02*
D03*
X295400Y14400D02*
D03*
X306700Y3000D02*
D03*
X228700Y15200D02*
D03*
X239900Y4700D02*
D03*
X251100Y15200D02*
D03*
X262400Y3800D02*
D03*
X182600Y15900D02*
D03*
X193800Y5400D02*
D03*
X205000Y15900D02*
D03*
X216300Y4500D02*
D03*
X139000Y16100D02*
D03*
X150200Y5600D02*
D03*
X161400Y16100D02*
D03*
X172700Y4700D02*
D03*
X367300Y45100D02*
D03*
X356100Y34600D02*
D03*
X367300Y24100D02*
D03*
X378500Y34600D02*
D03*
X389800Y23200D02*
D03*
Y44200D02*
D03*
X290400Y125300D02*
D03*
X279200Y114800D02*
D03*
X301600D02*
D03*
X312900Y124400D02*
D03*
X154500Y127100D02*
D03*
X143300Y116600D02*
D03*
X154500Y106100D02*
D03*
X165700Y116600D02*
D03*
X177000Y105200D02*
D03*
Y126200D02*
D03*
X64500Y104500D02*
D03*
X75700Y94000D02*
D03*
X86900Y83500D02*
D03*
Y104500D02*
D03*
X98200Y93100D02*
D03*
X64500Y83500D02*
D03*
X141200Y138800D02*
D03*
X151700Y150000D02*
D03*
X162200Y161200D02*
D03*
X141200D02*
D03*
X152600Y172500D02*
D03*
X162200Y138800D02*
D03*
X35200Y178900D02*
D03*
X24700Y167700D02*
D03*
X14200Y156500D02*
D03*
X35200D02*
D03*
X23800Y145200D02*
D03*
X14200Y178900D02*
D03*
X298500Y172500D02*
D03*
X288000Y161300D02*
D03*
X277500Y150100D02*
D03*
X298500D02*
D03*
X287100Y138800D02*
D03*
X277500Y172500D02*
D03*
D32*
X336613Y270648D02*
D03*
X346583Y255963D02*
D03*
X341313Y270748D02*
D03*
X346813Y270848D02*
D03*
X351913Y269548D02*
D03*
X354413Y265048D02*
D03*
X354213Y260048D02*
D03*
X350513Y256048D02*
D03*
X342413Y255748D02*
D03*
X336713Y256048D02*
D03*
X331613Y257148D02*
D03*
X328813Y261248D02*
D03*
X329113Y265948D02*
D03*
X332713Y269548D02*
D03*
X293328Y268963D02*
D03*
X289728Y265363D02*
D03*
X289428Y260663D02*
D03*
X292228Y256563D02*
D03*
X297328Y255463D02*
D03*
X303028Y255163D02*
D03*
X311128Y255463D02*
D03*
X314828Y259463D02*
D03*
X315028Y264463D02*
D03*
X312528Y268963D02*
D03*
X307428Y270263D02*
D03*
X301928Y270163D02*
D03*
X307198Y255378D02*
D03*
X297228Y270063D02*
D03*
X205763Y270648D02*
D03*
X215733Y255963D02*
D03*
X210463Y270748D02*
D03*
X215963Y270848D02*
D03*
X221063Y269548D02*
D03*
X223563Y265048D02*
D03*
X223363Y260048D02*
D03*
X219663Y256048D02*
D03*
X211563Y255748D02*
D03*
X205863Y256048D02*
D03*
X200763Y257148D02*
D03*
X197963Y261248D02*
D03*
X198263Y265948D02*
D03*
X201863Y269548D02*
D03*
X162478Y268963D02*
D03*
X158878Y265363D02*
D03*
X158578Y260663D02*
D03*
X161378Y256563D02*
D03*
X166478Y255463D02*
D03*
X172178Y255163D02*
D03*
X180278Y255463D02*
D03*
X183977Y259463D02*
D03*
X184177Y264463D02*
D03*
X181677Y268963D02*
D03*
X176577Y270263D02*
D03*
X171078Y270163D02*
D03*
X176348Y255378D02*
D03*
X166377Y270063D02*
D03*
X71160Y270648D02*
D03*
X81130Y255963D02*
D03*
X75860Y270748D02*
D03*
X81360Y270848D02*
D03*
X86460Y269548D02*
D03*
X88960Y265048D02*
D03*
X88760Y260048D02*
D03*
X85060Y256048D02*
D03*
X76960Y255748D02*
D03*
X71260Y256048D02*
D03*
X66160Y257148D02*
D03*
X63360Y261248D02*
D03*
X63660Y265948D02*
D03*
X67260Y269548D02*
D03*
X27875Y268963D02*
D03*
X24275Y265363D02*
D03*
X23975Y260663D02*
D03*
X26775Y256563D02*
D03*
X31875Y255463D02*
D03*
X37575Y255163D02*
D03*
X45675Y255463D02*
D03*
X49375Y259463D02*
D03*
X49575Y264463D02*
D03*
X47075Y268963D02*
D03*
X41975Y270263D02*
D03*
X36475Y270163D02*
D03*
X41745Y255378D02*
D03*
X31775Y270063D02*
D03*
D33*
X350458Y350644D02*
D03*
X333558Y351944D02*
D03*
X334858Y368844D02*
D03*
X351758Y367544D02*
D03*
X354958Y359744D02*
D03*
X342657Y347444D02*
D03*
X330358Y359744D02*
D03*
X342657Y372044D02*
D03*
X222166Y350644D02*
D03*
X205266Y351944D02*
D03*
X206566Y368844D02*
D03*
X223466Y367544D02*
D03*
X226666Y359744D02*
D03*
X214366Y347444D02*
D03*
X202066Y359744D02*
D03*
X214366Y372044D02*
D03*
X305871Y350644D02*
D03*
X288971Y351944D02*
D03*
X290271Y368844D02*
D03*
X307171Y367544D02*
D03*
X310371Y359744D02*
D03*
X298071Y347444D02*
D03*
X285771Y359744D02*
D03*
X298071Y372044D02*
D03*
X85300Y350644D02*
D03*
X68400Y351944D02*
D03*
X69700Y368844D02*
D03*
X86600Y367544D02*
D03*
X89800Y359744D02*
D03*
X77500Y347444D02*
D03*
X65200Y359744D02*
D03*
X77500Y372044D02*
D03*
X178072Y350644D02*
D03*
X161172Y351944D02*
D03*
X162472Y368844D02*
D03*
X179372Y367544D02*
D03*
X182572Y359744D02*
D03*
X170272Y347444D02*
D03*
X157972Y359744D02*
D03*
X170272Y372044D02*
D03*
X40615Y350644D02*
D03*
X23715Y351944D02*
D03*
X25015Y368844D02*
D03*
X41915Y367544D02*
D03*
X45115Y359744D02*
D03*
X32815Y347444D02*
D03*
X20515Y359744D02*
D03*
X32815Y372044D02*
D03*
M02*
