M48
;Layer_Color=9474304
;FILE_FORMAT=2:5
INCH,LZ
;TYPE=PLATED
T1F00S00C0.01500
T2F00S00C0.01575
T3F00S00C0.01968
T4F00S00C0.02362
T5F00S00C0.03000
T6F00S00C0.03150
T7F00S00C0.03543
T8F00S00C0.04724
T9F00S00C0.05118
;TYPE=NON_PLATED
T11F00S00C0.11811
T12F00S00C0.15748
%
T01
X00131Y00308
Y00518
Y00728
X00243Y00623
Y00413
Y00203
X00355Y00308
X00468Y00404
Y00614
X00355Y00518
Y00728
X00471Y0085
X00645Y00835
X00644Y00715
Y00505
Y00295
X00756Y0019
Y004
Y0061
X00868Y00715
X00869Y00835
X00982Y00931
X00869Y01045
X00757Y0094
X00645Y01045
X00471Y0106
X00358Y00964
Y01174
X00471Y0127
X00246Y01279
Y01069
Y00859
X00134Y00964
Y01174
X0119563Y0122437
X01433Y01166
X00981Y00601
X00868Y00505
Y00295
X00981Y00391
Y00181
X0139Y00161
X00468Y00194
X01502Y00056
X01614Y00161
X01826Y00159
X01727Y00047
X01938Y00054
X0205Y00159
X02163Y00045
X02287Y00152
X02399Y00047
X02511Y00152
X0273Y00144
X02624Y00038
X02842Y00039
X02954Y00144
X03016Y01148
X02904Y01253
X02792Y01148
X0253663Y0119737
X0177Y01262
X01657Y01166
X01545Y01271
Y01061
X0177Y01052
X03129Y01244
X0381037Y0118337
X03898Y00442
X03785Y00346
X03673Y00451
Y00241
X03561Y00346
X03898Y00232
X03067Y0003
X03567Y01655
X03667Y01974
X03517Y02036
X02985Y01725
X02775
X0288Y01613
X02775Y01501
X02871Y01388
X02985Y01501
X02364Y01699
X02461Y02013
X023135Y020725
X01526Y01725
X01622Y01612
X01517Y015
X01622Y01388
X01412
Y01612
X01027Y01692
X01127Y02005
X009775Y020715
X00352Y01789
X00142
X00247Y01677
X00142Y01565
X00134Y01384
X00238Y01452
X00358Y01384
X00352Y01565
X0112496Y0377165
X01355Y0376
X0246158Y0376181
X0265Y03755
X0374876Y0368776
X03891Y03725
T02
X0307198Y0255378
X0311128Y0255463
X0314828Y0259463
X0315028Y0264463
X0312528Y0268963
X0307428Y0270263
X0329113Y0265948
X0328813Y0261248
X0331613Y0257148
X0336713Y0256048
X0342413Y0255748
X0346583Y0255963
X0350513Y0256048
X0354213Y0260048
X0354413Y0265048
X0351913Y0269548
X0346813Y0270848
X0341313Y0270748
X0336613Y0270648
X0332713Y0269548
X0301928Y0270163
X0297228Y0270063
X0293328Y0268963
X0289728Y0265363
X0289428Y0260663
X0292228Y0256563
X0297328Y0255463
X0303028Y0255163
X0219663Y0256048
X0215733Y0255963
X0211563Y0255748
X0205863Y0256048
X0200763Y0257148
X0197963Y0261248
X0198263Y0265948
X0201863Y0269548
X0205763Y0270648
X0210463Y0270748
X0215963Y0270848
X0221063Y0269548
X0223563Y0265048
X0223363Y0260048
X0183977Y0259463
X0184177Y0264463
X0181677Y0268963
X0176577Y0270263
X0171078Y0270163
X0166377Y0270063
X0162478Y0268963
X0158878Y0265363
X0158578Y0260663
X0161378Y0256563
X0166478Y0255463
X0172178Y0255163
X0176348Y0255378
X0180278Y0255463
X008506Y0256048
X008113Y0255963
X007696Y0255748
X007126Y0256048
X006616Y0257148
X006336Y0261248
X006366Y0265948
X006726Y0269548
X007116Y0270648
X007586Y0270748
X008136Y0270848
X008646Y0269548
X008896Y0265048
X008876Y0260048
X0049375Y0259463
X0049575Y0264463
X0047075Y0268963
X0041975Y0270263
X0036475Y0270163
X0031775Y0270063
X0027875Y0268963
X0024275Y0265363
X0023975Y0260663
X0026775Y0256563
X0031875Y0255463
X0037575Y0255163
X0041745Y0255378
X0045675Y0255463
T03
X0023715Y0351944
X0020515Y0359744
X0025015Y0368844
X0032815Y0372044
X0041915Y0367544
X0045115Y0359744
X0040615Y0350644
X0032815Y0347444
X00684Y0351944
X00652Y0359744
X00697Y0368844
X00775Y0372044
X00866Y0367544
X00898Y0359744
X00853Y0350644
X00775Y0347444
X0161172Y0351944
X0157972Y0359744
X0162472Y0368844
X0170272Y0372044
X0179372Y0367544
X0182572Y0359744
X0178072Y0350644
X0170272Y0347444
X0205266Y0351944
X0202066Y0359744
X0206566Y0368844
X0214366Y0372044
X0223466Y0367544
X0226666Y0359744
X0222166Y0350644
X0214366Y0347444
X0288971Y0351944
X0285771Y0359744
X0290271Y0368844
X0298071Y0372044
Y0347444
X0305871Y0350644
X0310371Y0359744
X0307171Y0367544
X0334858Y0368844
X0342657Y0372044
X0351758Y0367544
X0354958Y0359744
X0350458Y0350644
X0342657Y0347444
X0333558Y0351944
X0330358Y0359744
T04
X01606Y00271
X01706
X01806
X01906
X02006
X02106
X02206
X02306
X02406
X02506
X02606
X02706
X02806
X02906
X03006
Y00871
X02906
X02806
X02706
X02606
X02506
X02406
X02306
X02206
X02106
X02006
X01906
X01806
X01706
X01606
X03106
X03206
X03306
X03406
X03506
Y00271
X03406
X03306
X03206
X03106
T05
X03776Y0163978
Y0171852
Y01876
Y0203348
X02578Y0203548
Y01878
Y0172052
Y0164178
X01245Y0165078
Y0172952
Y01887
Y0204448
T06
X0314005Y0179855
X0321898Y0179805
X0329805Y0179855
X0198955Y0179855
X0191048Y0179805
X0183155Y0179855
X0064353Y0179855
X0056445Y0179805
X0048553Y0179855
T07
X00733Y01324
X00833
X00933
X01033
X01133
X01233
X02081Y01299
X02181
X02281
X02381
X02481
X02581
X03367Y01316
X03467
X03567
X03667
X03767
X03867
T08
X0098257Y00283
X0117943
T09
X0306906Y0287323
X0336906
X0206055Y0287421
X0176055
X0071453Y0287323
X0041453
Y0317323
X0071453
X0176055Y0317421
X0206055
X0306906Y0317323
X0336906
T11
X0007874Y0007874
X0385827
X0007874Y0385827
X0385827
T12
X0032815Y0359744
X00775
X0170272Y0359744
X0214366
X0298071Y0359744
X0342657
M30
