G04 Layer_Color=65535*
%FSLAX25Y25*%
%MOIN*%
G70*
G01*
G75*
%ADD40C,0.00787*%
%ADD41C,0.00500*%
%ADD42C,0.01000*%
D40*
X127785Y13536D02*
Y43064D01*
X88415Y13536D02*
Y43064D01*
Y13536D02*
X127785D01*
X88415Y43064D02*
X127785D01*
X355741Y154500D02*
X360859D01*
X331700Y126600D02*
Y136600D01*
X391700Y126600D02*
Y136600D01*
X331700Y126600D02*
X391700D01*
X331700Y136600D02*
X391700D01*
X233741Y157400D02*
X238859D01*
X203100Y124900D02*
Y134900D01*
X263100Y124900D02*
Y134900D01*
X203100Y124900D02*
X263100D01*
X203100Y134900D02*
X263100D01*
X100141Y156500D02*
X105259D01*
X155600Y35309D02*
Y78800D01*
Y78891D02*
X355600D01*
Y35309D02*
Y78891D01*
X155600Y35309D02*
X355600D01*
X346700Y48600D02*
X355300D01*
X345000Y50300D02*
X346700Y48600D01*
X345000Y50300D02*
Y66200D01*
X346500Y67700D01*
X355400D01*
X68300Y127400D02*
Y137400D01*
X128300Y127400D02*
Y137400D01*
X68300Y127400D02*
X128300D01*
X68300Y137400D02*
X128300D01*
X372317Y358769D02*
X377435D01*
X372317Y340797D02*
X377435D01*
X372317Y322824D02*
X377435D01*
X372317Y304852D02*
X377435D01*
X372317Y286879D02*
X377435D01*
X372317Y268907D02*
X377435D01*
X372317Y250935D02*
X377435D01*
X2741Y362763D02*
X7859D01*
X2741Y344791D02*
X7859D01*
X2741Y326818D02*
X7859D01*
X2741Y308846D02*
X7859D01*
X2741Y290873D02*
X7859D01*
X2741Y272901D02*
X7859D01*
X2741Y254928D02*
X7859D01*
X265216Y364169D02*
X270335D01*
X265216Y346197D02*
X270335D01*
X265216Y328224D02*
X270335D01*
X265216Y310252D02*
X270335D01*
X265216Y292280D02*
X270335D01*
X265216Y274307D02*
X270335D01*
X265216Y256335D02*
X270335D01*
X134941Y364000D02*
X140059D01*
X134941Y346028D02*
X140059D01*
X134941Y328055D02*
X140059D01*
X134941Y274138D02*
X140059D01*
X134941Y256165D02*
X140059D01*
X134941Y292110D02*
X140059D01*
X134941Y310083D02*
X140059D01*
X291905Y393323D02*
X351905D01*
Y279323D02*
Y393323D01*
X291905Y279323D02*
X351905D01*
X291905D02*
Y393323D01*
X161055Y393421D02*
X221055D01*
Y279421D02*
Y393421D01*
X161055Y279421D02*
X221055D01*
X161055D02*
Y393421D01*
X26453Y393323D02*
X86453D01*
Y279323D02*
Y393323D01*
X26453Y279323D02*
X86453D01*
X26453D02*
Y393323D01*
X305213Y165650D02*
X310331D01*
X174799Y165650D02*
X179917D01*
X41039Y165551D02*
X46158D01*
X107575Y256004D02*
X112693D01*
X107575Y274173D02*
X112693D01*
X107575Y292342D02*
X112693D01*
X107575Y310512D02*
X112693D01*
X107575Y328681D02*
X112693D01*
X107575Y346850D02*
X112693D01*
X241827Y256004D02*
X246945D01*
X241827Y274173D02*
X246945D01*
X241827Y292342D02*
X246945D01*
X241827Y310512D02*
X246945D01*
X241827Y328681D02*
X246945D01*
X241827Y346850D02*
X246945D01*
X107673Y365059D02*
X112791D01*
X241712Y364347D02*
X246830D01*
D41*
X362296Y146764D02*
Y162236D01*
X354304Y146764D02*
X362296D01*
X354304D02*
Y162236D01*
X362296D01*
X218905Y140850D02*
Y148950D01*
Y140850D02*
X234095D01*
X218905Y148950D02*
X234095D01*
Y140850D02*
Y148950D01*
X240296Y149664D02*
Y165136D01*
X232304Y149664D02*
X240296D01*
X232304D02*
Y165136D01*
X240296D01*
X343505Y137550D02*
Y145650D01*
Y137550D02*
X358695D01*
X343505Y145650D02*
X358695D01*
Y137550D02*
Y145650D01*
X83805Y139950D02*
Y148050D01*
Y139950D02*
X98995D01*
X83805Y148050D02*
X98995D01*
Y139950D02*
Y148050D01*
X106696Y148764D02*
Y164236D01*
X98704Y148764D02*
X106696D01*
X98704D02*
Y164236D01*
X106696D01*
X369555Y200050D02*
Y208150D01*
X354365D02*
X369555D01*
X354365Y200050D02*
X369555D01*
X354365D02*
Y208150D01*
X370880Y351033D02*
Y366506D01*
X378872D01*
Y351033D02*
Y366506D01*
X370880Y351033D02*
X378872D01*
X370880Y333061D02*
Y348533D01*
X378872D01*
Y333061D02*
Y348533D01*
X370880Y333061D02*
X378872D01*
X370880Y315088D02*
Y330561D01*
X378872D01*
Y315088D02*
Y330561D01*
X370880Y315088D02*
X378872D01*
X370880Y297116D02*
Y312588D01*
X378872D01*
Y297116D02*
Y312588D01*
X370880Y297116D02*
X378872D01*
X370880Y279143D02*
Y294616D01*
X378872D01*
Y279143D02*
Y294616D01*
X370880Y279143D02*
X378872D01*
X370880Y261171D02*
Y276643D01*
X378872D01*
Y261171D02*
Y276643D01*
X370880Y261171D02*
X378872D01*
X370880Y243198D02*
Y258671D01*
X378872D01*
Y243198D02*
Y258671D01*
X370880Y243198D02*
X378872D01*
X1304Y355027D02*
Y370499D01*
X9296D01*
Y355027D02*
Y370499D01*
X1304Y355027D02*
X9296D01*
X1304Y337054D02*
Y352527D01*
X9296D01*
Y337054D02*
Y352527D01*
X1304Y337054D02*
X9296D01*
X1304Y319082D02*
Y334554D01*
X9296D01*
Y319082D02*
Y334554D01*
X1304Y319082D02*
X9296D01*
X1304Y301109D02*
Y316582D01*
X9296D01*
Y301109D02*
Y316582D01*
X1304Y301109D02*
X9296D01*
X1304Y283137D02*
Y298609D01*
X9296D01*
Y283137D02*
Y298609D01*
X1304Y283137D02*
X9296D01*
X1304Y265165D02*
Y280637D01*
X9296D01*
Y265165D02*
Y280637D01*
X1304Y265165D02*
X9296D01*
X1304Y247192D02*
Y262665D01*
X9296D01*
Y247192D02*
Y262665D01*
X1304Y247192D02*
X9296D01*
X263779Y356433D02*
Y371905D01*
X271772D01*
Y356433D02*
Y371905D01*
X263779Y356433D02*
X271772D01*
X263779Y338461D02*
Y353933D01*
X271772D01*
Y338461D02*
Y353933D01*
X263779Y338461D02*
X271772D01*
X263779Y320488D02*
Y335961D01*
X271772D01*
Y320488D02*
Y335961D01*
X263779Y320488D02*
X271772D01*
X263779Y302516D02*
Y317988D01*
X271772D01*
Y302516D02*
Y317988D01*
X263779Y302516D02*
X271772D01*
X263779Y284543D02*
Y300016D01*
X271772D01*
Y284543D02*
Y300016D01*
X263779Y284543D02*
X271772D01*
X263779Y266571D02*
Y282043D01*
X271772D01*
Y266571D02*
Y282043D01*
X263779Y266571D02*
X271772D01*
X263779Y248598D02*
Y264071D01*
X271772D01*
Y248598D02*
Y264071D01*
X263779Y248598D02*
X271772D01*
X249595Y203250D02*
Y211350D01*
X234405D02*
X249595D01*
X234405Y203250D02*
X249595D01*
X234405D02*
Y211350D01*
X116595Y203450D02*
Y211550D01*
X101405D02*
X116595D01*
X101405Y203450D02*
X116595D01*
X101405D02*
Y211550D01*
X133504Y356264D02*
Y371736D01*
X141496D01*
Y356264D02*
Y371736D01*
X133504Y356264D02*
X141496D01*
X133504Y338291D02*
Y353764D01*
X141496D01*
Y338291D02*
Y353764D01*
X133504Y338291D02*
X141496D01*
X133504Y320319D02*
Y335791D01*
X141496D01*
Y320319D02*
Y335791D01*
X133504Y320319D02*
X141496D01*
X133504Y266402D02*
Y281874D01*
X141496D01*
Y266402D02*
Y281874D01*
X133504Y266402D02*
X141496D01*
X133504Y248429D02*
Y263902D01*
X141496D01*
Y248429D02*
Y263902D01*
X133504Y248429D02*
X141496D01*
X133504Y284374D02*
Y299847D01*
X141496D01*
Y284374D02*
Y299847D01*
X133504Y284374D02*
X141496D01*
X133504Y302346D02*
Y317819D01*
X141496D01*
Y302346D02*
Y317819D01*
X133504Y302346D02*
X141496D01*
X303776Y173386D02*
X311768D01*
X303776Y157913D02*
Y173386D01*
Y157913D02*
X311768D01*
Y173386D01*
X173362Y173386D02*
X181354D01*
X173362Y157913D02*
Y173386D01*
Y157913D02*
X181354D01*
Y173386D01*
X39602Y173287D02*
X47594D01*
X39602Y157815D02*
Y173287D01*
Y157815D02*
X47594D01*
Y173287D01*
X106138Y248268D02*
X114130D01*
Y263740D01*
X106138D02*
X114130D01*
X106138Y248268D02*
Y263740D01*
Y266437D02*
X114130D01*
Y281909D01*
X106138D02*
X114130D01*
X106138Y266437D02*
Y281909D01*
Y284606D02*
X114130D01*
Y300079D01*
X106138D02*
X114130D01*
X106138Y284606D02*
Y300079D01*
Y302776D02*
X114130D01*
Y318248D01*
X106138D02*
X114130D01*
X106138Y302776D02*
Y318248D01*
Y320945D02*
X114130D01*
Y336417D01*
X106138D02*
X114130D01*
X106138Y320945D02*
Y336417D01*
Y339114D02*
X114130D01*
Y354587D01*
X106138D02*
X114130D01*
X106138Y339114D02*
Y354587D01*
X240390Y248268D02*
X248382D01*
Y263740D01*
X240390D02*
X248382D01*
X240390Y248268D02*
Y263740D01*
Y266437D02*
X248382D01*
Y281909D01*
X240390D02*
X248382D01*
X240390Y266437D02*
Y281909D01*
Y284606D02*
X248382D01*
Y300079D01*
X240390D02*
X248382D01*
X240390Y284606D02*
Y300079D01*
Y302776D02*
X248382D01*
Y318248D01*
X240390D02*
X248382D01*
X240390Y302776D02*
Y318248D01*
Y320945D02*
X248382D01*
Y336417D01*
X240390D02*
X248382D01*
X240390Y320945D02*
Y336417D01*
Y339114D02*
X248382D01*
Y354587D01*
X240390D02*
X248382D01*
X240390Y339114D02*
Y354587D01*
X106236Y357323D02*
X114228D01*
Y372795D01*
X106236D02*
X114228D01*
X106236Y357323D02*
Y372795D01*
X240275Y356610D02*
X248267D01*
Y372083D01*
X240275D02*
X248267D01*
X240275Y356610D02*
Y372083D01*
X333195Y160250D02*
Y168350D01*
X318005D02*
X333195D01*
X318005Y160250D02*
X333195D01*
X318005D02*
Y168350D01*
X321764Y146737D02*
Y154837D01*
X306574D02*
X321764D01*
X306574Y146737D02*
X321764D01*
X306574D02*
Y154837D01*
X68595Y162550D02*
Y170650D01*
X53405D02*
X68595D01*
X53405Y162550D02*
X68595D01*
X53405D02*
Y170650D01*
X191253Y146737D02*
Y154837D01*
X176063D02*
X191253D01*
X176063Y146737D02*
X191253D01*
X176063D02*
Y154837D01*
X203295Y160250D02*
Y168350D01*
X188105D02*
X203295D01*
X188105Y160250D02*
X203295D01*
X188105D02*
Y168350D01*
X57394Y146639D02*
Y154739D01*
X42204D02*
X57394D01*
X42204Y146639D02*
X57394D01*
X42204D02*
Y154739D01*
D42*
X294005Y244155D02*
X349006D01*
X294005Y188755D02*
Y244155D01*
Y188755D02*
X349006D01*
Y244155D01*
X163155Y244155D02*
X218155D01*
X163155Y188755D02*
Y244155D01*
Y188755D02*
X218155D01*
Y244155D01*
X28553Y244155D02*
X83553D01*
X28553Y188755D02*
Y244155D01*
Y188755D02*
X83553D01*
Y244155D01*
X86769Y49124D02*
Y55123D01*
X89768D01*
X90768Y54123D01*
Y52123D01*
X89768Y51124D01*
X86769D01*
X95766Y49124D02*
Y55123D01*
X92767Y52123D01*
X96766D01*
X249000Y148900D02*
X243002D01*
Y151899D01*
X244002Y152899D01*
X246001D01*
X247001Y151899D01*
Y148900D01*
Y150899D02*
X249000Y152899D01*
Y158897D02*
Y154898D01*
X245001Y158897D01*
X244002D01*
X243002Y157897D01*
Y155898D01*
X244002Y154898D01*
Y160896D02*
X243002Y161896D01*
Y163895D01*
X244002Y164895D01*
X248000D01*
X249000Y163895D01*
Y161896D01*
X248000Y160896D01*
X244002D01*
X370500Y147400D02*
X364502D01*
Y150399D01*
X365502Y151399D01*
X367501D01*
X368501Y150399D01*
Y147400D01*
Y149399D02*
X370500Y151399D01*
Y153398D02*
Y155397D01*
Y154398D01*
X364502D01*
X365502Y153398D01*
Y158396D02*
X364502Y159396D01*
Y161396D01*
X365502Y162395D01*
X366501D01*
X367501Y161396D01*
X368501Y162395D01*
X369500D01*
X370500Y161396D01*
Y159396D01*
X369500Y158396D01*
X368501D01*
X367501Y159396D01*
X366501Y158396D01*
X365502D01*
X367501Y159396D02*
Y161396D01*
X218999Y155998D02*
X217999Y156998D01*
X216000D01*
X215000Y155998D01*
Y152000D01*
X216000Y151000D01*
X217999D01*
X218999Y152000D01*
X224997Y151000D02*
X220998D01*
X224997Y154999D01*
Y155998D01*
X223997Y156998D01*
X221998D01*
X220998Y155998D01*
X226996D02*
X227996Y156998D01*
X229995D01*
X230995Y155998D01*
Y152000D01*
X229995Y151000D01*
X227996D01*
X226996Y152000D01*
Y155998D01*
X338799Y154298D02*
X337799Y155298D01*
X335800D01*
X334800Y154298D01*
Y150300D01*
X335800Y149300D01*
X337799D01*
X338799Y150300D01*
X340798Y149300D02*
X342797D01*
X341798D01*
Y155298D01*
X340798Y154298D01*
X349795Y155298D02*
X345796D01*
Y152299D01*
X347796Y153299D01*
X348796D01*
X349795Y152299D01*
Y150300D01*
X348796Y149300D01*
X346796D01*
X345796Y150300D01*
X114800Y150000D02*
X108802D01*
Y152999D01*
X109802Y153999D01*
X111801D01*
X112801Y152999D01*
Y150000D01*
Y151999D02*
X114800Y153999D01*
Y155998D02*
Y157997D01*
Y156998D01*
X108802D01*
X109802Y155998D01*
Y160996D02*
X108802Y161996D01*
Y163996D01*
X109802Y164995D01*
X110801D01*
X111801Y163996D01*
Y162996D01*
Y163996D01*
X112801Y164995D01*
X113800D01*
X114800Y163996D01*
Y161996D01*
X113800Y160996D01*
X85299Y155098D02*
X84299Y156098D01*
X82300D01*
X81300Y155098D01*
Y151100D01*
X82300Y150100D01*
X84299D01*
X85299Y151100D01*
X87298Y150100D02*
X89297D01*
X88298D01*
Y156098D01*
X87298Y155098D01*
X92296D02*
X93296Y156098D01*
X95296D01*
X96295Y155098D01*
Y151100D01*
X95296Y150100D01*
X93296D01*
X92296Y151100D01*
Y155098D01*
X142568Y111123D02*
X141568Y112122D01*
X139569D01*
X138569Y111123D01*
Y110123D01*
X139569Y109123D01*
X141568D01*
X142568Y108124D01*
Y107124D01*
X141568Y106124D01*
X139569D01*
X138569Y107124D01*
X144567Y112122D02*
X148566D01*
X146567D01*
Y106124D01*
X150565D02*
Y112122D01*
X152565Y110123D01*
X154564Y112122D01*
Y106124D01*
X156563D02*
X158563D01*
X157563D01*
Y112122D01*
X156563Y111123D01*
X333500Y119600D02*
Y125598D01*
X336499D01*
X337499Y124598D01*
Y122599D01*
X336499Y121599D01*
X333500D01*
X339498Y119600D02*
X341497D01*
X340498D01*
Y125598D01*
X339498Y124598D01*
X203400Y116600D02*
Y122598D01*
X206399D01*
X207399Y121598D01*
Y119599D01*
X206399Y118599D01*
X203400D01*
X213397Y116600D02*
X209398D01*
X213397Y120599D01*
Y121598D01*
X212397Y122598D01*
X210398D01*
X209398Y121598D01*
X68900Y118900D02*
Y124898D01*
X71899D01*
X72899Y123898D01*
Y121899D01*
X71899Y120899D01*
X68900D01*
X74898Y123898D02*
X75898Y124898D01*
X77897D01*
X78897Y123898D01*
Y122899D01*
X77897Y121899D01*
X76897D01*
X77897D01*
X78897Y120899D01*
Y119900D01*
X77897Y118900D01*
X75898D01*
X74898Y119900D01*
X117260Y226127D02*
Y221129D01*
X118260Y220129D01*
X120259D01*
X121258Y221129D01*
Y226127D01*
X123258Y220129D02*
X125257D01*
X124258D01*
Y226127D01*
X123258Y225128D01*
X370400Y225076D02*
Y220078D01*
X371400Y219078D01*
X373399D01*
X374399Y220078D01*
Y225076D01*
X376398Y224076D02*
X377398Y225076D01*
X379397D01*
X380397Y224076D01*
Y223077D01*
X379397Y222077D01*
X378397D01*
X379397D01*
X380397Y221077D01*
Y220078D01*
X379397Y219078D01*
X377398D01*
X376398Y220078D01*
X250569Y225222D02*
Y220224D01*
X251569Y219224D01*
X253568D01*
X254568Y220224D01*
Y225222D01*
X260566D02*
X256567D01*
Y222223D01*
X258567Y223223D01*
X259566D01*
X260566Y222223D01*
Y220224D01*
X259566Y219224D01*
X257567D01*
X256567Y220224D01*
X360699Y196498D02*
X359699Y197498D01*
X357700D01*
X356700Y196498D01*
Y192500D01*
X357700Y191500D01*
X359699D01*
X360699Y192500D01*
X362698Y191500D02*
X364697D01*
X363698D01*
Y197498D01*
X362698Y196498D01*
X371695Y191500D02*
X367696D01*
X371695Y195499D01*
Y196498D01*
X370695Y197498D01*
X368696D01*
X367696Y196498D01*
X239168Y219623D02*
X238168Y220622D01*
X236169D01*
X235169Y219623D01*
Y215624D01*
X236169Y214624D01*
X238168D01*
X239168Y215624D01*
X241167Y214624D02*
X243167D01*
X242167D01*
Y220622D01*
X241167Y219623D01*
X246166Y220622D02*
X250164D01*
Y219623D01*
X246166Y215624D01*
Y214624D01*
X106168Y219823D02*
X105168Y220823D01*
X103169D01*
X102169Y219823D01*
Y215824D01*
X103169Y214824D01*
X105168D01*
X106168Y215824D01*
X108167Y220823D02*
X112166D01*
Y219823D01*
X108167Y215824D01*
Y214824D01*
X37299Y161417D02*
X31301D01*
Y164416D01*
X32301Y165416D01*
X34300D01*
X35300Y164416D01*
Y161417D01*
Y163417D02*
X37299Y165416D01*
X31301Y167415D02*
Y171414D01*
X32301D01*
X36299Y167415D01*
X37299D01*
X169976Y162106D02*
X163978D01*
Y165105D01*
X164978Y166105D01*
X166977D01*
X167977Y165105D01*
Y162106D01*
Y164106D02*
X169976Y166105D01*
Y171103D02*
X163978D01*
X166977Y168104D01*
Y172103D01*
X300488Y161614D02*
X294490D01*
Y164613D01*
X295490Y165613D01*
X297489D01*
X298489Y164613D01*
Y161614D01*
Y163613D02*
X300488Y165613D01*
Y167612D02*
Y169612D01*
Y168612D01*
X294490D01*
X295490Y167612D01*
X45999Y142898D02*
X44999Y143898D01*
X43000D01*
X42000Y142898D01*
Y138900D01*
X43000Y137900D01*
X44999D01*
X45999Y138900D01*
X51997Y143898D02*
X49997Y142898D01*
X47998Y140899D01*
Y138900D01*
X48998Y137900D01*
X50997D01*
X51997Y138900D01*
Y139899D01*
X50997Y140899D01*
X47998D01*
X212954Y165827D02*
X211954Y166826D01*
X209955D01*
X208955Y165827D01*
Y161828D01*
X209955Y160828D01*
X211954D01*
X212954Y161828D01*
X218952Y166826D02*
X214953D01*
Y163827D01*
X216952Y164827D01*
X217952D01*
X218952Y163827D01*
Y161828D01*
X217952Y160828D01*
X215953D01*
X214953Y161828D01*
X182099Y142698D02*
X181099Y143698D01*
X179100D01*
X178100Y142698D01*
Y138700D01*
X179100Y137700D01*
X181099D01*
X182099Y138700D01*
X187097Y137700D02*
Y143698D01*
X184098Y140699D01*
X188097D01*
X77204Y168825D02*
X76205Y169825D01*
X74205D01*
X73206Y168825D01*
Y164826D01*
X74205Y163827D01*
X76205D01*
X77204Y164826D01*
X79204Y168825D02*
X80203Y169825D01*
X82203D01*
X83202Y168825D01*
Y167825D01*
X82203Y166826D01*
X81203D01*
X82203D01*
X83202Y165826D01*
Y164826D01*
X82203Y163827D01*
X80203D01*
X79204Y164826D01*
X311699Y142698D02*
X310699Y143698D01*
X308700D01*
X307700Y142698D01*
Y138700D01*
X308700Y137700D01*
X310699D01*
X311699Y138700D01*
X317697Y137700D02*
X313698D01*
X317697Y141699D01*
Y142698D01*
X316697Y143698D01*
X314698D01*
X313698Y142698D01*
X341739Y166827D02*
X340739Y167826D01*
X338740D01*
X337740Y166827D01*
Y162828D01*
X338740Y161828D01*
X340739D01*
X341739Y162828D01*
X343738Y161828D02*
X345738D01*
X344738D01*
Y167826D01*
X343738Y166827D01*
X14825Y285495D02*
X13825Y284495D01*
Y282496D01*
X14825Y281496D01*
X18823D01*
X19823Y282496D01*
Y284495D01*
X18823Y285495D01*
X14825Y291493D02*
X13825Y290493D01*
Y288494D01*
X14825Y287494D01*
X18823D01*
X19823Y288494D01*
Y290493D01*
X18823Y291493D01*
X14825Y293492D02*
X13825Y294492D01*
Y296491D01*
X14825Y297491D01*
X15824D01*
X16824Y296491D01*
Y295492D01*
Y296491D01*
X17823Y297491D01*
X18823D01*
X19823Y296491D01*
Y294492D01*
X18823Y293492D01*
X150510Y292483D02*
X149510Y291483D01*
Y289484D01*
X150510Y288484D01*
X154508D01*
X155508Y289484D01*
Y291483D01*
X154508Y292483D01*
X150510Y298481D02*
X149510Y297481D01*
Y295482D01*
X150510Y294482D01*
X154508D01*
X155508Y295482D01*
Y297481D01*
X154508Y298481D01*
X155508Y304479D02*
Y300480D01*
X151509Y304479D01*
X150510D01*
X149510Y303479D01*
Y301480D01*
X150510Y300480D01*
X282639Y292778D02*
X281640Y291779D01*
Y289779D01*
X282639Y288779D01*
X286638D01*
X287638Y289779D01*
Y291779D01*
X286638Y292778D01*
X282639Y298776D02*
X281640Y297777D01*
Y295777D01*
X282639Y294778D01*
X286638D01*
X287638Y295777D01*
Y297777D01*
X286638Y298776D01*
X287638Y300776D02*
Y302775D01*
Y301775D01*
X281640D01*
X282639Y300776D01*
X18445Y373622D02*
X12447D01*
Y376621D01*
X13446Y377621D01*
X15446D01*
X16446Y376621D01*
Y373622D01*
X12447Y379620D02*
X18445D01*
X15446D01*
X14446Y380620D01*
Y382619D01*
X15446Y383619D01*
X18445D01*
X13446Y385618D02*
X12447Y386618D01*
Y388617D01*
X13446Y389617D01*
X14446D01*
X15446Y388617D01*
Y387617D01*
Y388617D01*
X16446Y389617D01*
X17445D01*
X18445Y388617D01*
Y386618D01*
X17445Y385618D01*
X157181Y372539D02*
X151183D01*
Y375538D01*
X152183Y376538D01*
X154182D01*
X155182Y375538D01*
Y372539D01*
X151183Y378537D02*
X157181D01*
X154182D01*
X153182Y379537D01*
Y381537D01*
X154182Y382536D01*
X157181D01*
Y388534D02*
Y384536D01*
X153182Y388534D01*
X152183D01*
X151183Y387534D01*
Y385535D01*
X152183Y384536D01*
X286949Y375000D02*
X280951D01*
Y377999D01*
X281950Y378999D01*
X283950D01*
X284949Y377999D01*
Y375000D01*
X280951Y380998D02*
X286949D01*
X283950D01*
X282950Y381998D01*
Y383997D01*
X283950Y384997D01*
X286949D01*
Y386996D02*
Y388996D01*
Y387996D01*
X280951D01*
X281950Y386996D01*
M02*
