G04 Layer_Color=16711935*
%FSLAX25Y25*%
%MOIN*%
G70*
G01*
G75*
%ADD40C,0.00787*%
%ADD61C,0.00394*%
D40*
X117900Y159178D02*
X139600D01*
X139500Y159278D02*
X139600Y159178D01*
X139500Y159278D02*
Y216678D01*
X139400Y216778D02*
X139500Y216678D01*
X116800Y216778D02*
X139400D01*
X116700Y216678D02*
X116800Y216778D01*
X116700Y160378D02*
Y216678D01*
Y160378D02*
X117900Y159178D01*
X369800Y159278D02*
X371000Y158078D01*
X369800Y159278D02*
Y215578D01*
X369900Y215678D01*
X392500D01*
X392600Y215578D01*
Y158178D02*
Y215578D01*
Y158178D02*
X392700Y158078D01*
X371000D02*
X392700D01*
X250000Y159478D02*
X251200Y158278D01*
X250000Y159478D02*
Y215778D01*
X250100Y215878D01*
X272700D01*
X272800Y215778D01*
Y158378D02*
Y215778D01*
Y158378D02*
X272900Y158278D01*
X251200D02*
X272900D01*
X300Y300D02*
Y393400D01*
X393700D01*
Y300D02*
Y393400D01*
X300Y300D02*
X393700D01*
D61*
X81044Y122932D02*
X86556D01*
X81044Y114468D02*
X86556D01*
X81044D02*
Y122932D01*
X86556Y114468D02*
Y122932D01*
X90044Y114368D02*
X95556D01*
X90044Y122832D02*
X95556D01*
Y114368D02*
Y122832D01*
X90044Y114368D02*
Y122832D01*
X109644Y122732D02*
X115156D01*
X109644Y114268D02*
X115156D01*
X109644D02*
Y122732D01*
X115156Y114268D02*
Y122732D01*
X100544Y114568D02*
X106056D01*
X100544Y123032D02*
X106056D01*
Y114568D02*
Y123032D01*
X100544Y114568D02*
Y123032D01*
X243944Y120032D02*
X249456D01*
X243944Y111568D02*
X249456D01*
X243944D02*
Y120032D01*
X249456Y111568D02*
Y120032D01*
X225344Y111768D02*
X230856D01*
X225344Y120232D02*
X230856D01*
Y111768D02*
Y120232D01*
X225344Y111768D02*
Y120232D01*
X216344Y120232D02*
X221856D01*
X216344Y111768D02*
X221856D01*
X216344D02*
Y120232D01*
X221856Y111768D02*
Y120232D01*
X234744Y111668D02*
X240256D01*
X234744Y120132D02*
X240256D01*
Y111668D02*
Y120132D01*
X234744Y111668D02*
Y120132D01*
X344544Y118932D02*
X350056D01*
X344544Y110468D02*
X350056D01*
X344544D02*
Y118932D01*
X350056Y110468D02*
Y118932D01*
X353744Y110268D02*
X359256D01*
X353744Y118732D02*
X359256D01*
Y110268D02*
Y118732D01*
X353744Y110268D02*
Y118732D01*
X363344Y110168D02*
X368856D01*
X363344Y118632D02*
X368856D01*
Y110168D02*
Y118632D01*
X363344Y110168D02*
Y118632D01*
X372244Y118632D02*
X377756D01*
X372244Y110168D02*
X377756D01*
X372244D02*
Y118632D01*
X377756Y110168D02*
Y118632D01*
X355544Y158732D02*
X361056D01*
X355544Y150268D02*
X361056D01*
Y158732D01*
X355544Y150268D02*
Y158732D01*
X222169Y142046D02*
X230831D01*
X222169Y147754D02*
X230831D01*
Y142046D02*
Y147754D01*
X222169Y142046D02*
Y147754D01*
X233544Y161632D02*
X239056D01*
X233544Y153168D02*
X239056D01*
Y161632D01*
X233544Y153168D02*
Y161632D01*
X346769Y138746D02*
X355431D01*
X346769Y144454D02*
X355431D01*
Y138746D02*
Y144454D01*
X346769Y138746D02*
Y144454D01*
X87069Y141146D02*
X95731D01*
X87069Y146854D02*
X95731D01*
Y141146D02*
Y146854D01*
X87069Y141146D02*
Y146854D01*
X99944Y160732D02*
X105456D01*
X99944Y152268D02*
X105456D01*
Y160732D01*
X99944Y152268D02*
Y160732D01*
X272754Y161909D02*
Y170571D01*
X267046Y161909D02*
Y170571D01*
Y161909D02*
X272754D01*
X267046Y170571D02*
X272754D01*
X391254Y161869D02*
Y170531D01*
X385546Y161869D02*
Y170531D01*
Y161869D02*
X391254D01*
X385546Y170531D02*
X391254D01*
X139054Y163569D02*
Y172231D01*
X133346Y163569D02*
Y172231D01*
Y163569D02*
X139054D01*
X133346Y172231D02*
X139054D01*
X132546Y191169D02*
Y199831D01*
X138254Y191169D02*
Y199831D01*
X132546D02*
X138254D01*
X132546Y191169D02*
X138254D01*
X267446Y190969D02*
Y199631D01*
X273154Y190969D02*
Y199631D01*
X267446D02*
X273154D01*
X267446Y190969D02*
X273154D01*
X367554Y225369D02*
Y234031D01*
X361846Y225369D02*
Y234031D01*
Y225369D02*
X367554D01*
X361846Y234031D02*
X367554D01*
X372644Y234432D02*
X378156D01*
X372644Y225968D02*
X378156D01*
X372644D02*
Y234432D01*
X378156Y225968D02*
Y234432D01*
X357629Y206954D02*
X366290D01*
X357629Y201246D02*
X366290D01*
X357629D02*
Y206954D01*
X366290Y201246D02*
Y206954D01*
X385846Y190869D02*
Y199531D01*
X391554Y190869D02*
Y199531D01*
X385846D02*
X391554D01*
X385846Y190869D02*
X391554D01*
X372520Y251063D02*
X378031D01*
X372520Y242598D02*
X378031D01*
X372520D02*
Y251063D01*
X378031Y242598D02*
Y251063D01*
X372520Y269035D02*
X378031D01*
X372520Y260571D02*
X378031D01*
X372520D02*
Y269035D01*
X378031Y260571D02*
Y269035D01*
X372520Y287008D02*
X378031D01*
X372520Y278543D02*
X378031D01*
X372520D02*
Y287008D01*
X378031Y278543D02*
Y287008D01*
X372520Y304980D02*
X378031D01*
X372520Y296516D02*
X378031D01*
X372520D02*
Y304980D01*
X378031Y296516D02*
Y304980D01*
X372520Y322953D02*
X378031D01*
X372520Y314488D02*
X378031D01*
X372520D02*
Y322953D01*
X378031Y314488D02*
Y322953D01*
X372520Y340925D02*
X378031D01*
X372520Y332461D02*
X378031D01*
X372520D02*
Y340925D01*
X378031Y332461D02*
Y340925D01*
X372520Y358898D02*
X378031D01*
X372520Y350433D02*
X378031D01*
X372520D02*
Y358898D01*
X378031Y350433D02*
Y358898D01*
X372120Y354537D02*
X377631D01*
X372120Y363002D02*
X377631D01*
X372120Y354537D02*
Y363002D01*
X377631Y354537D02*
Y363002D01*
X372120Y336565D02*
X377631D01*
X372120Y345029D02*
X377631D01*
X372120Y336565D02*
Y345029D01*
X377631Y336565D02*
Y345029D01*
X372120Y318592D02*
X377631D01*
X372120Y327057D02*
X377631D01*
X372120Y318592D02*
Y327057D01*
X377631Y318592D02*
Y327057D01*
X372120Y300620D02*
X377631D01*
X372120Y309084D02*
X377631D01*
X372120Y300620D02*
Y309084D01*
X377631Y300620D02*
Y309084D01*
X372120Y282647D02*
X377631D01*
X372120Y291112D02*
X377631D01*
X372120Y282647D02*
Y291112D01*
X377631Y282647D02*
Y291112D01*
X372120Y264675D02*
X377631D01*
X372120Y273139D02*
X377631D01*
X372120Y264675D02*
Y273139D01*
X377631Y264675D02*
Y273139D01*
X372120Y246702D02*
X377631D01*
X372120Y255167D02*
X377631D01*
X372120Y246702D02*
Y255167D01*
X377631Y246702D02*
Y255167D01*
X386220Y254363D02*
X391732D01*
X386220Y245898D02*
X391732D01*
X386220D02*
Y254363D01*
X391732Y245898D02*
Y254363D01*
X386220Y272335D02*
X391732D01*
X386220Y263871D02*
X391732D01*
X386220D02*
Y272335D01*
X391732Y263871D02*
Y272335D01*
X386220Y290308D02*
X391732D01*
X386220Y281843D02*
X391732D01*
X386220D02*
Y290308D01*
X391732Y281843D02*
Y290308D01*
X386220Y308280D02*
X391732D01*
X386220Y299816D02*
X391732D01*
X386220D02*
Y308280D01*
X391732Y299816D02*
Y308280D01*
X386220Y326253D02*
X391732D01*
X386220Y317788D02*
X391732D01*
X386220D02*
Y326253D01*
X391732Y317788D02*
Y326253D01*
X386220Y344225D02*
X391732D01*
X386220Y335761D02*
X391732D01*
X386220D02*
Y344225D01*
X391732Y335761D02*
Y344225D01*
X386220Y362198D02*
X391732D01*
X386220Y353733D02*
X391732D01*
X386220D02*
Y362198D01*
X391732Y353733D02*
Y362198D01*
X2544Y358531D02*
X8056D01*
X2544Y366995D02*
X8056D01*
X2544Y358531D02*
Y366995D01*
X8056Y358531D02*
Y366995D01*
X2544Y340558D02*
X8056D01*
X2544Y349023D02*
X8056D01*
X2544Y340558D02*
Y349023D01*
X8056Y340558D02*
Y349023D01*
X2544Y322586D02*
X8056D01*
X2544Y331050D02*
X8056D01*
X2544Y322586D02*
Y331050D01*
X8056Y322586D02*
Y331050D01*
X2544Y304613D02*
X8056D01*
X2544Y313078D02*
X8056D01*
X2544Y304613D02*
Y313078D01*
X8056Y304613D02*
Y313078D01*
X2544Y286641D02*
X8056D01*
X2544Y295106D02*
X8056D01*
X2544Y286641D02*
Y295106D01*
X8056Y286641D02*
Y295106D01*
X2544Y268669D02*
X8056D01*
X2544Y277133D02*
X8056D01*
X2544Y268669D02*
Y277133D01*
X8056Y268669D02*
Y277133D01*
X2544Y250696D02*
X8056D01*
X2544Y259161D02*
X8056D01*
X2544Y250696D02*
Y259161D01*
X8056Y250696D02*
Y259161D01*
X261520Y331953D02*
X267032D01*
X261520Y323488D02*
X267032D01*
X261520D02*
Y331953D01*
X267032Y323488D02*
Y331953D01*
X261520Y260063D02*
X267032D01*
X261520Y251598D02*
X267032D01*
X261520D02*
Y260063D01*
X267032Y251598D02*
Y260063D01*
X261520Y278035D02*
X267032D01*
X261520Y269571D02*
X267032D01*
X261520D02*
Y278035D01*
X267032Y269571D02*
Y278035D01*
X261520Y296008D02*
X267032D01*
X261520Y287543D02*
X267032D01*
X261520D02*
Y296008D01*
X267032Y287543D02*
Y296008D01*
X261520Y313980D02*
X267032D01*
X261520Y305516D02*
X267032D01*
X261520D02*
Y313980D01*
X267032Y305516D02*
Y313980D01*
X261520Y349925D02*
X267032D01*
X261520Y341461D02*
X267032D01*
X261520D02*
Y349925D01*
X267032Y341461D02*
Y349925D01*
X261520Y367898D02*
X267032D01*
X261520Y359433D02*
X267032D01*
X261520D02*
Y367898D01*
X267032Y359433D02*
Y367898D01*
X265020Y359937D02*
X270532D01*
X265020Y368402D02*
X270532D01*
X265020Y359937D02*
Y368402D01*
X270532Y359937D02*
Y368402D01*
X265020Y341965D02*
X270532D01*
X265020Y350429D02*
X270532D01*
X265020Y341965D02*
Y350429D01*
X270532Y341965D02*
Y350429D01*
X265020Y323992D02*
X270532D01*
X265020Y332457D02*
X270532D01*
X265020Y323992D02*
Y332457D01*
X270532Y323992D02*
Y332457D01*
X265020Y306020D02*
X270532D01*
X265020Y314484D02*
X270532D01*
X265020Y306020D02*
Y314484D01*
X270532Y306020D02*
Y314484D01*
X265020Y288047D02*
X270532D01*
X265020Y296512D02*
X270532D01*
X265020Y288047D02*
Y296512D01*
X270532Y288047D02*
Y296512D01*
X265020Y270075D02*
X270532D01*
X265020Y278539D02*
X270532D01*
X265020Y270075D02*
Y278539D01*
X270532Y270075D02*
Y278539D01*
X265020Y252102D02*
X270532D01*
X265020Y260567D02*
X270532D01*
X265020Y252102D02*
Y260567D01*
X270532Y252102D02*
Y260567D01*
X249344Y240732D02*
X254856D01*
X249344Y232268D02*
X254856D01*
X249344D02*
Y240732D01*
X254856Y232268D02*
Y240732D01*
X245954Y232269D02*
Y240931D01*
X240246Y232269D02*
Y240931D01*
Y232269D02*
X245954D01*
X240246Y240931D02*
X245954D01*
X237669Y210154D02*
X246331D01*
X237669Y204446D02*
X246331D01*
X237669D02*
Y210154D01*
X246331Y204446D02*
Y210154D01*
X117944Y241532D02*
X123456D01*
X117944Y233068D02*
X123456D01*
X117944D02*
Y241532D01*
X123456Y233068D02*
Y241532D01*
X114454Y233129D02*
Y241791D01*
X108746Y233129D02*
Y241791D01*
Y233129D02*
X114454D01*
X108746Y241791D02*
X114454D01*
X130520Y368898D02*
X136031D01*
X130520Y360433D02*
X136031D01*
X130520D02*
Y368898D01*
X136031Y360433D02*
Y368898D01*
X130520Y261063D02*
X136031D01*
X130520Y252598D02*
X136031D01*
X130520D02*
Y261063D01*
X136031Y252598D02*
Y261063D01*
X130520Y279035D02*
X136031D01*
X130520Y270571D02*
X136031D01*
X130520D02*
Y279035D01*
X136031Y270571D02*
Y279035D01*
X130520Y297008D02*
X136031D01*
X130520Y288543D02*
X136031D01*
X130520D02*
Y297008D01*
X136031Y288543D02*
Y297008D01*
X130520Y314980D02*
X136031D01*
X130520Y306516D02*
X136031D01*
X130520D02*
Y314980D01*
X136031Y306516D02*
Y314980D01*
X130520Y332953D02*
X136031D01*
X130520Y324488D02*
X136031D01*
X130520D02*
Y332953D01*
X136031Y324488D02*
Y332953D01*
X130520Y350925D02*
X136031D01*
X130520Y342461D02*
X136031D01*
X130520D02*
Y350925D01*
X136031Y342461D02*
Y350925D01*
X104669Y210354D02*
X113331D01*
X104669Y204646D02*
X113331D01*
X104669D02*
Y210354D01*
X113331Y204646D02*
Y210354D01*
X134744Y359768D02*
X140256D01*
X134744Y368232D02*
X140256D01*
X134744Y359768D02*
Y368232D01*
X140256Y359768D02*
Y368232D01*
X134744Y341795D02*
X140256D01*
X134744Y350260D02*
X140256D01*
X134744Y341795D02*
Y350260D01*
X140256Y341795D02*
Y350260D01*
X134744Y323823D02*
X140256D01*
X134744Y332287D02*
X140256D01*
X134744Y323823D02*
Y332287D01*
X140256Y323823D02*
Y332287D01*
X134744Y269905D02*
X140256D01*
X134744Y278370D02*
X140256D01*
X134744Y269905D02*
Y278370D01*
X140256Y269905D02*
Y278370D01*
X134744Y251933D02*
X140256D01*
X134744Y260398D02*
X140256D01*
X134744Y251933D02*
Y260398D01*
X140256Y251933D02*
Y260398D01*
X134744Y287878D02*
X140256D01*
X134744Y296342D02*
X140256D01*
X134744Y287878D02*
Y296342D01*
X140256Y287878D02*
Y296342D01*
X134744Y305850D02*
X140256D01*
X134744Y314315D02*
X140256D01*
X134744Y305850D02*
Y314315D01*
X140256Y305850D02*
Y314315D01*
X305016Y161417D02*
Y169882D01*
X310528Y161417D02*
Y169882D01*
X305016Y161417D02*
X310528D01*
X305016Y169882D02*
X310528D01*
X174602Y161417D02*
Y169882D01*
X180114Y161417D02*
Y169882D01*
X174602Y161417D02*
X180114D01*
X174602Y169882D02*
X180114D01*
X40843Y161319D02*
Y169783D01*
X46354Y161319D02*
Y169783D01*
X40843Y161319D02*
X46354D01*
X40843Y169783D02*
X46354D01*
X112890Y251772D02*
Y260236D01*
X107378Y251772D02*
Y260236D01*
X112890D01*
X107378Y251772D02*
X112890D01*
Y269941D02*
Y278405D01*
X107378Y269941D02*
Y278405D01*
X112890D01*
X107378Y269941D02*
X112890D01*
Y288110D02*
Y296575D01*
X107378Y288110D02*
Y296575D01*
X112890D01*
X107378Y288110D02*
X112890D01*
Y306279D02*
Y314744D01*
X107378Y306279D02*
Y314744D01*
X112890D01*
X107378Y306279D02*
X112890D01*
Y324449D02*
Y332913D01*
X107378Y324449D02*
Y332913D01*
X112890D01*
X107378Y324449D02*
X112890D01*
Y342618D02*
Y351083D01*
X107378Y342618D02*
Y351083D01*
X112890D01*
X107378Y342618D02*
X112890D01*
X247142Y251772D02*
Y260236D01*
X241630Y251772D02*
Y260236D01*
X247142D01*
X241630Y251772D02*
X247142D01*
Y269941D02*
Y278405D01*
X241630Y269941D02*
Y278405D01*
X247142D01*
X241630Y269941D02*
X247142D01*
Y288110D02*
Y296575D01*
X241630Y288110D02*
Y296575D01*
X247142D01*
X241630Y288110D02*
X247142D01*
Y306280D02*
Y314744D01*
X241630Y306280D02*
Y314744D01*
X247142D01*
X241630Y306280D02*
X247142D01*
Y324449D02*
Y332913D01*
X241630Y324449D02*
Y332913D01*
X247142D01*
X241630Y324449D02*
X247142D01*
Y342618D02*
Y351083D01*
X241630Y342618D02*
Y351083D01*
X247142D01*
X241630Y342618D02*
X247142D01*
X112988Y360827D02*
Y369291D01*
X107476Y360827D02*
Y369291D01*
X112988D01*
X107476Y360827D02*
X112988D01*
X117319Y360827D02*
Y369291D01*
X111807Y360827D02*
Y369291D01*
Y360827D02*
X117319D01*
X111807Y369291D02*
X117319D01*
Y342618D02*
Y351083D01*
X111807Y342618D02*
Y351083D01*
Y342618D02*
X117319D01*
X111807Y351083D02*
X117319D01*
Y324409D02*
Y332874D01*
X111807Y324409D02*
Y332874D01*
Y324409D02*
X117319D01*
X111807Y332874D02*
X117319D01*
X117516Y306201D02*
Y314665D01*
X112004Y306201D02*
Y314665D01*
Y306201D02*
X117516D01*
X112004Y314665D02*
X117516D01*
Y288189D02*
Y296654D01*
X112004Y288189D02*
Y296654D01*
Y288189D02*
X117516D01*
X112004Y296654D02*
X117516D01*
X117713Y269882D02*
Y278346D01*
X112201Y269882D02*
Y278346D01*
Y269882D02*
X117713D01*
X112201Y278346D02*
X117713D01*
X117614Y251772D02*
Y260236D01*
X112102Y251772D02*
Y260236D01*
Y251772D02*
X117614D01*
X112102Y260236D02*
X117614D01*
X247027Y360115D02*
Y368579D01*
X241515Y360115D02*
Y368579D01*
X247027D01*
X241515Y360115D02*
X247027D01*
X250685Y359547D02*
Y368012D01*
X245173Y359547D02*
Y368012D01*
Y359547D02*
X250685D01*
X245173Y368012D02*
X250685D01*
Y341575D02*
Y350039D01*
X245173Y341575D02*
Y350039D01*
Y341575D02*
X250685D01*
X245173Y350039D02*
X250685D01*
Y323602D02*
Y332067D01*
X245173Y323602D02*
Y332067D01*
Y323602D02*
X250685D01*
X245173Y332067D02*
X250685D01*
Y305630D02*
Y314094D01*
X245173Y305630D02*
Y314094D01*
Y305630D02*
X250685D01*
X245173Y314094D02*
X250685D01*
Y287657D02*
Y296122D01*
X245173Y287657D02*
Y296122D01*
Y287657D02*
X250685D01*
X245173Y296122D02*
X250685D01*
Y269685D02*
Y278150D01*
X245173Y269685D02*
Y278150D01*
Y269685D02*
X250685D01*
X245173Y278150D02*
X250685D01*
Y251713D02*
Y260177D01*
X245173Y251713D02*
Y260177D01*
Y251713D02*
X250685D01*
X245173Y260177D02*
X250685D01*
X321269Y161446D02*
Y167154D01*
X329931Y161446D02*
Y167154D01*
X321269D02*
X329931D01*
X321269Y161446D02*
X329931D01*
X309839Y147933D02*
Y153642D01*
X318500Y147933D02*
Y153642D01*
X309839D02*
X318500D01*
X309839Y147933D02*
X318500D01*
X56669Y163746D02*
Y169454D01*
X65331Y163746D02*
Y169454D01*
X56669D02*
X65331D01*
X56669Y163746D02*
X65331D01*
X179327Y147933D02*
Y153642D01*
X187988Y147933D02*
Y153642D01*
X179327D02*
X187988D01*
X179327Y147933D02*
X187988D01*
X191369Y161446D02*
Y167154D01*
X200031Y161446D02*
Y167154D01*
X191369D02*
X200031D01*
X191369Y161446D02*
X200031D01*
X45469Y147835D02*
Y153543D01*
X54130Y147835D02*
Y153543D01*
X45469D02*
X54130D01*
X45469Y147835D02*
X54130D01*
M02*
